SplineFontDB: 1.0
FontName: AkaashNormal
FullName: AkaashNormal
FamilyName: Akaash
Weight: Normal
Copyright: Copyright (C) 2002-2003  Sayamindu Dasgupta, Palash Baran Pal. This font is free software; you can redistribute it and/or modify\nit under the terms of the GNU General Public License as published by the Free Software Foundation; either version 2 of the License, or (at your option) any later version.\nThis font is distributed in the hope that it will be useful, but WITHOUT ANY WARRANTY; without even the implied warranty of    MERCHANTABILITY or FITNESS FOR A PARTICULAR PURPOSE.  See the GNU General Public License for more details.\n\nYou should have received a copy of the GNU General Public License\nalong with this program; if not, write to the \nFree Software Foundation, Inc., 59 Temple Place, Suite 330, Boston, MA  02111-1307  USA\n\nBengali glyphs are by Palash Baran Pal <pbpal@theory.saha.ernet.in>\nLatin glyphs are from the FreeSans font of the FreeFonts Project.
Version: 0.85
ItalicAngle: 0
UnderlinePosition: -205
UnderlineWidth: 102
Ascent: 1638
Descent: 410
NeedsXUIDChange: 1
FSType: 12
PfmFamily: 17
TTFWeight: 500
TTFWidth: 5
Panose: 2 0 6 3 0 0 0 0 0 0
LineGap: 184
VLineGap: 0
ScriptLang: 2
 1 beng 1 dflt 
 1 latn 1 dflt 
TableOrder: GSUB 11
	'init'
	'nukt'
	'rphf'
	'blwf'
	'half'
	'pstf'
	'vatu'
	'pres'
	'blws'
	'psts'
	'haln'
LangName: 1033 "" "" "" "PfaEdit : BanglaTemplate : 30-3-2003" "" "" "" "" "Majantali" "Deepayan Sarkar" 

StartChar: .notdef
Encoding: 0 -1 0
Width: 886
Flags: HW
Fore
68 0 m 1
 68 1365 l 1
 750 1365 l 1
 750 0 l 1
 68 0 l 1
136 68 m 1
 682 68 l 1
 682 1297 l 1
 136 1297 l 1
 136 68 l 1
EndSplineSet
EndChar
StartChar: exclam
Encoding: 33 33 4
Width: 750
VWidth: 1000
Flags: HW
Fore
620 1120 m 1
 620 601 l 1
 581 258 l 1
 521 258 l 1
 483 601 l 1
 483 1120 l 1
 620 1120 l 1
615 160 m 1
 615 0 l 1
 485 0 l 1
 485 160 l 1
 615 160 l 1
EndSplineSet
EndChar
StartChar: quotedbl
Encoding: 34 34 5
Width: 588
VWidth: 1000
Flags: HW
Fore
30 1090.8 m 1
 201.6 1090.8 l 1
 201.6 886.8 l 1
 151.2 638.4 l 1
 79.2002 638.4 l 1
 30 886.8 l 1
 30 1090.8 l 1
324 1090.8 m 1
 496.8 1090.8 l 1
 496.8 886.8 l 1
 445.2 638.4 l 1
 373.2 638.4 l 1
 324 886.8 l 1
 324 1090.8 l 1
EndSplineSet
EndChar
StartChar: numbersign
Encoding: 35 35 6
Width: 920
VWidth: 1000
Flags: HW
Fore
792 1159.2 m 1
 726 799.2 l 1
 896.4 799.2 l 1
 896.4 673.2 l 1
 702 673.2 l 1
 643.2 352.8 l 1
 836.4 352.8 l 1
 836.4 228 l 1
 621.6 228 l 1
 549.6 -162 l 1
 409.2 -162 l 1
 480 228 l 1
 252 228 l 1
 180 -162 l 1
 39.5996 -162 l 1
 110.4 228 l 1
 -76.7998 228 l 1
 -76.7998 352.8 l 1
 133.2 352.8 l 1
 192 673.2 l 1
 -9.59961 673.2 l 1
 -9.59961 799.2 l 1
 213.6 799.2 l 1
 282 1159.2 l 1
 421.2 1159.2 l 1
 355.2 799.2 l 1
 584.4 799.2 l 1
 650.4 1159.2 l 1
 792 1159.2 l 1
560.4 673.2 m 1
 332.4 673.2 l 1
 273.6 352.8 l 1
 504 352.8 l 1
 560.4 673.2 l 1
EndSplineSet
EndChar
StartChar: dollar
Encoding: 36 36 7
Width: 920
VWidth: 1000
Flags: HW
Fore
346.8 1300.8 m 1
 454.8 1300.8 l 1
 454.8 1201.2 l 1
 678 1184.4 813.6 1048.8 813.6 838.8 c 1
 666 838.8 l 1
 664.8 972 579.6 1066.8 454.8 1072.8 c 1
 454.8 613.2 l 1
 624 562.8 648 552 696 524.4 c 0
 804 463.2 854.4 372 854.4 240 c 0
 854.4 97.2002 790.8 -30 682.8 -96 c 0
 622.8 -133.2 554.4 -153.6 454.8 -160.8 c 1
 454.8 -351.6 l 1
 346.8 -351.6 l 1
 346.8 -160.8 l 1
 86.4004 -144 -54 8.40039 -39.5996 265.2 c 1
 104.4 265.2 l 1
 116.4 145.2 123.6 114 152.4 72 c 1
 194.4 13.2002 264 -22.7998 346.8 -34.7998 c 1
 346.8 468 l 1
 212.4 508.8 162 528 114 564 c 0
 27.5996 625.2 -18 716.4 -18 832.8 c 0
 -18 1042.8 111.6 1171.2 346.8 1201.2 c 1
 346.8 1300.8 l 1
346.8 626.4 m 1
 346.8 1070.4 l 1
 210 1051.2 132 972 132 850.8 c 0
 132 738 201.6 666 346.8 626.4 c 1
454.8 451.2 m 1
 454.8 -34.7998 l 1
 534 -25.2002 580.8 -7.2002 624 34.7998 c 0
 674.4 82.7998 702 146.4 702 218.4 c 0
 702 340.8 642 396 454.8 451.2 c 1
EndSplineSet
EndChar
StartChar: percent
Encoding: 37 37 8
Width: 1473
VWidth: 1000
Flags: HW
Fore
204 1136.4 m 0
 379.2 1136.4 518.4 994.8 518.4 816 c 0
 518.4 646.8 376.8 504 205.2 504 c 0
 31.2002 504 -110.4 646.8 -110.4 820.8 c 0
 -110.4 993.6 31.2002 1136.4 204 1136.4 c 0
204 1006.8 m 0
 102 1006.8 18 922.8 18 820.8 c 128
 18 718.8 102 634.8 205.2 634.8 c 0
 306 634.8 391.2 717.6 391.2 819.6 c 0
 391.2 922.8 307.2 1006.8 204 1006.8 c 0
958.8 1179.6 m 1
 1080 1179.6 l 1
 352.8 -164.4 l 1
 230.4 -164.4 l 1
 958.8 1179.6 l 1
1104 465.6 m 0
 1282.8 465.6 1418.4 326.4 1418.4 148.8 c 0
 1418.4 -20.4004 1274.4 -160.8 1106.4 -160.8 c 0
 933.6 -160.8 792 -20.4004 792 153.6 c 0
 792 324 933.6 465.6 1104 465.6 c 0
1104 338.4 m 0
 1003.2 338.4 918 254.4 918 153.6 c 0
 918 50.4004 1003.2 -33.5996 1106.4 -33.5996 c 0
 1207.2 -33.5996 1293.6 50.4004 1293.6 148.8 c 0
 1293.6 254.4 1210.8 338.4 1104 338.4 c 0
EndSplineSet
EndChar
StartChar: ampersand
Encoding: 38 38 9
Width: 1100
VWidth: 1000
Flags: HW
Fore
782.4 488.4 m 1
 928.8 488.4 l 1
 928.8 379.2 890.4 258 822 151.2 c 1
 1047.6 -126 l 1
 846 -126 l 1
 730.8 18 l 1
 662.4 -51.5996 628.8 -78 590.4 -102 c 0
 524.4 -144 436.8 -168 346.8 -168 c 0
 118.8 -168 -31.2002 -22.7998 -31.2002 198 c 0
 -31.2002 366 38.4004 457.2 267.6 590.4 c 1
 153.6 734.4 117.6 804 117.6 890.4 c 0
 117.6 1053.6 258 1179.6 434.4 1179.6 c 0
 608.4 1179.6 734.4 1059.6 734.4 890.4 c 0
 734.4 758.4 670.8 679.2 478.8 570 c 1
 724.8 270 l 1
 760.8 333.6 783.6 422.4 782.4 488.4 c 1
398.4 668.4 m 1
 542.4 758.4 588 811.2 588 895.2 c 0
 588 985.2 519.6 1051.2 428.4 1051.2 c 0
 332.4 1051.2 268.8 987.6 268.8 894 c 0
 268.8 829.2 285.6 798 398.4 668.4 c 1
644.4 127.2 m 1
 348 494.4 l 1
 180 387.6 123.6 313.2 123.6 211.2 c 0
 123.6 81.5996 231.6 -24 364.8 -24 c 0
 460.8 -24 540 18 644.4 127.2 c 1
EndSplineSet
EndChar
StartChar: quotesingle
Encoding: 39 39 10
Width: 480
Flags: HW
Fore
170.4 1395.6 m 1
 363.6 1395.6 l 1
 363.6 1173.6 l 2
 363.6 1015.2 298.8 931.2 170.4 931.2 c 1
 170.4 1002 l 1
 255.6 1006.8 280.8 1042.8 280.8 1170 c 2
 280.8 1203.6 l 1
 170.4 1203.6 l 1
 170.4 1395.6 l 1
EndSplineSet
EndChar
StartChar: parenleft
Encoding: 40 40 11
Width: 544
VWidth: 1000
Flags: HW
Fore
367.2 1248 m 1
 470.4 1248 l 1
 307.2 986.4 216 675.6 216 381.6 c 0
 216 87.5996 307.2 -223.2 470.4 -484.8 c 1
 367.2 -484.8 l 1
 183.6 -244.8 67.2002 91.2002 67.2002 381.6 c 0
 67.2002 670.8 183.6 1006.8 367.2 1248 c 1
EndSplineSet
EndChar
StartChar: parenright
Encoding: 41 41 12
Width: 556
VWidth: 1000
Flags: HW
Fore
116.4 -484.8 m 1
 16.7998 -484.8 l 1
 178.8 -224.4 268.8 87.5996 268.8 380.4 c 0
 268.8 675.6 178.8 984 16.7998 1248 c 1
 116.4 1248 l 1
 301.2 1006.8 416.4 670.8 416.4 380.4 c 0
 416.4 91.2002 301.2 -244.8 116.4 -484.8 c 1
EndSplineSet
EndChar
StartChar: asterisk
Encoding: 42 42 13
Width: 644
VWidth: 1000
Flags: HW
Fore
225.6 1128 m 1
 340.8 1128 l 1
 331.2 921.6 l 1
 526.8 991.2 l 1
 561.6 883.2 l 1
 362.4 826.8 l 1
 492 663.6 l 1
 397.2 597.6 l 1
 283.2 768 l 1
 166.8 597.6 l 1
 74.4004 663.6 l 1
 202.8 826.8 l 1
 2.40039 883.2 l 1
 38.4004 991.2 l 1
 234 921.6 l 1
 225.6 1128 l 1
EndSplineSet
EndChar
StartChar: plus
Encoding: 43 43 14
Width: 967
VWidth: 1000
Flags: HW
Fore
876 406.8 m 1
 876 277.2 l 1
 495.6 277.2 l 1
 495.6 -103.2 l 1
 366 -103.2 l 1
 366 277.2 l 1
 -15.5996 277.2 l 1
 -15.5996 406.8 l 1
 366 406.8 l 1
 366 788.4 l 1
 495.6 788.4 l 1
 495.6 406.8 l 1
 876 406.8 l 1
EndSplineSet
EndChar
StartChar: comma
Encoding: 44 44 15
Width: 459
VWidth: 1000
Flags: HW
Fore
109.2 200.4 m 5
 302.4 200.4 l 5
 302.4 -21.5996 l 6
 302.4 -180 237.6 -264 109.2 -264 c 5
 109.2 -193.2 l 5
 194.4 -188.4 219.6 -152.4 219.6 -25.2002 c 6
 219.6 8.40039 l 5
 109.2 8.40039 l 5
 109.2 200.4 l 5
EndSplineSet
EndChar
StartChar: hyphen
Encoding: 45 45 16
Width: 550
VWidth: 1000
Flags: HW
Fore
463.2 472.8 m 1
 463.2 340.8 l 1
 22.7998 340.8 l 1
 22.7998 472.8 l 1
 463.2 472.8 l 1
EndSplineSet
EndChar
StartChar: period
Encoding: 46 46 17
Width: 459
VWidth: 1000
Flags: HW
Fore
301.2 172.8 m 1
 301.2 -19.2002 l 1
 109.2 -19.2002 l 1
 109.2 172.8 l 1
 301.2 172.8 l 1
EndSplineSet
EndChar
StartChar: slash
Encoding: 47 47 18
Width: 459
VWidth: 1000
Flags: HW
Fore
370.8 1213.2 m 1
 472.8 1213.2 l 1
 36 -168 l 1
 -66 -168 l 1
 370.8 1213.2 l 1
EndSplineSet
EndChar
StartChar: zero
Encoding: 48 48 19
Width: 921
VWidth: 1000
Flags: HW
Fore
405.6 1179.6 m 0
 729.6 1179.6 832.8 873.6 832.8 494.4 c 0
 832.8 66 681.6 -168 405.6 -168 c 0
 124.8 -168 -21.5996 66 -21.5996 505.2 c 0
 -21.5996 747.6 20.4004 921.6 104.4 1035.6 c 0
 172.8 1128 284.4 1179.6 405.6 1179.6 c 0
405.6 1035.6 m 0
 230.4 1035.6 142.8 861.6 142.8 504 c 0
 142.8 146.4 230.4 -34.7998 400.8 -34.7998 c 0
 583.2 -34.7998 667.2 139.2 667.2 510 c 0
 667.2 860.4 580.8 1035.6 405.6 1035.6 c 0
EndSplineSet
EndChar
StartChar: one
Encoding: 49 49 20
Width: 939
VWidth: 1000
Flags: HW
Fore
393.6 799.2 m 1
 104.4 799.2 l 1
 104.4 916.8 l 1
 355.2 948 392.4 974.4 450 1176 c 1
 558 1176 l 1
 558 -130.8 l 1
 393.6 -130.8 l 1
 393.6 799.2 l 1
EndSplineSet
EndChar
StartChar: two
Encoding: 50 50 21
Width: 921
VWidth: 1000
Flags: HW
Fore
422.4 1176 m 0
 670.8 1176 841.2 1020 841.2 793.2 c 0
 841.2 632.4 746.4 498 564 398.4 c 2
 381.6 298.8 l 1
 220.8 205.2 162 136.8 144 30 c 1
 832.8 30 l 1
 832.8 -130.8 l 1
 -37.2002 -130.8 l 1
 -22.7998 156 55.2002 280.8 328.8 434.4 c 2
 499.2 530.4 l 2
 614.4 596.4 674.4 685.2 674.4 788.4 c 0
 674.4 930 564 1033.2 417.6 1033.2 c 0
 319.2 1033.2 235.2 986.4 193.2 907.2 c 0
 170.4 865.2 158.4 811.2 154.8 722.4 c 1
 -9.59961 722.4 l 1
 -4.7998 856.8 14.4004 937.2 61.2002 1006.8 c 0
 133.2 1117.2 256.8 1176 422.4 1176 c 0
EndSplineSet
EndChar
StartChar: three
Encoding: 51 51 22
Width: 922
VWidth: 1000
Flags: HW
Fore
391.2 -168 m 0
 117.6 -168 -19.2002 -30 -39.5996 253.2 c 1
 122.4 253.2 l 1
 133.2 63.5996 218.4 -24 397.2 -24 c 0
 565.2 -24 667.2 73.2002 667.2 236.4 c 0
 667.2 393.6 576 475.2 397.2 475.2 c 2
 328.8 474 l 1
 308.4 474 l 1
 308.4 609.6 l 1
 523.2 614.4 628.8 644.4 628.8 816 c 0
 628.8 954 542.4 1038 398.4 1038 c 0
 296.4 1038 216 993.6 177.6 921.6 c 0
 158.4 882 151.2 837.6 150 758.4 c 1
 -12 758.4 l 1
 -7.2002 1035.6 133.2 1179.6 397.2 1179.6 c 0
 644.4 1179.6 794.4 1046.4 794.4 822 c 0
 794.4 690 734.4 597.6 613.2 549.6 c 1
 769.2 495.6 834 404.4 834 240 c 0
 834 -8.40039 660 -168 391.2 -168 c 0
EndSplineSet
EndChar
StartChar: four
Encoding: 52 52 23
Width: 921
VWidth: 1000
Flags: HW
Fore
501.6 182.4 m 1
 -50.4004 182.4 l 1
 -50.4004 354 l 1
 543.6 1176 l 1
 663.6 1176 l 1
 663.6 328.8 l 1
 858 328.8 l 1
 858 182.4 l 1
 663.6 182.4 l 1
 663.6 -130.8 l 1
 501.6 -130.8 l 1
 501.6 182.4 l 1
501.6 328.8 m 1
 501.6 900 l 1
 92.4004 328.8 l 1
 501.6 328.8 l 1
EndSplineSet
EndChar
StartChar: five
Encoding: 53 53 24
Width: 921
VWidth: 1000
Flags: HW
Fore
776.4 1179.6 m 1
 776.4 1020 l 1
 232.8 1020 l 1
 181.2 655.2 l 1
 255.6 710.4 328.8 734.4 422.4 734.4 c 0
 673.2 734.4 844.8 558 844.8 300 c 0
 844.8 24 661.2 -168 397.2 -168 c 0
 248.4 -168 116.4 -111.6 43.2002 -12 c 1
 3.59961 36 -14.4004 87.5996 -36 194.4 c 1
 124.8 194.4 l 1
 164.4 48 252 -24 392.4 -24 c 0
 568.8 -24 679.2 90 679.2 277.2 c 0
 679.2 470.4 567.6 590.4 392.4 590.4 c 0
 291.6 590.4 229.2 559.2 153.6 469.2 c 1
 3.59961 469.2 l 1
 100.8 1179.6 l 1
 776.4 1179.6 l 1
EndSplineSet
EndChar
StartChar: six
Encoding: 54 54 25
Width: 920
VWidth: 1000
Flags: HW
Fore
415.2 -168 m 0
 88.7998 -168 -22.7998 99.5996 -22.7998 469.2 c 0
 -22.7998 708 13.2002 866.4 93.5996 993.6 c 0
 171.6 1110 301.2 1179.6 445.2 1179.6 c 0
 643.2 1179.6 783.6 1053.6 816 840 c 1
 652.8 840 l 1
 627.6 963.6 548.4 1035.6 434.4 1035.6 c 0
 247.2 1035.6 144 860.4 141.6 541.2 c 1
 212.4 637.2 314.4 686.4 444 686.4 c 0
 676.8 686.4 843.6 516 843.6 271.2 c 0
 843.6 15.5996 663.6 -168 415.2 -168 c 0
422.4 542.4 m 0
 264 542.4 152.4 429.6 152.4 267.6 c 0
 152.4 99.5996 266.4 -24 417.6 -24 c 0
 566.4 -24 676.8 96 676.8 259.2 c 0
 676.8 434.4 579.6 542.4 422.4 542.4 c 0
EndSplineSet
EndChar
StartChar: seven
Encoding: 55 55 26
Width: 918
VWidth: 1000
Flags: HW
Fore
854.4 1176 m 1
 854.4 1039.2 l 1
 559.2 646.8 394.8 288 322.8 -130.8 c 1
 151.2 -130.8 l 1
 248.4 298.8 374.4 571.2 686.4 1015.2 c 1
 -20.4004 1015.2 l 1
 -20.4004 1176 l 1
 854.4 1176 l 1
EndSplineSet
EndChar
StartChar: eight
Encoding: 56 56 27
Width: 920
VWidth: 1000
Flags: HW
Fore
620.4 560.4 m 1
 770.4 488.4 844.8 380.4 844.8 235.2 c 0
 844.8 -3.59961 663.6 -168 405.6 -168 c 0
 147.6 -168 -32.4004 -3.59961 -32.4004 236.4 c 0
 -32.4004 380.4 40.7998 488.4 189.6 560.4 c 1
 57.5996 644.4 12 710.4 12 831.6 c 0
 12 1035.6 174 1179.6 405.6 1179.6 c 0
 638.4 1179.6 796.8 1035.6 796.8 831.6 c 0
 796.8 709.2 753.6 642 620.4 560.4 c 1
405.6 1035.6 m 0
 268.8 1035.6 178.8 955.2 178.8 830.4 c 0
 178.8 708 268.8 626.4 405.6 626.4 c 128
 542.4 626.4 632.4 708 632.4 829.2 c 0
 632.4 955.2 543.6 1035.6 405.6 1035.6 c 0
405.6 488.4 m 0
 243.6 488.4 132 385.2 132 231.6 c 0
 132 79.2002 243.6 -24 400.8 -24 c 0
 567.6 -24 678 78 678 231.6 c 128
 678 385.2 567.6 488.4 405.6 488.4 c 0
EndSplineSet
EndChar
StartChar: nine
Encoding: 57 57 28
Width: 921
VWidth: 1000
Flags: HW
Fore
397.2 1179.6 m 0
 721.2 1179.6 836.4 914.4 836.4 542.4 c 0
 836.4 303.6 800.4 145.2 716.4 18 c 0
 642 -98.4004 511.2 -168 367.2 -168 c 0
 168 -168 28.7998 -42 -3.59961 171.6 c 1
 158.4 171.6 l 1
 184.8 48 265.2 -24 378 -24 c 0
 564 -24 667.2 151.2 669.6 470.4 c 1
 584.4 369.6 494.4 325.2 369.6 325.2 c 0
 134.4 325.2 -30 495.6 -30 740.4 c 0
 -30 996 148.8 1179.6 397.2 1179.6 c 0
396 1038 m 0
 246 1038 134.4 919.2 134.4 752.4 c 0
 134.4 577.2 234 469.2 390 469.2 c 0
 548.4 469.2 661.2 583.2 661.2 744 c 0
 661.2 913.2 546 1038 396 1038 c 0
EndSplineSet
EndChar
StartChar: colon
Encoding: 58 58 29
Width: 451
VWidth: 1000
Flags: HW
Fore
334.8 96 m 1
 334.8 -96 l 1
 142.8 -96 l 1
 142.8 96 l 1
 334.8 96 l 1
334.8 868.8 m 1
 334.8 676.8 l 1
 142.8 676.8 l 1
 142.8 868.8 l 1
 334.8 868.8 l 1
EndSplineSet
EndChar
StartChar: semicolon
Encoding: 59 59 30
Width: 451
VWidth: 1000
Flags: HW
Fore
336 896.4 m 1
 336 704.4 l 1
 144 704.4 l 1
 144 896.4 l 1
 336 896.4 l 1
142.8 122.4 m 1
 336 122.4 l 1
 336 -99.5996 l 2
 336 -256.8 271.2 -340.8 142.8 -340.8 c 1
 142.8 -270 l 1
 229.2 -266.4 253.2 -230.4 253.2 -102 c 2
 253.2 -69.5996 l 1
 142.8 -69.5996 l 1
 142.8 122.4 l 1
EndSplineSet
EndChar
StartChar: less
Encoding: 60 60 31
Width: 968
VWidth: 1000
Flags: HW
Fore
-24 280.8 m 1
 -24 405.6 l 1
 877.2 788.4 l 1
 877.2 642 l 1
 151.2 344.4 l 1
 877.2 43.2002 l 1
 877.2 -102 l 1
 -24 280.8 l 1
EndSplineSet
EndChar
StartChar: equal
Encoding: 61 61 32
Width: 967
VWidth: 1000
Flags: HW
Fore
876 565.2 m 1
 876 436.8 l 1
 -15.5996 436.8 l 1
 -15.5996 565.2 l 1
 876 565.2 l 1
876 249.6 m 1
 876 118.8 l 1
 -15.5996 118.8 l 1
 -15.5996 249.6 l 1
 876 249.6 l 1
EndSplineSet
EndChar
StartChar: greater
Encoding: 62 62 33
Width: 966
VWidth: 1000
Flags: HW
Fore
884.4 405.6 m 1
 884.4 280.8 l 1
 -16.7998 -102 l 1
 -16.7998 43.2002 l 1
 709.2 340.8 l 1
 -16.7998 642 l 1
 -16.7998 788.4 l 1
 884.4 405.6 l 1
EndSplineSet
EndChar
StartChar: question
Encoding: 63 63 34
Width: 1189
Flags: HW
Fore
775 1012 m 0
 875 1008 959.667 973.333 1029 908 c 2
 1030 907 l 2
 1102 839 1137.67 756.667 1137 660 c 0
 1137 617.333 1122 576.333 1092 537 c 0
 1052 483.667 977.667 427 869 367 c 0
 810.333 335 777.667 315.667 771 309 c 0
 745 284.333 731.333 237.333 730 168 c 1
 732 102 l 1
 675 111 l 1
 618 285 l 1
 618 347.667 639 396.667 681 432 c 0
 687 437.333 694.333 443.333 703 450 c 1
 703 451 l 1
 836 547 l 2
 919.333 607.667 961.667 653.333 963 684 c 0
 965 736 955 780 933 816 c 0
 896.333 876.667 833.333 909.333 744 914 c 0
 687.333 917.333 639.333 904.667 600 876 c 2
 599 876 l 1
 579 858 l 1
 607 824 622 785 624 741 c 0
 624.667 721 616 702.333 598 685 c 0
 569.333 657 532 640.667 486 636 c 0
 458 633.333 430.667 644 404 668 c 0
 372.667 697.333 357 729.667 357 765 c 0
 357 823 383.667 871.333 437 910 c 0
 439.667 912 442 913.667 444 915 c 1
 444 915 l 1
 544 983.667 654.333 1016 775 1012 c 0
693 15 m 0
 730.333 14.3333 759 -2 779 -34 c 0
 789.667 -50.6667 795 -69.3333 795 -90 c 0
 795 -128.667 779.333 -158.667 748 -180 c 0
 730.667 -192 711.333 -198 690 -198 c 0
 652.667 -197.333 624 -180.667 604 -148 c 0
 592.667 -129.333 587.333 -109 588 -87 c 0
 589.333 -49.6667 605.667 -21 637 -1 c 0
 654.333 9.66667 673 15 693 15 c 0
EndSplineSet
EndChar
StartChar: at
Encoding: 64 64 35
Width: 1687
VWidth: 1000
Flags: HW
Fore
1044 813.6 m 1
 1196.4 813.6 l 1
 1032 297.6 l 1
 1016.4 255.6 1009.2 220.8 1009.2 204 c 0
 1009.2 160.8 1051.2 123.6 1100.4 123.6 c 0
 1256.4 123.6 1410 332.4 1410 548.4 c 0
 1410 855.6 1114.8 1113.6 762 1113.6 c 0
 373.2 1113.6 37.2002 778.8 37.2002 392.4 c 0
 37.2002 40.7998 338.4 -230.4 728.4 -230.4 c 0
 828 -230.4 932.4 -213.6 1084.8 -171.6 c 1
 1135.2 -295.2 l 1
 1003.2 -344.4 856.8 -373.2 720 -373.2 c 0
 253.2 -373.2 -118.8 -44.4004 -118.8 364.8 c 0
 -118.8 607.2 -7.2002 854.4 172.8 1017.6 c 0
 334.8 1164 566.4 1256.4 786 1256.4 c 0
 1214.4 1256.4 1572 944.4 1572 571.2 c 0
 1572 427.2 1513.2 276 1412.4 158.4 c 0
 1318.8 48 1206 -4.7998 1070.4 -4.7998 c 0
 954 -4.7998 883.2 43.2002 866.4 135.6 c 1
 782.4 44.4004 703.2 3.59961 604.8 3.59961 c 0
 433.2 3.59961 306 148.8 306 340.8 c 0
 306 608.4 532.8 850.8 778.8 850.8 c 0
 880.8 850.8 958.8 796.8 1003.2 692.4 c 1
 1044 813.6 l 1
768 734.4 m 0
 613.2 734.4 470.4 544.8 470.4 339.6 c 0
 470.4 218.4 552 122.4 654 122.4 c 0
 721.2 122.4 788.4 165.6 841.2 242.4 c 0
 888 309.6 937.2 464.4 940.8 556.8 c 0
 946.8 656.4 870 734.4 768 734.4 c 0
EndSplineSet
EndChar
StartChar: A
Encoding: 65 65 36
Width: 1104
VWidth: 1000
Flags: HW
Fore
751.2 268.8 m 1
 231.6 268.8 l 1
 91.2002 -134.4 l 1
 -92.4004 -134.4 l 1
 386.4 1209.6 l 1
 608.4 1209.6 l 1
 1080 -134.4 l 1
 888 -134.4 l 1
 751.2 268.8 l 1
703.2 412.8 m 1
 495.6 1024.8 l 1
 273.6 412.8 l 1
 703.2 412.8 l 1
EndSplineSet
EndChar
StartChar: B
Encoding: 66 66 37
Width: 1098
VWidth: 1000
Flags: HW
Fore
15.5996 -134.4 m 1
 15.5996 1209.6 l 1
 561.6 1209.6 l 2
 691.2 1209.6 782.4 1179.6 853.2 1114.8 c 0
 921.6 1052.4 960 967.2 960 867.6 c 0
 960 732 895.2 632.4 774 574.8 c 1
 944.4 508.8 1020 411.6 1020 249.6 c 0
 1020 142.8 981.6 48 915.6 -21.5996 c 0
 843.6 -99.5996 750 -134.4 624 -134.4 c 2
 15.5996 -134.4 l 1
187.2 631.2 m 1
 519.6 631.2 l 2
 614.4 631.2 668.4 643.2 715.2 679.2 c 0
 763.2 715.2 788.4 772.8 788.4 843.6 c 0
 788.4 916.8 763.2 974.4 715.2 1010.4 c 0
 668.4 1046.4 614.4 1058.4 519.6 1058.4 c 2
 187.2 1058.4 l 1
 187.2 631.2 l 1
847.2 247.2 m 0
 847.2 384 764.4 478.8 606 478.8 c 2
 187.2 478.8 l 1
 187.2 16.7998 l 1
 606 16.7998 l 2
 687.6 16.7998 745.2 36 786 81.5996 c 0
 825.6 123.6 847.2 182.4 847.2 247.2 c 0
EndSplineSet
EndChar
StartChar: C
Encoding: 67 67 38
Width: 1195
VWidth: 1000
Flags: HW
Fore
1087.2 794.4 m 1
 912 794.4 l 1
 890.4 895.2 864 950.4 814.8 997.2 c 0
 758.4 1050 656.4 1082.4 548.4 1082.4 c 0
 288 1082.4 126 870 126 525.6 c 0
 126 189.6 295.2 -22.7998 562.8 -22.7998 c 0
 706.8 -22.7998 822 38.4004 876 150 c 0
 904.8 204 922.8 265.2 937.2 357.6 c 1
 1114.8 357.6 l 1
 1074 2.40039 889.2 -174 560.4 -174 c 0
 386.4 -174 253.2 -124.8 150 -18 c 0
 22.7998 111.6 -45.5996 302.4 -45.5996 523.2 c 0
 -45.5996 741.6 20.4004 932.4 142.8 1065.6 c 0
 242.4 1176 388.8 1233.6 568.8 1233.6 c 0
 864 1233.6 1033.2 1089.6 1087.2 794.4 c 1
EndSplineSet
EndChar
StartChar: D
Encoding: 68 68 39
Width: 1189
VWidth: 1000
Flags: HW
Fore
24 -134.4 m 1
 24 1209.6 l 1
 543.6 1209.6 l 2
 883.2 1209.6 1090.8 955.2 1090.8 538.8 c 0
 1090.8 120 882 -134.4 543.6 -134.4 c 2
 24 -134.4 l 1
196.8 16.7998 m 1
 513.6 16.7998 l 2
 778.8 16.7998 919.2 196.8 919.2 536.4 c 0
 919.2 879.6 778.8 1058.4 513.6 1058.4 c 2
 196.8 1058.4 l 1
 196.8 16.7998 l 1
EndSplineSet
EndChar
StartChar: uni0045
Encoding: 69 69 40
Width: 1098
VWidth: 1000
Flags: HW
Fore
207.6 477.6 m 1
 207.6 16.7998 l 1
 999.6 16.7998 l 1
 999.6 -134.4 l 1
 36 -134.4 l 1
 36 1209.6 l 1
 967.2 1209.6 l 1
 967.2 1058.4 l 1
 207.6 1058.4 l 1
 207.6 628.8 l 1
 939.6 628.8 l 1
 939.6 477.6 l 1
 207.6 477.6 l 1
EndSplineSet
EndChar
StartChar: F
Encoding: 70 70 41
Width: 1000
VWidth: 1000
Flags: HW
Fore
213.6 477.6 m 1
 213.6 -134.4 l 1
 42 -134.4 l 1
 42 1209.6 l 1
 944.4 1209.6 l 1
 944.4 1058.4 l 1
 213.6 1058.4 l 1
 213.6 628.8 l 1
 854.4 628.8 l 1
 854.4 477.6 l 1
 213.6 477.6 l 1
EndSplineSet
EndChar
StartChar: G
Encoding: 71 71 42
Width: 1293
VWidth: 1000
Flags: HW
Fore
1167.6 577.2 m 1
 1167.6 -140.4 l 1
 1059.6 -140.4 l 1
 1016.4 38.4004 l 1
 885.6 -106.8 740.4 -174 556.8 -174 c 0
 195.6 -174 -57.5996 111.6 -57.5996 525.6 c 0
 -57.5996 765.6 31.2002 975.6 184.8 1104 c 0
 290.4 1190.4 423.6 1233.6 586.8 1233.6 c 0
 895.2 1233.6 1101.6 1076.4 1149.6 804 c 1
 974.4 804 l 1
 938.4 978 789.6 1082.4 585.6 1082.4 c 0
 301.2 1082.4 115.2 865.2 115.2 535.2 c 0
 115.2 368.4 166.8 207.6 255.6 111.6 c 0
 334.8 26.4004 458.4 -22.7998 595.2 -22.7998 c 0
 838.8 -22.7998 1016.4 150 1016.4 390 c 2
 1016.4 427.2 l 1
 607.2 427.2 l 1
 607.2 577.2 l 1
 1167.6 577.2 l 1
EndSplineSet
EndChar
StartChar: H
Encoding: 72 72 43
Width: 1194
VWidth: 1000
Flags: HW
Fore
882 477.6 m 1
 192 477.6 l 1
 192 -134.4 l 1
 19.2002 -134.4 l 1
 19.2002 1209.6 l 1
 189.6 1209.6 l 1
 189.6 628.8 l 1
 882 628.8 l 1
 882 1209.6 l 1
 1052.4 1209.6 l 1
 1052.4 -134.4 l 1
 882 -134.4 l 1
 882 477.6 l 1
EndSplineSet
EndChar
StartChar: I
Encoding: 73 73 44
Width: 457
VWidth: 1000
Flags: HW
Fore
302.4 1209.6 m 1
 302.4 -134.4 l 1
 130.8 -134.4 l 1
 130.8 1209.6 l 1
 302.4 1209.6 l 1
EndSplineSet
EndChar
StartChar: J
Encoding: 74 74 45
Width: 838
VWidth: 1000
Flags: HW
Fore
531.6 1214.4 m 1
 703.2 1214.4 l 1
 703.2 206.4 l 2
 703.2 -26.4004 559.2 -172.8 325.2 -172.8 c 0
 93.5996 -172.8 -50.4004 -33.5996 -50.4004 183.6 c 2
 -50.4004 300 l 1
 123.6 300 l 1
 123.6 214.8 l 2
 123.6 57.5996 195.6 -28.7998 326.4 -28.7998 c 0
 393.6 -28.7998 457.2 2.40039 489.6 54 c 0
 520.8 100.8 531.6 160.8 531.6 267.6 c 2
 531.6 1214.4 l 1
EndSplineSet
EndChar
StartChar: K
Encoding: 75 75 46
Width: 1092
VWidth: 1000
Flags: HW
Fore
180 334.8 m 1
 180 -134.4 l 1
 9.59961 -134.4 l 1
 9.59961 1209.6 l 1
 180 1209.6 l 1
 180 528 l 1
 850.8 1209.6 l 1
 1071.6 1209.6 l 1
 524.4 662.4 l 1
 1077.6 -134.4 l 1
 873.6 -134.4 l 1
 400.8 555.6 l 1
 180 334.8 l 1
EndSplineSet
EndChar
StartChar: L
Encoding: 76 76 47
Width: 909
VWidth: 1000
Flags: HW
Fore
205.2 1209.6 m 1
 205.2 16.7998 l 1
 870 16.7998 l 1
 870 -134.4 l 1
 33.5996 -134.4 l 1
 33.5996 1209.6 l 1
 205.2 1209.6 l 1
EndSplineSet
EndChar
StartChar: M
Encoding: 77 77 48
Width: 1380
VWidth: 1000
Flags: HW
Fore
708 -134.4 m 1
 528 -134.4 l 1
 146.4 992.4 l 1
 146.4 -134.4 l 1
 -15.5996 -134.4 l 1
 -15.5996 1209.6 l 1
 222 1209.6 l 1
 620.4 39.5996 l 1
 1010.4 1209.6 l 1
 1248 1209.6 l 1
 1248 -134.4 l 1
 1086 -134.4 l 1
 1086 992.4 l 1
 708 -134.4 l 1
EndSplineSet
EndChar
StartChar: N
Encoding: 78 78 49
Width: 1195
VWidth: 1000
Flags: HW
Fore
1058.4 1209.6 m 1
 1058.4 -134.4 l 1
 864 -134.4 l 1
 170.4 955.2 l 1
 170.4 -134.4 l 1
 7.2002 -134.4 l 1
 7.2002 1209.6 l 1
 192 1209.6 l 1
 895.2 110.4 l 1
 895.2 1209.6 l 1
 1058.4 1209.6 l 1
EndSplineSet
EndChar
StartChar: O
Encoding: 79 79 50
Width: 1287
VWidth: 1000
Flags: HW
Fore
573.6 1233.6 m 0
 967.2 1233.6 1224 950.4 1224 518.4 c 0
 1224 297.6 1137.6 91.2002 991.2 -32.4004 c 0
 883.2 -124.8 736.8 -174 574.8 -174 c 0
 187.2 -174 -73.2002 109.2 -73.2002 529.2 c 0
 -73.2002 949.2 187.2 1233.6 573.6 1233.6 c 0
573.6 1082.4 m 0
 289.2 1082.4 97.2002 860.4 97.2002 529.2 c 128
 97.2002 198 289.2 -22.7998 574.8 -22.7998 c 0
 858 -22.7998 1051.2 198 1051.2 522 c 0
 1051.2 860.4 864 1082.4 573.6 1082.4 c 0
EndSplineSet
EndChar
StartChar: P
Encoding: 80 80 51
Width: 1098
VWidth: 1000
Flags: HW
Fore
208.8 435.6 m 1
 208.8 -134.4 l 1
 37.2002 -134.4 l 1
 37.2002 1209.6 l 1
 592.8 1209.6 l 2
 858 1209.6 1006.8 1066.8 1006.8 814.8 c 0
 1006.8 692.4 972 604.8 890.4 530.4 c 0
 818.4 466.8 736.8 435.6 631.2 435.6 c 2
 208.8 435.6 l 1
208.8 586.8 m 1
 565.2 586.8 l 2
 730.8 586.8 828 674.4 828 823.2 c 0
 828 969.6 730.8 1058.4 565.2 1058.4 c 2
 208.8 1058.4 l 1
 208.8 586.8 l 1
EndSplineSet
EndChar
StartChar: Q
Encoding: 81 81 52
Width: 1287
VWidth: 1000
Flags: HW
Fore
1207.2 -127.2 m 1
 1120.8 -235.2 l 1
 927.6 -74.4004 l 1
 817.2 -138 708 -168 574.8 -168 c 0
 187.2 -168 -73.2002 115.2 -73.2002 535.2 c 0
 -73.2002 955.2 187.2 1240.8 574.8 1240.8 c 0
 961.2 1240.8 1224 955.2 1224 538.8 c 0
 1224 327.6 1161.6 154.8 1033.2 15.5996 c 1
 1207.2 -127.2 l 1
742.8 252 m 1
 906 117.6 l 1
 1006.8 230.4 1051.2 364.8 1051.2 537.6 c 0
 1051.2 867.6 861.6 1089.6 574.8 1089.6 c 0
 289.2 1089.6 97.2002 867.6 97.2002 535.2 c 0
 97.2002 204 286.8 -16.7998 573.6 -16.7998 c 0
 654 -16.7998 714 -2.40039 793.2 34.7998 c 1
 658.8 148.8 l 1
 742.8 252 l 1
EndSplineSet
EndChar
StartChar: R
Encoding: 82 82 53
Width: 1185
VWidth: 1000
Flags: HW
Fore
201.6 444 m 1
 201.6 -134.4 l 1
 28.7998 -134.4 l 1
 28.7998 1209.6 l 1
 648 1209.6 l 2
 912 1209.6 1057.2 1082.4 1057.2 849.6 c 0
 1057.2 696 997.2 602.4 846 528 c 1
 991.2 466.8 1026 399.6 1027.2 178.8 c 0
 1032 0 1044 -48 1110 -92.4004 c 1
 1110 -134.4 l 1
 900 -134.4 l 1
 877.2 -79.2002 862.8 2.40039 862.8 84 c 1
 864 204 l 1
 864 370.8 795.6 444 642 444 c 2
 201.6 444 l 1
201.6 596.4 m 1
 615.6 596.4 l 2
 796.8 596.4 879.6 668.4 879.6 825.6 c 0
 879.6 907.2 855.6 968.4 808.8 1006.8 c 0
 766.8 1042.8 711.6 1058.4 615.6 1058.4 c 2
 201.6 1058.4 l 1
 201.6 596.4 l 1
EndSplineSet
EndChar
StartChar: S
Encoding: 83 83 54
Width: 1105
VWidth: 1000
Flags: HW
Fore
976.8 817.2 m 1
 812.4 817.2 l 1
 811.2 991.2 691.2 1089.6 477.6 1089.6 c 0
 296.4 1089.6 176.4 998.4 176.4 864 c 0
 176.4 759.6 235.2 708 398.4 663.6 c 2
 734.4 572.4 l 2
 918 523.2 1021.2 402 1021.2 236.4 c 0
 1021.2 121.2 964.8 0 873.6 -70.7998 c 0
 787.2 -138 656.4 -174 496.8 -174 c 0
 292.8 -174 136.8 -108 44.4004 18 c 0
 -9.59961 91.2002 -33.5996 171.6 -34.7998 295.2 c 1
 127.2 295.2 l 1
 126 212.4 148.8 147.6 198 90 c 0
 261.6 12 361.2 -22.7998 506.4 -22.7998 c 0
 616.8 -22.7998 700.8 -3.59961 753.6 32.4004 c 0
 811.2 73.2002 849.6 147.6 849.6 219.6 c 0
 849.6 325.2 772.8 392.4 602.4 438 c 2
 270 525.6 l 2
 92.4004 571.2 6 674.4 6 837.6 c 0
 6 1082.4 188.4 1233.6 482.4 1233.6 c 0
 793.2 1233.6 973.2 1081.2 976.8 817.2 c 1
EndSplineSet
EndChar
StartChar: T
Encoding: 84 84 55
Width: 1011
VWidth: 1000
Flags: HW
Fore
540 1058.4 m 1
 540 -134.4 l 1
 368.4 -134.4 l 1
 368.4 1058.4 l 1
 -74.4004 1058.4 l 1
 -74.4004 1209.6 l 1
 979.2 1209.6 l 1
 979.2 1058.4 l 1
 540 1058.4 l 1
EndSplineSet
EndChar
StartChar: U
Encoding: 85 85 56
Width: 1194
VWidth: 1000
Flags: HW
Fore
882 1214.4 m 1
 1054.8 1214.4 l 1
 1054.8 268.8 l 2
 1054.8 0 852 -172.8 536.4 -172.8 c 0
 218.4 -172.8 21.5996 -2.40039 21.5996 268.8 c 2
 21.5996 1214.4 l 1
 194.4 1214.4 l 1
 194.4 268.8 l 2
 194.4 66 339.6 -20.4004 536.4 -20.4004 c 0
 752.4 -20.4004 882 88.7998 882 268.8 c 2
 882 1214.4 l 1
EndSplineSet
EndChar
StartChar: V
Encoding: 86 86 57
Width: 1104
VWidth: 1000
Flags: HW
Fore
598.8 -134.4 m 1
 414 -134.4 l 1
 -69.5996 1209.6 l 1
 115.2 1209.6 l 1
 510 70.7998 l 1
 882 1209.6 l 1
 1065.6 1209.6 l 1
 598.8 -134.4 l 1
EndSplineSet
EndChar
StartChar: W
Encoding: 87 87 58
Width: 1562
VWidth: 1000
Flags: HW
Fore
1195.2 -134.4 m 1
 1008 -134.4 l 1
 699.6 969.6 l 1
 397.2 -134.4 l 1
 210 -134.4 l 1
 -134.4 1209.6 l 1
 57.5996 1209.6 l 1
 309.6 118.8 l 1
 607.2 1209.6 l 1
 792 1209.6 l 1
 1098 118.8 l 1
 1345.2 1209.6 l 1
 1537.2 1209.6 l 1
 1195.2 -134.4 l 1
EndSplineSet
EndChar
StartChar: X
Encoding: 88 88 59
Width: 1104
VWidth: 1000
Flags: HW
Fore
597.6 555.6 m 1
 1071.6 -134.4 l 1
 860.4 -134.4 l 1
 494.4 427.2 l 1
 124.8 -134.4 l 1
 -82.7998 -134.4 l 1
 392.4 555.6 l 1
 -52.7998 1209.6 l 1
 153.6 1209.6 l 1
 499.2 681.6 l 1
 844.8 1209.6 l 1
 1051.2 1209.6 l 1
 597.6 555.6 l 1
EndSplineSet
EndChar
StartChar: Y
Encoding: 89 89 60
Width: 1104
VWidth: 1000
Flags: HW
Fore
590.4 393.6 m 1
 590.4 -134.4 l 1
 417.6 -134.4 l 1
 417.6 393.6 l 1
 -100.8 1209.6 l 1
 111.6 1209.6 l 1
 506.4 555.6 l 1
 890.4 1209.6 l 1
 1094.4 1209.6 l 1
 590.4 393.6 l 1
EndSplineSet
EndChar
StartChar: Z
Encoding: 90 90 61
Width: 1011
VWidth: 1000
Flags: HW
Fore
958.8 1209.6 m 1
 958.8 1054.8 l 1
 154.8 16.7998 l 1
 961.2 16.7998 l 1
 961.2 -134.4 l 1
 -61.2002 -134.4 l 1
 -61.2002 16.7998 l 1
 745.2 1058.4 l 1
 -9.59961 1058.4 l 1
 -9.59961 1209.6 l 1
 958.8 1209.6 l 1
EndSplineSet
EndChar
StartChar: bracketleft
Encoding: 91 91 62
Width: 453
VWidth: 1000
Flags: HW
Fore
403.2 1248 m 1
 403.2 1116 l 1
 213.6 1116 l 1
 213.6 -352.8 l 1
 403.2 -352.8 l 1
 403.2 -484.8 l 1
 60 -484.8 l 1
 60 1248 l 1
 403.2 1248 l 1
EndSplineSet
EndChar
StartChar: backslash
Encoding: 92 92 63
Width: 459
VWidth: 1000
Flags: HW
Fore
36 1213.2 m 1
 472.8 -168 l 1
 370.8 -168 l 1
 -66 1213.2 l 1
 36 1213.2 l 1
EndSplineSet
EndChar
StartChar: bracketright
Encoding: 93 93 64
Width: 468
VWidth: 1000
Flags: HW
Fore
-1.2002 -484.8 m 1
 -1.2002 -352.8 l 1
 189.6 -352.8 l 1
 189.6 1116 l 1
 -1.2002 1116 l 1
 -1.2002 1248 l 1
 343.2 1248 l 1
 343.2 -484.8 l 1
 -1.2002 -484.8 l 1
EndSplineSet
EndChar
StartChar: asciicircum
Encoding: 94 94 65
Width: 777
VWidth: 1000
Flags: HW
Fore
276 1114.8 m 1
 411.6 1114.8 l 1
 696 415.2 l 1
 568.8 415.2 l 1
 344.4 968.4 l 1
 122.4 415.2 l 1
 -4.7998 415.2 l 1
 276 1114.8 l 1
EndSplineSet
EndChar
StartChar: underscore
Encoding: 95 95 66
Width: 920
VWidth: 1000
Flags: HW
Fore
962.4 -176.4 m 1
 962.4 -268.8 l 1
 -142.8 -268.8 l 1
 -142.8 -176.4 l 1
 962.4 -176.4 l 1
EndSplineSet
EndChar
StartChar: grave
Encoding: 96 96 67
Width: 480
Flags: HW
Fore
322.8 932.4 m 1
 129.6 932.4 l 1
 129.6 1154.4 l 2
 129.6 1312.8 194.4 1396.8 322.8 1396.8 c 1
 322.8 1326 l 1
 237.6 1321.2 212.4 1285.2 212.4 1158 c 2
 212.4 1124.4 l 1
 322.8 1124.4 l 1
 322.8 932.4 l 1
EndSplineSet
EndChar
StartChar: a
Encoding: 97 97 68
Width: 915
VWidth: 1000
Flags: HW
Fore
880.8 -4.7998 m 1
 880.8 -120 l 1
 829.2 -134.4 805.2 -136.8 774 -136.8 c 0
 674.4 -136.8 626.4 -93.5996 616.8 4.7998 c 1
 506.4 -94.7998 409.2 -136.8 288 -136.8 c 0
 93.5996 -136.8 -28.7998 -26.4004 -28.7998 147.6 c 0
 -28.7998 273.6 28.7998 361.2 139.2 405.6 c 0
 199.2 429.6 232.8 436.8 450 465.6 c 0
 571.2 480 610.8 507.6 610.8 572.4 c 2
 610.8 613.2 l 2
 610.8 704.4 534 757.2 394.8 757.2 c 0
 250.8 757.2 180 703.2 168 585.6 c 1
 13.2002 585.6 l 1
 16.7998 680.4 36 735.6 79.2002 784.8 c 0
 144 856.8 261.6 897.6 400.8 897.6 c 0
 637.2 897.6 763.2 806.4 763.2 636 c 2
 763.2 67.2002 l 2
 763.2 19.2002 792 -8.40039 846 -8.40039 c 0
 854.4 -8.40039 862.8 -8.40039 880.8 -4.7998 c 1
610.8 208.8 m 2
 610.8 381.6 l 1
 558 357.6 525.6 351.6 362.4 328.8 c 0
 199.2 303.6 130.8 253.2 130.8 151.2 c 0
 130.8 55.2002 201.6 -3.59961 321.6 -3.59961 c 0
 410.4 -3.59961 486 26.4004 549.6 84 c 0
 595.2 127.2 610.8 158.4 610.8 208.8 c 2
EndSplineSet
EndChar
StartChar: b
Encoding: 98 98 69
Width: 915
VWidth: 1000
Flags: HW
Fore
-6 1214.4 m 1
 146.4 1214.4 l 1
 146.4 705.6 l 1
 217.2 813.6 312 862.8 444 862.8 c 0
 698.4 862.8 858 669.6 858 357.6 c 0
 858 34.7998 691.2 -172.8 436.8 -172.8 c 0
 302.4 -172.8 205.2 -120 130.8 -7.2002 c 1
 130.8 -129.6 l 1
 -6 -129.6 l 1
 -6 1214.4 l 1
415.2 718.8 m 0
 252 718.8 146.4 571.2 146.4 345.6 c 0
 146.4 118.8 252 -28.7998 415.2 -28.7998 c 0
 583.2 -28.7998 697.2 120 697.2 339.6 c 0
 697.2 570 586.8 718.8 415.2 718.8 c 0
EndSplineSet
EndChar
StartChar: c
Encoding: 99 99 70
Width: 826
VWidth: 1000
Flags: HW
Fore
775.2 547.2 m 1
 620.4 547.2 l 1
 601.2 680.4 519.6 757.2 391.2 757.2 c 0
 223.2 757.2 123.6 613.2 123.6 372 c 0
 123.6 141.6 224.4 4.7998 396 4.7998 c 0
 525.6 4.7998 604.8 81.5996 631.2 236.4 c 1
 784.8 236.4 l 1
 768 1.2002 621.6 -136.8 391.2 -136.8 c 0
 129.6 -136.8 -36 60 -36 372 c 0
 -36 691.2 133.2 897.6 393.6 897.6 c 0
 528 897.6 643.2 843.6 710.4 753.6 c 0
 746.4 700.8 768 639.6 775.2 547.2 c 1
EndSplineSet
EndChar
StartChar: d
Encoding: 100 100 71
Width: 926
VWidth: 1000
Flags: HW
Fore
816 1214.4 m 1
 816 -129.6 l 1
 679.2 -129.6 l 1
 679.2 -2.40039 l 1
 597.6 -122.4 505.2 -172.8 372 -172.8 c 0
 112.8 -172.8 -48 28.7998 -48 354 c 0
 -48 663.6 117.6 862.8 366 862.8 c 0
 494.4 862.8 598.8 811.2 662.4 714 c 1
 662.4 1214.4 l 1
 816 1214.4 l 1
393.6 718.8 m 0
 225.6 718.8 112.8 570 112.8 345.6 c 0
 112.8 120 225.6 -28.7998 394.8 -28.7998 c 0
 556.8 -28.7998 662.4 118.8 662.4 340.8 c 0
 662.4 571.2 558 718.8 393.6 718.8 c 0
EndSplineSet
EndChar
StartChar: e
Encoding: 101 101 72
Width: 920
VWidth: 1000
Flags: HW
Fore
844.8 336 m 1
 132 336 l 1
 133.2 241.2 146.4 184.8 182.4 129.6 c 0
 235.2 49.2002 318 4.7998 415.2 4.7998 c 0
 540 4.7998 625.2 69.5996 669.6 199.2 c 1
 823.2 199.2 l 1
 784.8 -12 631.2 -136.8 409.2 -136.8 c 0
 139.2 -136.8 -28.7998 57.5996 -28.7998 374.4 c 0
 -28.7998 691.2 144 897.6 414 897.6 c 0
 594 897.6 742.8 801.6 805.2 644.4 c 0
 832.8 572.4 844.8 483.6 844.8 336 c 1
134.4 460.8 m 1
 678 460.8 l 1
 679.2 465.6 679.2 469.2 679.2 472.8 c 0
 679.2 631.2 562.8 757.2 412.8 757.2 c 0
 256.8 757.2 148.8 639.6 134.4 460.8 c 1
EndSplineSet
EndChar
StartChar: f
Encoding: 102 102 73
Width: 459
VWidth: 1000
Flags: HW
Fore
424.8 831.6 m 1
 424.8 705.6 l 1
 264 705.6 l 1
 264 -134.4 l 1
 111.6 -134.4 l 1
 111.6 705.6 l 1
 -18 705.6 l 1
 -18 831.6 l 1
 111.6 831.6 l 1
 111.6 994.8 l 2
 111.6 1132.8 195.6 1213.2 337.2 1213.2 c 0
 369.6 1213.2 388.8 1212 424.8 1204.8 c 1
 424.8 1078.8 l 1
 388.8 1080 384 1080 370.8 1080 c 0
 301.2 1080 264 1047.6 264 982.8 c 2
 264 831.6 l 1
 424.8 831.6 l 1
EndSplineSet
EndChar
StartChar: g
Encoding: 103 103 74
Width: 927
VWidth: 1000
Flags: HW
Fore
663.6 907.2 m 1
 806.4 907.2 l 1
 806.4 99.5996 l 2
 806.4 -128.4 778.8 -249.6 704.4 -336 c 0
 640.8 -415.2 518.4 -460.8 374.4 -460.8 c 0
 147.6 -460.8 7.2002 -352.8 -12 -170.4 c 1
 146.4 -170.4 l 1
 154.8 -226.8 170.4 -252 204 -280.8 c 0
 248.4 -314.4 310.8 -332.4 380.4 -332.4 c 0
 475.2 -332.4 554.4 -298.8 595.2 -242.4 c 0
 632.4 -188.4 648 -108 648 21.5996 c 2
 648 72 l 1
 562.8 -50.4004 477.6 -100.8 356.4 -100.8 c 0
 254.4 -100.8 151.2 -52.7998 80.4004 27.5996 c 0
 0 120 -43.2002 248.4 -43.2002 408 c 0
 -43.2002 721.2 123.6 933.6 369.6 933.6 c 0
 492 933.6 586.8 879.6 663.6 768 c 1
 663.6 907.2 l 1
386.4 793.2 m 0
 220.8 793.2 118.8 649.2 118.8 416.4 c 0
 118.8 182.4 219.6 40.7998 387.6 40.7998 c 0
 549.6 40.7998 648 181.2 648 410.4 c 0
 648 652.8 550.8 793.2 386.4 793.2 c 0
EndSplineSet
EndChar
StartChar: h
Encoding: 104 104 75
Width: 920
VWidth: 1000
Flags: HW
Fore
26.4004 1209.6 m 1
 180 1209.6 l 1
 180 699.6 l 1
 270 816 354 859.2 488.4 859.2 c 0
 678 859.2 793.2 758.4 793.2 596.4 c 2
 793.2 -134.4 l 1
 639.6 -134.4 l 1
 639.6 535.2 l 2
 639.6 602.4 621.6 648 578.4 680.4 c 0
 541.2 708 489.6 723.6 440.4 723.6 c 0
 283.2 723.6 180 596.4 180 398.4 c 2
 180 -134.4 l 1
 26.4004 -134.4 l 1
 26.4004 1209.6 l 1
EndSplineSet
EndChar
StartChar: i
Encoding: 105 105 76
Width: 367
VWidth: 1000
Flags: HW
Fore
236.4 831.6 m 1
 236.4 -134.4 l 1
 82.7998 -134.4 l 1
 82.7998 831.6 l 1
 236.4 831.6 l 1
236.4 1209.6 m 1
 236.4 1016.4 l 1
 81.5996 1016.4 l 1
 81.5996 1209.6 l 1
 236.4 1209.6 l 1
EndSplineSet
EndChar
StartChar: j
Encoding: 106 106 77
Width: 382
VWidth: 1000
Flags: HW
Fore
104.4 871.2 m 1
 256.8 871.2 l 1
 256.8 -295.2 l 2
 256.8 -426 166.8 -496.8 -7.2002 -496.8 c 0
 -31.2002 -496.8 -39.5996 -493.2 -57.5996 -489.6 c 1
 -57.5996 -360 l 1
 -26.4004 -361.2 -26.4004 -361.2 -21.5996 -361.2 c 0
 72 -361.2 104.4 -330 104.4 -235.2 c 2
 104.4 871.2 l 1
256.8 1250.4 m 1
 256.8 1056 l 1
 104.4 1056 l 1
 104.4 1250.4 l 1
 256.8 1250.4 l 1
EndSplineSet
EndChar
StartChar: k
Encoding: 107 107 78
Width: 817
VWidth: 1000
Flags: HW
Fore
156 1209.6 m 1
 156 422.4 l 1
 566.4 831.6 l 1
 763.2 831.6 l 1
 427.2 496.8 l 1
 822 -134.4 l 1
 631.2 -134.4 l 1
 306 388.8 l 1
 156 242.4 l 1
 156 -134.4 l 1
 3.59961 -134.4 l 1
 3.59961 1209.6 l 1
 156 1209.6 l 1
EndSplineSet
EndChar
StartChar: l
Encoding: 108 108 79
Width: 367
VWidth: 1000
Flags: HW
Fore
240 1209.6 m 1
 240 -134.4 l 1
 84 -134.4 l 1
 84 1209.6 l 1
 240 1209.6 l 1
EndSplineSet
EndChar
StartChar: m
Encoding: 109 109 80
Width: 1380
VWidth: 1000
Flags: HW
Fore
-24 866.4 m 1
 117.6 866.4 l 1
 117.6 729.6 l 1
 200.4 847.2 284.4 894 415.2 894 c 0
 540 894 618 849.6 674.4 746.4 c 1
 764.4 856.8 842.4 894 969.6 894 c 0
 1152 894 1251.6 798 1251.6 625.2 c 2
 1251.6 -99.5996 l 1
 1095.6 -99.5996 l 1
 1095.6 565.2 l 2
 1095.6 686.4 1029.6 758.4 918 758.4 c 0
 793.2 758.4 691.2 645.6 691.2 506.4 c 2
 691.2 -99.5996 l 1
 536.4 -99.5996 l 1
 536.4 565.2 l 2
 536.4 690 470.4 758.4 356.4 758.4 c 0
 231.6 758.4 129.6 645.6 129.6 506.4 c 2
 129.6 -99.5996 l 1
 -24 -99.5996 l 1
 -24 866.4 l 1
EndSplineSet
EndChar
StartChar: n
Encoding: 110 110 81
Width: 920
VWidth: 1000
Flags: HW
Fore
26.4004 866.4 m 1
 169.2 866.4 l 1
 169.2 704.4 l 1
 253.2 837.6 345.6 894 488.4 894 c 0
 674.4 894 794.4 789.6 794.4 631.2 c 2
 794.4 -99.5996 l 1
 640.8 -99.5996 l 1
 640.8 570 l 2
 640.8 685.2 565.2 758.4 444 758.4 c 0
 284.4 758.4 181.2 631.2 181.2 433.2 c 2
 181.2 -99.5996 l 1
 26.4004 -99.5996 l 1
 26.4004 866.4 l 1
EndSplineSet
EndChar
StartChar: o
Encoding: 111 111 82
Width: 921
VWidth: 1000
Flags: HW
Fore
400.8 897.6 m 0
 679.2 897.6 838.8 708 838.8 373.2 c 0
 838.8 56.4004 673.2 -136.8 402 -136.8 c 0
 127.2 -136.8 -34.7998 56.4004 -34.7998 380.4 c 0
 -34.7998 704.4 130.8 897.6 400.8 897.6 c 0
402 757.2 m 0
 230.4 757.2 126 613.2 126 380.4 c 0
 126 146.4 230.4 4.7998 402 4.7998 c 0
 573.6 4.7998 679.2 147.6 679.2 374.4 c 0
 679.2 614.4 576 757.2 402 757.2 c 0
EndSplineSet
EndChar
StartChar: p
Encoding: 112 112 83
Width: 915
VWidth: 1000
Flags: HW
Fore
-6 -460.8 m 1
 -6 907.2 l 1
 134.4 907.2 l 1
 134.4 760.8 l 1
 206.4 876 312 933.6 442.8 933.6 c 0
 698.4 933.6 858 732 858 408 c 0
 858 99.5996 693.6 -100.8 444 -100.8 c 0
 319.2 -100.8 229.2 -57.5996 148.8 43.2002 c 1
 148.8 -460.8 l 1
 -6 -460.8 l 1
417.6 789.6 m 0
 254.4 789.6 148.8 643.2 148.8 416.4 c 0
 148.8 189.6 254.4 43.2002 417.6 43.2002 c 0
 585.6 43.2002 697.2 192 697.2 410.4 c 0
 697.2 640.8 586.8 789.6 417.6 789.6 c 0
EndSplineSet
EndChar
StartChar: q
Encoding: 113 113 84
Width: 926
VWidth: 1000
Flags: HW
Fore
816 -460.8 m 1
 662.4 -460.8 l 1
 662.4 51.5996 l 1
 590.4 -52.7998 499.2 -100.8 364.8 -100.8 c 0
 109.2 -100.8 -48 92.4004 -48 405.6 c 0
 -48 724.8 118.8 933.6 372 933.6 c 0
 499.2 933.6 607.2 878.4 679.2 777.6 c 1
 679.2 907.2 l 1
 816 907.2 l 1
 816 -460.8 l 1
394.8 789.6 m 0
 225.6 789.6 112.8 639.6 112.8 416.4 c 0
 112.8 192 225.6 43.2002 394.8 43.2002 c 0
 556.8 43.2002 662.4 189.6 662.4 410.4 c 0
 662.4 643.2 558 789.6 394.8 789.6 c 0
EndSplineSet
EndChar
StartChar: r
Encoding: 114 114 85
Width: 540
VWidth: 1000
Flags: HW
Fore
55.2002 866.4 m 1
 196.8 866.4 l 1
 196.8 691.2 l 1
 285.6 835.2 361.2 894 460.8 894 c 0
 480 894 493.2 892.8 519.6 889.2 c 1
 519.6 732 l 1
 412.8 729.6 366 717.6 318 684 c 0
 244.8 631.2 210 541.2 210 402 c 2
 210 -99.5996 l 1
 55.2002 -99.5996 l 1
 55.2002 866.4 l 1
EndSplineSet
EndChar
StartChar: s
Encoding: 115 115 86
Width: 829
VWidth: 1000
Flags: HW
Fore
716.4 601.2 m 1
 554.4 601.2 l 1
 550.8 703.2 483.6 757.2 360 757.2 c 0
 235.2 757.2 154.8 699.6 154.8 609.6 c 0
 154.8 542.4 208.8 501.6 334.8 472.8 c 2
 482.4 436.8 l 2
 674.4 392.4 754.8 313.2 754.8 169.2 c 0
 754.8 -16.7998 600 -136.8 357.6 -136.8 c 0
 104.4 -136.8 -20.4004 -31.2002 -27.5996 192 c 1
 134.4 192 l 1
 142.8 123.6 153.6 97.2002 177.6 68.4004 c 0
 216 27.5996 286.8 4.7998 369.6 4.7998 c 0
 504 4.7998 595.2 64.7998 595.2 156 c 0
 595.2 225.6 552 264 446.4 290.4 c 2
 302.4 325.2 l 2
 72 380.4 -3.59961 452.4 -3.59961 603.6 c 0
 -3.59961 782.4 141.6 897.6 367.2 897.6 c 0
 590.4 897.6 715.2 792 716.4 601.2 c 1
EndSplineSet
EndChar
StartChar: t
Encoding: 116 116 87
Width: 462
VWidth: 1000
Flags: HW
Fore
418.8 847.2 m 1
 418.8 721.2 l 1
 259.2 721.2 l 1
 259.2 60 l 2
 259.2 -8.40039 279.6 -27.5996 345.6 -27.5996 c 0
 375.6 -27.5996 399.6 -26.4004 418.8 -18 c 1
 418.8 -148.8 l 1
 367.2 -158.4 330 -160.8 294 -160.8 c 0
 174 -160.8 106.8 -106.8 106.8 -8.40039 c 2
 106.8 721.2 l 1
 -24 721.2 l 1
 -24 847.2 l 1
 106.8 847.2 l 1
 106.8 1112.4 l 1
 259.2 1112.4 l 1
 259.2 847.2 l 1
 418.8 847.2 l 1
EndSplineSet
EndChar
StartChar: u
Encoding: 117 117 88
Width: 921
VWidth: 1000
Flags: HW
Fore
787.2 -92.4004 m 1
 649.2 -92.4004 l 1
 649.2 43.2002 l 1
 559.2 -85.2002 469.2 -134.4 326.4 -134.4 c 0
 139.2 -134.4 19.2002 -31.2002 19.2002 129.6 c 2
 19.2002 873.6 l 1
 172.8 873.6 l 1
 172.8 189.6 l 2
 172.8 72 248.4 -1.2002 369.6 -1.2002 c 0
 530.4 -1.2002 633.6 129.6 633.6 326.4 c 2
 633.6 873.6 l 1
 787.2 873.6 l 1
 787.2 -92.4004 l 1
EndSplineSet
EndChar
StartChar: v
Encoding: 118 118 89
Width: 829
VWidth: 1000
Flags: HW
Fore
433.2 -96 m 1
 265.2 -96 l 1
 -73.2002 868.8 l 1
 100.8 868.8 l 1
 358.8 86.4004 l 1
 631.2 868.8 l 1
 804 868.8 l 1
 433.2 -96 l 1
EndSplineSet
EndChar
StartChar: w
Encoding: 119 119 90
Width: 1196
VWidth: 1000
Flags: HW
Fore
890.4 -96 m 1
 714 -96 l 1
 519.6 661.2 l 1
 333.6 -96 l 1
 159.6 -96 l 1
 -121.2 868.8 l 1
 50.4004 868.8 l 1
 246 117.6 l 1
 430.8 868.8 l 1
 618 868.8 l 1
 807.6 117.6 l 1
 999.6 868.8 l 1
 1173.6 868.8 l 1
 890.4 -96 l 1
EndSplineSet
EndChar
StartChar: x
Encoding: 120 120 91
Width: 830
VWidth: 1000
Flags: HW
Fore
448.8 403.2 m 1
 781.2 -96 l 1
 602.4 -96 l 1
 361.2 273.6 l 1
 115.2 -96 l 1
 -58.7998 -96 l 1
 282 396 l 1
 -40.7998 868.8 l 1
 134.4 868.8 l 1
 367.2 518.4 l 1
 600 868.8 l 1
 772.8 868.8 l 1
 448.8 403.2 l 1
EndSplineSet
EndChar
StartChar: y
Encoding: 121 121 92
Width: 829
VWidth: 1000
Flags: HW
Fore
624 909.6 m 1
 788.4 909.6 l 1
 360 -259.2 l 1
 330 -337.2 302.4 -376.8 254.4 -411.6 c 0
 213.6 -441.6 162 -458.4 110.4 -458.4 c 0
 69.5996 -458.4 38.4004 -451.2 8.40039 -434.4 c 1
 8.40039 -296.4 l 1
 40.7998 -302.4 67.2002 -307.2 90 -307.2 c 0
 152.4 -307.2 188.4 -280.8 212.4 -212.4 c 1
 271.2 -60 l 1
 -54 909.6 l 1
 109.2 909.6 l 1
 356.4 158.4 l 1
 624 909.6 l 1
EndSplineSet
EndChar
StartChar: z
Encoding: 122 122 93
Width: 830
VWidth: 1000
Flags: HW
Fore
726 868.8 m 1
 726 733.2 l 1
 153.6 38.4004 l 1
 753.6 38.4004 l 1
 753.6 -96 l 1
 -33.5996 -96 l 1
 -33.5996 40.7998 l 1
 544.8 734.4 l 1
 6 734.4 l 1
 6 868.8 l 1
 726 868.8 l 1
EndSplineSet
EndChar
StartChar: braceleft
Encoding: 123 123 94
Width: 555
VWidth: 1000
Flags: HW
Fore
450 1248 m 1
 450 1128 l 1
 422.4 1128 l 2
 331.2 1128 307.2 1100.4 307.2 1005.6 c 2
 307.2 670.8 l 2
 307.2 501.6 266.4 427.2 156 381.6 c 1
 258 333.6 307.2 243.6 307.2 91.2002 c 2
 307.2 -242.4 l 2
 307.2 -338.4 331.2 -367.2 422.4 -367.2 c 2
 450 -367.2 l 1
 450 -484.8 l 1
 366 -484.8 l 2
 237.6 -484.8 164.4 -398.4 164.4 -244.8 c 2
 164.4 63.5996 l 2
 164.4 232.8 128.4 295.2 20.4004 316.8 c 1
 20.4004 444 l 1
 128.4 466.8 164.4 526.8 164.4 699.6 c 2
 164.4 1006.8 l 2
 164.4 1160.4 237.6 1248 366 1248 c 2
 450 1248 l 1
EndSplineSet
EndChar
StartChar: bar
Encoding: 124 124 95
Width: 429
VWidth: 1000
Flags: HW
Fore
136.8 1248 m 1
 247.2 1248 l 1
 247.2 -484.8 l 1
 136.8 -484.8 l 1
 136.8 1248 l 1
EndSplineSet
EndChar
StartChar: braceright
Encoding: 125 125 96
Width: 560
VWidth: 1000
Flags: HW
Fore
-1.2002 -484.8 m 1
 -1.2002 -367.2 l 1
 28.7998 -367.2 l 2
 122.4 -367.2 147.6 -338.4 147.6 -242.4 c 2
 147.6 91.2002 l 2
 147.6 243.6 195.6 333.6 298.8 380.4 c 1
 195.6 428.4 147.6 519.6 147.6 670.8 c 2
 147.6 1005.6 l 2
 147.6 1100.4 122.4 1128 28.7998 1128 c 2
 -1.2002 1128 l 1
 -1.2002 1248 l 1
 87.5996 1248 l 2
 214.8 1248 290.4 1160.4 290.4 1006.8 c 2
 290.4 699.6 l 2
 290.4 528 324 466.8 429.6 444 c 1
 429.6 316.8 l 1
 324 295.2 290.4 232.8 290.4 63.5996 c 2
 290.4 -244.8 l 2
 290.4 -398.4 214.8 -484.8 87.5996 -484.8 c 2
 -1.2002 -484.8 l 1
EndSplineSet
EndChar
StartChar: asciitilde
Encoding: 126 126 97
Width: 967
VWidth: 1000
Flags: HW
Fore
730.8 627.6 m 1
 828 627.6 l 1
 828 597.6 l 2
 828 456 753.6 363.6 634.8 363.6 c 0
 588 363.6 535.2 381.6 484.8 411.6 c 2
 304.8 528 l 2
 286.8 538.8 244.8 554.4 226.8 554.4 c 0
 192 554.4 160.8 530.4 142.8 489.6 c 0
 135.6 471.6 132 452.4 128.4 410.4 c 1
 31.2002 410.4 l 1
 39.5996 584.4 110.4 676.8 230.4 676.8 c 0
 262.8 676.8 298.8 666 328.8 646.8 c 2
 544.8 520.8 l 2
 583.2 498 610.8 489.6 636 489.6 c 0
 705.6 489.6 732 530.4 730.8 627.6 c 1
EndSplineSet
EndChar
StartChar: uni0964
Encoding: 2404 2404 98
Width: 819
VWidth: 1000
Flags: HW
VStem: 594 111
Fore
594 1343 m 1
 631 1307 670 1270 705 1229 c 1
 711 834 702 408 707 2 c 1
 670 29 633 53 598 82 c 1
 588 174 598 291 594 391 c 1
 594 1343 l 1
EndSplineSet
EndChar
StartChar: uni0965
Encoding: 2405 2405 99
Width: 1024
VWidth: 1000
Flags: HW
VStem: 594 111 819 111
Fore
594 1343 m 1
 631 1307 670 1270 705 1229 c 1
 711 834 702 408 707 2 c 1
 670 29 633 53 598 82 c 1
 588 174 598 291 594 391 c 1
 594 1343 l 1
819 1343 m 1
 856 1307 895 1270 930 1229 c 1
 936 834 928 408 932 2 c 1
 895 29 858 53 823 82 c 1
 813 174 823 291 819 391 c 1
 819 1343 l 1
EndSplineSet
EndChar
StartChar: bn_chandrabindu
Encoding: 2433 2433 100
Width: 0
VWidth: 1000
Flags: HW
HStem: 1237 143
VStem: -438 201
Fore
-424 1696 m 0
 -406 1726 -365 1749 -315 1741 c 1
 -248 1724 -213 1645 -252 1585 c 0
 -268 1556 -309 1532 -360 1540 c 1
 -428 1556 -463 1636 -424 1696 c 0
-682 1710 m 0
 -670 1716 -657 1698 -653 1690 c 0
 -641 1661 -645 1626 -637 1595 c 0
 -604 1470 -477 1386 -352 1380 c 0
 -213 1372 -55 1470 -33 1624 c 0
 -29 1651 -31 1704 -2 1710 c 0
 14 1714 23 1690 27 1677 c 0
 35 1640 31 1599 25 1563 c 0
 2 1444 -63 1337 -172 1278 c 0
 -270 1225 -395 1225 -496 1274 c 0
 -612 1335 -707 1466 -707 1632 c 0
 -707 1657 -707 1696 -682 1710 c 0
EndSplineSet
EndChar
StartChar: bn_anusvar
Encoding: 2434 2434 101
Width: 614
VWidth: 1000
Flags: HW
Fore
174 1192 m 0
 264 1253 373 1235 449 1186 c 0
 473 1169 494 1147 512 1122 c 0
 588 1010 553 850 438 776 c 0
 346 719 240 735 166 784 c 0
 141 801 121 823 102 848 c 0
 27 961 61 1118 174 1192 c 0
342 1137 m 1
 258 1124 182 1051 162 977 c 0
 156 954 154 930 160 905 c 0
 174 858 221 829 268 834 c 0
 350 840 430 913 453 991 c 0
 475 1073 430 1137 342 1137 c 1
43 674 m 1
 102 647 160 606 211 567 c 0
 401 420 516 248 598 10 c 0
 602 -4 612 -27 608 -41 c 0
 604 -51 596 -57 588 -61 c 1
 489 100 358 236 205 340 c 0
 201 342 156 373 147 381 c 0
 143 387 49 653 43 674 c 1
EndSplineSet
EndChar
StartChar: bn_bisarga
Encoding: 2435 2435 102
Width: 614
VWidth: 1000
Flags: HW
Fore
174 1192 m 0
 264 1253 373 1235 449 1186 c 0
 473 1169 494 1147 512 1122 c 0
 588 1010 553 850 438 776 c 0
 346 719 240 735 166 784 c 0
 141 801 121 823 102 848 c 0
 27 961 61 1118 174 1192 c 0
342 1137 m 1
 258 1124 182 1051 162 977 c 0
 156 954 154 930 160 905 c 0
 174 858 221 829 268 834 c 0
 350 840 430 913 453 991 c 0
 475 1073 430 1137 342 1137 c 1
174 455 m 0
 264 516 373 498 449 449 c 0
 473 432 494 410 512 385 c 0
 588 272 553 113 438 39 c 0
 346 -18 240 -2 166 47 c 0
 141 63 121 86 102 111 c 0
 27 223 61 381 174 455 c 0
342 399 m 1
 258 387 182 313 162 240 c 0
 156 217 154 193 160 168 c 0
 174 121 221 92 268 96 c 0
 350 102 430 176 453 254 c 0
 475 336 430 399 342 399 c 1
EndSplineSet
EndChar
StartChar: bn_a
Encoding: 2437 2437 103
Width: 1433
VWidth: 1000
Flags: HW
HStem: 1133 98<655 1208 655 655 1321 1405 1321 1321>
VStem: 459 340 1006 74 1208 113<418 1133> 1264 57<61 86>
Fore
0 1231 m 1
 1405 1231 l 1
 1432 1227 l 1
 1452 1200 1464 1165 1479 1133 c 1
 1321 1133 l 1
 1321 2 l 1
 1319 4 1274 33 1268 43 c 0
 1264 49 1264 57 1264 66 c 0
 1264 106 1241 168 1229 203 c 0
 1200 274 1163 342 1120 406 c 0
 1102 436 1077 463 1059 494 c 1
 1022 401 975 315 877 283 c 0
 768 248 651 301 563 362 c 0
 399 477 264 637 168 811 c 0
 127 887 86 973 76 1059 c 1
 90 1053 115 1044 125 1032 c 0
 131 1026 145 975 152 961 c 0
 170 918 195 877 219 838 c 0
 297 715 403 602 524 522 c 0
 582 483 649 449 719 444 c 0
 836 438 961 512 995 625 c 0
 1040 772 932 958 770 961 c 1
 797 920 807 872 797 825 c 0
 774 723 662 664 565 702 c 0
 461 743 424 877 492 967 c 0
 520 1004 557 1020 598 1032 c 0
 621 1040 643 1047 666 1047 c 1
 625 1075 588 1108 541 1130 c 1
 385 1141 203 1122 47 1137 c 1
 29 1165 14 1198 0 1231 c 1
1208 1133 m 1
 655 1133 l 1
 666 1114 682 1098 694 1081 c 0
 700 1073 707 1059 715 1055 c 0
 725 1049 739 1051 750 1049 c 0
 928 1028 1049 887 1075 719 c 0
 1079 698 1081 678 1081 657 c 0
 1081 612 1081 616 1100 592 c 0
 1133 551 1184 469 1206 418 c 1
 1208 418 l 1
 1208 1133 l 1
EndSplineSet
EndChar
StartChar: bn_aa
Encoding: 2438 2438 104
Width: 1903
VWidth: 1000
Flags: HW
HStem: 1133 98<138 158 270 438 270 270>
VStem: 158 113<356 1133>
Fore
1435 1229 m 1
 1873 1229 l 1
 1910 1225 l 1
 1931 1198 1943 1163 1957 1131 c 1
 1705 1131 l 1
 1705 0 l 1
 1668 27 1632 51 1597 80 c 1
 1587 162 1597 264 1593 354 c 1
 1593 1131 l 1
 1554 1131 1515 1128 1482 1135 c 1
 1464 1163 1449 1196 1435 1229 c 1
0 1231 m 1
 1405 1231 l 1
 1432 1227 l 1
 1452 1200 1464 1165 1479 1133 c 1
 1321 1133 l 1
 1321 2 l 1
 1319 4 1274 33 1268 43 c 0
 1264 49 1264 57 1264 66 c 0
 1264 106 1241 168 1229 203 c 0
 1200 274 1163 342 1120 406 c 0
 1102 436 1077 463 1059 494 c 1
 1022 401 975 315 877 283 c 0
 768 248 651 301 563 362 c 0
 399 477 264 637 168 811 c 0
 127 887 86 973 76 1059 c 1
 90 1053 115 1044 125 1032 c 0
 131 1026 145 975 152 961 c 0
 170 918 195 877 219 838 c 0
 297 715 403 602 524 522 c 0
 582 483 649 449 719 444 c 0
 836 438 961 512 995 625 c 0
 1040 772 932 958 770 961 c 1
 797 920 807 872 797 825 c 0
 774 723 662 664 565 702 c 0
 461 743 424 877 492 967 c 0
 520 1004 557 1020 598 1032 c 0
 621 1040 643 1047 666 1047 c 1
 625 1075 588 1108 541 1130 c 1
 385 1141 203 1122 47 1137 c 1
 29 1165 14 1198 0 1231 c 1
1208 1133 m 1
 655 1133 l 1
 666 1114 682 1098 694 1081 c 0
 700 1073 707 1059 715 1055 c 0
 725 1049 739 1051 750 1049 c 0
 928 1028 1049 887 1075 719 c 0
 1079 698 1081 678 1081 657 c 0
 1081 612 1081 616 1100 592 c 0
 1133 551 1184 469 1206 418 c 1
 1208 418 l 1
 1208 1133 l 1
EndSplineSet
EndChar
StartChar: bn_i
Encoding: 2439 2439 105
Width: 989
VWidth: 1000
Flags: HW
HStem: 909 117 1133 98<551 860 922 933 551 551> 1364 143
VStem: 20 76 842 74
Fore
860 1231 m 1
 829 1337 649 1358 512 1364 c 1
 393 1364 301 1366 197 1393 c 0
 109 1417 41 1450 25 1542 c 0
 16 1585 20 1632 39 1673 c 0
 43 1686 51 1708 68 1710 c 0
 102 1710 102 1647 98 1616 c 0
 90 1583 96 1583 117 1569 c 0
 166 1538 264 1522 332 1513 c 0
 463 1501 596 1518 725 1481 c 0
 815 1452 883 1411 909 1319 c 0
 918 1290 922 1260 922 1231 c 1
 944 1231 967 1231 987 1229 c 1
 1006 1200 1020 1165 1034 1133 c 1
 551 1133 l 1
 557 1110 565 1087 567 1065 c 0
 569 1057 567 1040 573 1032 c 0
 580 1026 596 1026 604 1026 c 0
 707 1008 793 979 858 911 c 0
 913 852 922 774 909 696 c 0
 889 553 772 410 629 362 c 1
 629 360 l 1
 659 348 766 270 797 248 c 0
 868 190 938 129 999 61 c 0
 1063 -8 1059 0 1098 -70 c 0
 1110 -92 1124 -115 1137 -139 c 1
 1118 -123 1104 -104 1087 -86 c 0
 928 88 680 240 406 297 c 0
 373 305 340 311 307 315 c 0
 293 317 272 315 260 324 c 0
 252 332 227 379 219 393 c 0
 188 453 154 506 125 567 c 1
 190 553 258 532 322 510 c 0
 397 481 410 459 485 475 c 1
 649 494 803 594 836 741 c 0
 844 782 848 827 817 860 c 0
 762 915 653 915 557 905 c 1
 553 864 539 823 518 786 c 0
 502 752 477 721 442 700 c 0
 358 651 246 686 209 778 c 0
 203 795 199 811 199 829 c 0
 199 936 268 983 346 1010 c 0
 389 1026 434 1034 481 1034 c 1
 469 1104 l 1
 453 1128 l 1
 332 1141 180 1124 49 1135 c 1
 31 1163 16 1198 0 1231 c 1
 860 1231 l 1
EndSplineSet
EndChar
StartChar: bn_ii
Encoding: 2440 2440 106
Width: 1228
VWidth: 1000
Flags: HW
HStem: 1135 96 1364 143<469 541>
VStem: 831 82
Fore
1038 1231 m 1
 1034 1262 1012 1286 985 1303 c 0
 874 1376 647 1364 479 1364 c 0
 446 1364 412 1366 379 1368 c 0
 264 1374 117 1382 47 1452 c 0
 -12 1513 2 1622 35 1686 c 0
 41 1694 45 1702 53 1708 c 0
 72 1718 82 1696 86 1681 c 0
 96 1647 92 1610 78 1577 c 1
 94 1569 109 1559 127 1550 c 0
 207 1520 299 1516 385 1511 c 0
 418 1509 453 1507 485 1507 c 0
 596 1507 709 1511 819 1497 c 0
 909 1487 1012 1462 1063 1380 c 0
 1087 1343 1100 1288 1100 1231 c 1
 1143 1231 1190 1233 1227 1227 c 1
 1247 1200 1260 1165 1274 1133 c 1
 344 1133 l 1
 362 1114 377 1096 391 1075 c 0
 397 1065 403 1049 414 1040 c 0
 426 1032 444 1032 459 1028 c 0
 590 985 686 858 688 717 c 1
 754 786 877 938 975 995 c 0
 983 999 995 1008 1006 1008 c 0
 1016 1006 1024 997 1032 991 c 2
 1085 948 l 2
 1092 942 1118 926 1124 913 c 0
 1126 905 1114 897 1108 893 c 0
 1028 831 971 741 938 641 c 1
 895 487 911 287 958 133 c 0
 971 88 991 45 1008 2 c 1
 993 10 948 39 934 53 c 1
 913 82 885 170 874 209 c 0
 844 322 815 494 840 637 c 1
 838 637 l 1
 819 608 731 512 698 473 c 0
 678 451 655 430 633 410 c 0
 578 358 510 305 432 297 c 0
 408 295 383 299 358 305 c 0
 281 326 184 403 184 518 c 0
 184 547 193 555 211 565 c 1
 217 541 242 510 262 498 c 1
 317 457 385 467 442 498 c 0
 459 508 475 516 489 528 c 1
 545 590 551 696 496 774 c 0
 483 793 467 809 451 823 c 1
 432 770 406 733 354 713 c 0
 262 680 158 731 139 829 c 1
 121 899 156 958 197 989 c 0
 227 1014 266 1026 303 1036 c 1
 274 1094 215 1130 152 1133 c 2
 80 1133 l 2
 70 1133 57 1130 49 1135 c 0
 39 1139 37 1153 33 1161 c 0
 20 1184 10 1208 0 1231 c 1
 1038 1231 l 1
EndSplineSet
EndChar
StartChar: bn_u
Encoding: 2441 2441 107
Width: 1228
VWidth: 1000
Flags: HW
HStem: 127 172 532 162 1135 96 1366 143
VStem: 557 115<819 1133>
Fore
1075 1231 m 1
 1069 1264 1042 1288 1016 1305 c 0
 963 1337 893 1350 831 1356 c 0
 643 1374 451 1352 264 1386 c 0
 193 1399 109 1425 82 1499 c 0
 59 1552 70 1626 92 1677 c 0
 98 1690 109 1712 125 1710 c 0
 135 1710 143 1696 145 1688 c 0
 156 1663 156 1634 150 1610 c 0
 150 1602 141 1589 143 1581 c 0
 154 1556 221 1540 250 1534 c 0
 459 1485 676 1528 887 1493 c 0
 969 1479 1057 1450 1102 1374 c 0
 1124 1339 1137 1284 1137 1231 c 1
 1167 1231 1198 1231 1227 1229 c 1
 1245 1200 1260 1165 1274 1133 c 1
 672 1133 l 1
 672 776 l 2
 672 754 672 729 684 711 c 0
 711 670 766 702 797 721 c 0
 864 762 975 848 1004 936 c 1
 1092 899 1159 809 1174 713 c 0
 1180 680 1178 649 1176 616 c 0
 1161 406 1069 223 907 150 c 1
 805 106 674 121 575 172 c 0
 303 313 215 756 125 1083 c 1
 160 1069 176 1067 184 1032 c 1
 203 981 l 1
 262 805 315 625 418 479 c 0
 465 412 526 352 604 322 c 0
 768 258 956 324 1049 471 c 0
 1077 518 1096 573 1102 629 c 0
 1108 680 1096 717 1065 739 c 1
 1036 684 915 606 836 571 c 0
 770 543 674 502 614 561 c 0
 557 618 557 733 557 819 c 2
 557 1133 l 1
 389 1135 213 1128 49 1135 c 1
 31 1163 16 1198 0 1231 c 1
 1075 1231 l 1
1024 868 m 1
 1024 864 1026 866 1026 868 c 1
 1024 868 l 1
1038 823 m 1
 1038 819 1040 821 1040 823 c 1
 1038 823 l 1
1040 817 m 1
 1040 813 1042 815 1042 817 c 1
 1040 817 l 1
1055 772 m 1
 1055 768 1057 770 1057 772 c 1
 1055 772 l 1
1057 766 m 1
 1057 762 1059 764 1059 766 c 1
 1057 766 l 1
1059 760 m 1
 1059 756 1061 758 1061 760 c 1
 1059 760 l 1
705 633 m 1
 705 629 707 631 707 633 c 1
 705 633 l 1
698 594 m 1
 698 590 700 592 700 594 c 1
 698 594 l 1
692 555 m 1
 692 551 694 553 694 555 c 1
 692 555 l 1
EndSplineSet
EndChar
StartChar: bn_uu
Encoding: 2442 2442 108
Width: 1296
VWidth: 1000
Flags: HW
HStem: 125 172 1135 96 1364 143
VStem: 592 113<858 1133>
Fore
1137 1231 m 1
 1133 1266 1106 1290 1077 1307 c 0
 1020 1341 946 1354 881 1358 c 0
 729 1368 438 1356 274 1382 c 0
 199 1397 111 1421 86 1503 c 0
 80 1522 76 1540 76 1559 c 0
 74 1599 82 1640 100 1677 c 0
 106 1690 115 1712 131 1710 c 0
 164 1710 162 1636 158 1608 c 0
 156 1599 147 1587 150 1577 c 1
 162 1552 229 1538 256 1532 c 0
 481 1485 713 1528 938 1495 c 0
 1024 1483 1116 1456 1163 1378 c 0
 1188 1335 1198 1290 1198 1231 c 1
 1231 1231 1264 1231 1294 1229 c 1
 1313 1200 1327 1165 1341 1133 c 1
 705 1133 l 1
 705 782 l 2
 705 760 705 735 719 715 c 0
 745 670 801 700 836 719 c 0
 881 743 922 774 958 809 c 0
 999 846 1036 885 1059 936 c 1
 1102 918 1147 889 1174 854 c 0
 1212 807 1235 748 1241 686 c 0
 1247 614 1227 508 1206 446 c 0
 1169 334 1106 240 1014 180 c 0
 844 74 618 131 469 246 c 0
 264 408 141 702 74 993 c 0
 68 1022 59 1053 55 1083 c 1
 70 1077 94 1069 106 1057 c 0
 111 1051 123 1006 127 995 c 0
 139 954 154 915 170 877 c 0
 215 754 281 618 362 520 c 0
 375 504 389 489 399 473 c 1
 401 473 l 1
 348 606 313 745 274 883 c 1
 238 1001 l 2
 229 1028 217 1055 211 1083 c 1
 254 1067 258 1067 274 1034 c 0
 309 952 315 926 346 840 c 0
 410 651 473 395 662 319 c 0
 823 254 1022 336 1110 479 c 0
 1141 528 1157 584 1163 641 c 0
 1165 672 1161 709 1135 729 c 0
 1122 737 1114 725 1108 717 c 0
 1044 653 956 602 868 567 c 0
 827 549 784 535 741 530 c 0
 729 530 717 530 705 532 c 0
 643 545 614 610 602 666 c 0
 588 729 592 795 592 858 c 2
 592 1133 l 1
 414 1135 223 1128 49 1135 c 1
 31 1163 16 1198 0 1231 c 1
 1137 1231 l 1
EndSplineSet
EndChar
StartChar: bn_ri
Encoding: 2443 2443 109
Width: 1366
VWidth: 1000
Flags: HW
VStem: 870 113<324 565> 924 59 1143 111 1198 57
Fore
1143 1343 m 1
 1180 1307 1219 1270 1253 1229 c 1
 1260 889 1253 518 1255 166 c 1
 1253 168 1208 197 1202 207 c 0
 1198 213 1198 221 1198 227 c 0
 1198 236 1196 246 1196 254 c 0
 1174 365 1124 465 1044 528 c 0
 1026 543 1004 553 983 565 c 1
 983 2 l 1
 981 4 936 33 930 43 c 0
 922 53 926 72 924 84 c 0
 907 190 834 289 764 352 c 0
 690 420 535 528 383 539 c 0
 369 541 346 539 332 547 c 0
 322 551 283 596 274 606 c 2
 201 688 l 2
 184 705 168 721 156 739 c 1
 365 739 700 690 752 883 c 0
 754 895 762 920 754 934 c 0
 752 942 631 1001 618 1008 c 0
 604 1016 590 1026 575 1030 c 0
 563 1032 551 1018 541 1012 c 0
 455 952 340 911 215 911 c 0
 139 911 90 936 63 989 c 0
 16 1075 70 1186 166 1204 c 1
 254 1214 326 1161 338 1083 c 1
 418 1110 496 1163 547 1231 c 1
 870 936 l 1
 870 1341 l 1
 907 1305 946 1270 981 1229 c 1
 987 1057 981 872 983 696 c 1
 1053 678 1106 616 1141 557 c 1
 1143 557 l 1
 1143 1343 l 1
870 911 m 1
 866 899 866 889 864 877 c 0
 834 752 729 688 621 651 c 0
 592 641 563 635 535 627 c 1
 549 614 567 606 584 596 c 0
 705 508 782 444 868 324 c 1
 870 324 l 1
 870 911 l 1
EndSplineSet
EndChar
StartChar: bn_li
Encoding: 2444 2444 110
Width: 1091
VWidth: 1000
Flags: HW
HStem: 27 293 541 74
VStem: 92 113 870 74
Fore
727 248 m 1
 774 264 809 291 836 328 c 0
 911 436 860 582 776 670 c 1
 627 819 483 786 285 864 c 0
 217 889 150 930 129 1001 c 0
 113 1063 121 1116 162 1149 c 0
 213 1194 295 1184 334 1128 c 0
 362 1087 362 1042 340 995 c 1
 373 985 403 971 436 961 c 0
 504 938 573 918 639 885 c 0
 739 838 827 762 885 666 c 0
 965 532 971 360 877 231 c 0
 819 156 727 94 606 88 c 1
 606 246 588 449 477 518 c 0
 418 555 334 549 276 508 c 0
 221 467 182 377 215 287 c 0
 221 272 229 260 236 248 c 1
 238 248 l 1
 246 262 256 274 268 287 c 0
 346 354 473 317 506 219 c 0
 528 143 487 61 414 35 c 1
 346 14 274 37 227 59 c 1
 66 154 49 397 176 528 c 0
 264 618 422 643 535 588 c 0
 662 528 727 383 727 248 c 1
721 242 m 1
 721 238 723 240 723 242 c 1
 721 242 l 1
700 215 m 1
 700 211 702 213 702 215 c 1
 700 215 l 1
694 207 m 1
 694 203 696 205 696 207 c 1
 694 207 l 1
688 199 m 1
 688 195 690 197 690 199 c 1
 688 199 l 1
682 190 m 1
 682 186 684 188 684 190 c 1
 682 190 l 1
676 182 m 1
 676 178 678 180 678 182 c 1
 676 182 l 1
670 174 m 1
 670 170 672 172 672 174 c 1
 670 174 l 1
655 156 m 1
 655 152 657 154 657 156 c 1
 655 156 l 1
649 147 m 1
 649 143 651 145 651 147 c 1
 649 147 l 1
643 139 m 1
 643 135 645 137 645 139 c 1
 643 139 l 1
637 131 m 1
 637 127 639 129 639 131 c 1
 637 131 l 1
631 123 m 1
 631 119 633 121 633 123 c 1
 631 123 l 1
625 115 m 1
 625 111 627 113 627 115 c 1
 625 115 l 1
618 106 m 1
 618 102 621 104 621 106 c 1
 618 106 l 1
EndSplineSet
EndChar
StartChar: bn_e
Encoding: 2447 2447 111
Width: 1193
VWidth: 1000
Flags: HW
HStem: 528 356 1133 98
VStem: 969 113<219 903>
Fore
594 885 m 1
 688 885 786 809 776 696 c 0
 770 598 684 524 588 528 c 0
 571 528 555 532 539 539 c 0
 442 571 401 674 410 768 c 0
 426 938 532 1106 682 1190 c 0
 774 1239 862 1247 944 1196 c 0
 1006 1159 1059 1096 1077 1024 c 0
 1085 985 1081 942 1081 903 c 2
 1081 2 l 1
 1071 6 1038 31 1028 41 c 1
 1022 51 1024 66 1018 76 c 0
 1014 86 981 127 971 137 c 0
 903 199 752 217 641 223 c 0
 596 225 549 223 504 227 c 0
 301 250 115 358 70 553 c 0
 41 676 94 813 139 899 c 1
 158 893 188 881 176 858 c 0
 156 817 129 721 135 651 c 0
 152 467 356 385 526 373 c 0
 578 369 627 373 678 365 c 0
 788 346 883 289 969 219 c 1
 969 928 l 2
 969 963 971 999 961 1032 c 0
 944 1087 893 1135 834 1133 c 0
 772 1133 715 1077 684 1040 c 0
 645 995 614 942 594 885 c 1
EndSplineSet
EndChar
StartChar: bn_ai
Encoding: 2448 2448 112
Width: 1193
VWidth: 1000
Flags: HW
HStem: 528 356 1133 98
VStem: 389 66 969 113<219 803 803 903> 1128 63
Fore
1065 1057 m 1
 1094 1092 1116 1135 1126 1180 c 0
 1128 1194 1135 1214 1128 1229 c 0
 1098 1298 938 1323 846 1343 c 1
 680 1374 446 1401 401 1563 c 0
 393 1585 389 1610 389 1634 c 0
 389 1710 408 1774 434 1827 c 0
 440 1841 465 1898 492 1862 c 0
 502 1845 504 1819 504 1798 c 0
 502 1757 479 1729 463 1692 c 0
 457 1675 449 1655 455 1638 c 0
 463 1618 481 1604 498 1591 c 0
 602 1513 879 1493 1022 1446 c 0
 1090 1423 1155 1386 1182 1315 c 0
 1196 1274 1196 1231 1192 1188 c 0
 1186 1098 1153 1004 1106 944 c 0
 1098 932 1083 920 1081 903 c 0
 1077 870 1081 836 1081 803 c 2
 1081 2 l 1
 1071 6 1038 31 1028 41 c 1
 1022 51 1024 66 1018 76 c 0
 1014 86 981 127 971 137 c 0
 903 199 752 217 641 223 c 0
 596 225 549 223 504 227 c 0
 301 250 115 358 70 553 c 0
 41 676 94 813 139 899 c 1
 158 893 188 881 176 858 c 0
 156 817 129 721 135 651 c 0
 152 467 356 385 526 373 c 0
 578 369 627 373 678 365 c 0
 788 346 883 289 969 219 c 1
 969 928 l 2
 969 963 971 999 961 1032 c 0
 944 1087 893 1135 834 1133 c 0
 772 1133 715 1077 684 1040 c 0
 645 995 614 942 594 885 c 1
 739 885 819 727 750 614 c 0
 739 596 725 580 707 565 c 0
 627 506 510 520 451 602 c 0
 418 647 410 702 410 756 c 0
 410 805 424 856 440 901 c 0
 487 1020 573 1133 688 1192 c 0
 737 1219 795 1235 850 1231 c 0
 920 1225 985 1176 1026 1122 c 0
 1042 1102 1057 1081 1065 1057 c 1
EndSplineSet
EndChar
StartChar: bn_o
Encoding: 2451 2451 113
Width: 1263
VWidth: 1000
Flags: HW
HStem: 162 147 575 281 1133 84
VStem: 385 250 1049 51
Fore
573 922 m 1
 643 889 653 791 608 733 c 0
 571 686 502 674 449 702 c 0
 418 719 401 739 389 772 c 0
 373 823 393 864 420 907 c 0
 459 975 528 1057 596 1106 c 1
 698 1186 848 1255 975 1194 c 0
 1010 1180 1040 1151 1061 1122 c 0
 1120 1036 1104 891 1071 795 c 0
 1067 782 1061 766 1061 754 c 0
 1063 739 1079 723 1087 711 c 0
 1171 573 1192 358 1051 238 c 0
 907 113 688 160 541 254 c 0
 336 385 211 641 127 883 c 0
 102 956 78 1030 61 1106 c 1
 70 1102 117 1071 125 1059 c 128
 133 1047 135 1030 139 1016 c 0
 158 940 195 852 225 784 c 0
 309 606 442 438 625 356 c 0
 707 319 852 287 956 328 c 0
 999 342 1053 377 1073 418 c 1
 1118 496 1083 592 1026 653 c 1
 1018 637 1008 621 993 608 c 0
 930 553 829 565 782 635 c 0
 725 721 778 819 846 846 c 0
 911 872 969 846 1008 807 c 1
 1022 838 1038 866 1044 899 c 0
 1063 999 1020 1133 895 1133 c 1
 858 1128 823 1114 791 1098 c 0
 709 1057 631 993 573 922 c 1
EndSplineSet
EndChar
StartChar: bn_au
Encoding: 2452 2452 114
Width: 1263
VWidth: 1000
Flags: HW
HStem: 164 147 573 283 1130 86
VStem: 385 248 1049 53<949 950 952 991> 1202 61
Fore
1102 952 m 1
 1151 1014 1186 1090 1198 1180 c 0
 1200 1196 1206 1217 1198 1231 c 0
 1151 1323 846 1333 711 1350 c 0
 602 1364 473 1384 406 1452 c 0
 301 1556 346 1737 406 1837 c 0
 410 1847 416 1860 426 1868 c 0
 438 1880 451 1870 457 1858 c 0
 469 1837 469 1808 467 1786 c 0
 463 1743 432 1708 418 1667 c 0
 412 1653 403 1634 408 1618 c 0
 424 1571 496 1540 549 1524 c 0
 678 1489 813 1485 944 1466 c 0
 1038 1456 1155 1436 1214 1376 c 0
 1264 1325 1268 1249 1262 1182 c 0
 1253 1059 1214 940 1143 838 c 0
 1118 805 1090 774 1061 745 c 1
 1092 715 1110 670 1126 631 c 0
 1176 498 1165 338 1053 238 c 0
 979 174 897 154 772 166 c 1
 446 221 279 500 170 766 c 1
 127 885 l 1
 102 956 78 1030 61 1106 c 1
 70 1102 117 1071 125 1059 c 128
 133 1047 135 1030 139 1016 c 0
 158 940 195 852 225 784 c 0
 309 606 442 438 625 356 c 0
 707 319 852 287 956 328 c 0
 999 342 1053 377 1073 418 c 1
 1118 496 1083 592 1026 653 c 1
 1004 606 948 565 879 575 c 0
 856 580 831 588 813 602 c 0
 756 647 741 729 780 791 c 0
 817 852 918 881 977 831 c 2
 979 831 l 2
 997 850 1028 864 1040 889 c 0
 1049 907 1049 932 1049 950 c 0
 1049 1032 997 1130 905 1133 c 0
 866 1133 827 1116 793 1098 c 0
 711 1057 631 993 573 922 c 1
 641 889 662 776 594 717 c 1
 567 696 539 682 492 688 c 0
 442 694 410 725 393 766 c 0
 365 836 410 897 449 952 c 0
 532 1071 659 1180 805 1210 c 0
 879 1225 961 1217 1020 1165 c 0
 1083 1112 1102 1055 1102 952 c 1
1100 950 m 1
 1100 946 1102 948 1102 950 c 1
 1100 950 l 1
EndSplineSet
EndChar
StartChar: bn_ka
Encoding: 2453 2453 115
Width: 1296
VWidth: 1000
Flags: HW
HStem: 395 246 1055 78<842 842> 1133 98<68 729 68 68 842 1270 842 842>
VStem: 729 113<315 903 903 903 1055 1133>
Fore
0 1231 m 1
 1270 1231 l 1
 1294 1227 l 1
 1315 1200 1327 1165 1341 1133 c 1
 842 1133 l 1
 842 1055 l 5
 887 1051 932 1036 971 1016 c 4
 1133 936 1229 758 1202 580 c 4
 1196 539 1184 494 1163 457 c 4
 1124 389 1030 375 973 428 c 4
 963 438 952 451 946 465 c 4
 909 541 961 633 1044 641 c 4
 1085 645 1122 627 1151 598 c 5
 1135 754 1012 893 842 920 c 5
 842 2 l 1
 836 6 797 31 788 43 c 0
 782 55 784 72 782 84 c 0
 766 186 690 285 623 348 c 0
 514 449 385 524 227 567 c 0
 211 571 188 571 174 582 c 0
 162 588 154 604 147 614 c 2
 104 678 l 2
 98 688 88 698 86 709 c 0
 82 723 104 733 115 739 c 0
 289 854 463 952 676 1024 c 0
 694 1030 711 1036 729 1040 c 1
 729 1133 l 1
 68 1133 l 1
 49 1135 l 1
 31 1163 16 1198 0 1231 c 1
729 903 m 1
 563 844 412 770 274 682 c 1
 467 606 616 477 727 315 c 1
 729 315 l 1
 729 903 l 1
EndSplineSet
EndChar
StartChar: bn_kha
Encoding: 2454 2454 116
Width: 1091
VWidth: 1000
Flags: HW
HStem: 1133 98
VStem: 866 113<324 1133> 920 59
Fore
866 1343 m 1
 903 1307 938 1270 977 1235 c 1
 1010 1229 1053 1233 1087 1229 c 1
 1108 1200 1120 1165 1137 1133 c 1
 979 1133 l 1
 979 2 l 1
 977 4 932 33 926 43 c 0
 918 53 922 72 920 84 c 0
 903 195 829 289 758 354 c 0
 666 438 539 520 383 539 c 0
 338 545 328 541 307 567 c 1
 272 606 l 2
 246 635 166 721 154 739 c 1
 371 739 647 778 670 985 c 0
 674 1016 668 1047 637 1061 c 1
 594 1075 580 1047 559 1026 c 1
 473 961 336 909 213 911 c 0
 193 911 174 911 156 915 c 0
 104 928 53 973 45 1036 c 0
 29 1135 119 1221 215 1204 c 1
 276 1190 326 1149 336 1083 c 1
 412 1110 481 1157 530 1214 c 0
 539 1223 545 1229 555 1227 c 0
 586 1221 618 1198 643 1180 c 0
 741 1106 786 971 750 852 c 0
 725 774 664 717 594 678 c 0
 567 664 539 647 510 641 c 1
 522 629 541 621 555 612 c 0
 651 551 719 498 793 416 c 0
 817 387 846 356 864 324 c 1
 866 324 l 1
 866 1343 l 1
EndSplineSet
EndChar
StartChar: bn_ga
Encoding: 2455 2455 117
Width: 956
VWidth: 1000
Flags: HW
HStem: 907 78 1133 98
VStem: 436 104 731 113<133 825 825 855 1006 1133>
Fore
731 1343 m 1
 768 1307 803 1270 842 1235 c 1
 874 1229 918 1233 952 1229 c 1
 973 1200 985 1165 1001 1133 c 1
 844 1133 l 1
 844 2 l 1
 817 18 793 37 768 55 c 0
 758 63 741 70 735 82 c 0
 727 96 731 119 731 133 c 2
 731 825 l 2
 731 885 733 881 711 911 c 0
 688 942 612 1018 571 1049 c 0
 487 1116 397 1176 287 1130 c 0
 256 1118 215 1081 201 1051 c 0
 186 1022 182 995 178 965 c 1
 221 983 270 987 317 987 c 0
 436 987 492 946 528 870 c 1
 582 745 465 573 389 492 c 0
 379 481 365 463 350 461 c 0
 340 459 328 469 319 475 c 2
 248 522 l 1
 266 543 289 561 309 582 c 0
 354 633 389 690 416 754 c 0
 428 786 446 829 434 864 c 0
 430 872 426 879 422 885 c 0
 387 922 332 909 291 891 c 0
 242 870 195 840 143 821 c 0
 127 817 100 805 82 815 c 0
 57 825 43 895 37 924 c 0
 27 977 37 1016 51 1057 c 1
 96 1155 207 1208 307 1225 c 0
 391 1237 432 1229 496 1198 c 0
 553 1169 606 1130 653 1087 c 0
 680 1063 711 1036 729 1006 c 1
 731 1006 l 1
 731 1343 l 1
EndSplineSet
EndChar
StartChar: bn_gha
Encoding: 2456 2456 118
Width: 1024
VWidth: 1000
Flags: HW
HStem: 1133 98<90 90 324 346 346 799 911 1001 911 911>
VStem: 799 113<293 1133>
Fore
0 1231 m 1
 1001 1231 l 1
 1022 1227 l 1
 1042 1200 1055 1165 1069 1133 c 1
 911 1133 l 1
 911 2 l 1
 909 4 864 33 858 43 c 0
 852 51 854 68 852 78 c 0
 844 150 797 221 756 270 c 0
 666 375 522 469 352 492 c 1
 307 492 303 496 281 518 c 2
 246 557 l 1
 246 557 211 592 207 602 c 0
 203 616 233 635 242 643 c 0
 283 680 322 719 362 754 c 1
 248 780 150 866 109 977 c 0
 90 1026 84 1079 90 1133 c 1
 49 1135 l 1
 31 1163 16 1198 0 1231 c 1
799 1133 m 1
 346 1133 l 2
 301 1133 297 1139 279 1112 c 1
 233 1024 281 918 362 879 c 0
 420 852 481 868 518 897 c 0
 524 901 530 907 539 907 c 0
 553 907 569 895 582 889 c 0
 614 872 647 852 682 838 c 1
 600 760 510 690 432 606 c 1
 465 592 496 571 526 551 c 0
 621 487 694 420 764 334 c 0
 776 319 786 305 799 293 c 1
 799 1133 l 1
EndSplineSet
EndChar
StartChar: bn_nga
Encoding: 2457 2457 119
Width: 1161
VWidth: 1000
Flags: HW
HStem: 76 172 856 80 1118 113
VStem: 401 113<854 887> 870 68 989 72
Fore
150 1206 m 1
 193 1214 236 1225 283 1229 c 1
 299 1210 313 1188 328 1167 c 1
 403 1085 l 1
 446 1051 l 1
 481 1130 588 1202 684 1223 c 0
 776 1243 850 1225 895 1174 c 0
 946 1114 952 1024 907 958 c 0
 858 885 762 856 678 856 c 0
 623 856 565 866 514 887 c 1
 514 821 498 756 492 690 c 0
 487 657 485 621 508 594 c 0
 541 553 596 569 635 590 c 0
 692 625 745 670 788 721 c 0
 811 748 834 778 840 813 c 1
 961 784 1051 676 1061 551 c 0
 1063 520 1061 489 1057 461 c 0
 1042 315 977 193 877 123 c 1
 770 55 625 63 516 123 c 0
 375 197 297 344 240 494 c 0
 193 621 162 756 133 889 c 0
 121 946 113 1004 98 1059 c 1
 113 1053 137 1044 147 1032 c 0
 152 1026 154 1016 156 1008 c 2
 170 958 l 2
 184 907 229 748 254 680 c 0
 313 516 399 324 578 266 c 0
 688 229 811 250 897 330 c 0
 930 362 944 385 965 426 c 0
 991 485 1008 569 952 616 c 0
 938 631 915 641 889 641 c 1
 879 598 840 561 807 532 c 0
 764 496 715 463 659 449 c 0
 639 442 616 444 596 446 c 0
 551 451 506 463 473 496 c 0
 406 563 401 698 401 823 c 2
 401 903 l 2
 401 913 408 928 401 938 c 0
 397 948 381 952 373 958 c 0
 295 1016 248 1061 190 1137 c 1
 176 1159 160 1182 150 1206 c 1
537 983 m 1
 555 975 571 965 590 958 c 0
 655 934 733 922 799 950 c 0
 834 967 862 997 868 1036 c 0
 870 1051 872 1065 864 1079 c 0
 848 1114 799 1118 764 1118 c 0
 674 1118 573 1069 537 983 c 1
877 684 m 1
 877 680 879 682 879 684 c 1
 877 684 l 1
881 670 m 1
 881 666 883 668 883 670 c 1
 881 670 l 1
885 655 m 1
 885 651 887 653 887 655 c 1
 885 655 l 1
EndSplineSet
EndChar
StartChar: bn_cha
Encoding: 2458 2458 120
Width: 886
VWidth: 1000
Flags: HW
HStem: 1135 96
VStem: 113 113<508 872 1118 1133>
Fore
0 1231 m 1
 864 1231 l 1
 885 1227 l 1
 905 1200 918 1165 932 1133 c 1
 225 1133 l 1
 225 1104 225 1075 236 1049 c 0
 285 926 485 924 621 889 c 0
 696 870 791 825 791 721 c 0
 791 682 788 645 784 606 c 0
 752 375 618 129 354 102 c 1
 272 90 215 123 178 170 c 0
 104 268 113 393 113 508 c 2
 113 1133 l 1
 90 1133 68 1133 49 1135 c 1
 31 1163 16 1198 0 1231 c 1
225 872 m 1
 225 432 l 2
 225 369 236 283 293 242 c 0
 317 223 348 221 379 225 c 0
 555 248 629 428 643 586 c 0
 647 627 651 674 637 713 c 0
 598 817 440 825 326 848 c 0
 291 854 258 866 225 872 c 1
EndSplineSet
EndChar
StartChar: bn_chha
Encoding: 2459 2459 121
Width: 1058
VWidth: 1000
Flags: HW
HStem: 530 74 1135 96
VStem: 113 113<782 803 803 979 1126 1133>
Fore
0 1231 m 1
 1034 1231 l 1
 1057 1227 l 1
 1077 1200 1090 1165 1104 1133 c 1
 225 1133 l 1
 225 1120 227 1108 233 1096 c 0
 256 1034 332 1026 389 1022 c 0
 401 1022 414 1020 426 1020 c 0
 440 1020 453 1018 467 1018 c 0
 512 1018 573 1010 608 991 c 0
 623 983 633 967 649 958 c 0
 659 956 670 954 680 954 c 1
 725 942 l 2
 801 920 866 877 903 813 c 0
 981 686 920 514 817 420 c 0
 782 387 692 326 627 311 c 1
 627 309 l 1
 664 295 719 260 752 240 c 0
 864 166 1004 35 1077 -92 c 0
 1079 -96 1083 -102 1083 -109 c 0
 1083 -119 1071 -133 1061 -135 c 0
 1051 -135 1016 -92 1008 -84 c 0
 885 55 694 172 494 219 c 0
 449 229 403 238 356 244 c 0
 342 244 326 246 311 246 c 1
 287 252 287 250 274 268 c 2
 252 299 l 1
 225 340 195 377 170 420 c 1
 242 420 360 403 430 383 c 0
 442 381 453 375 465 375 c 0
 487 375 514 383 537 389 c 0
 676 426 819 535 840 698 c 0
 852 801 805 834 737 864 c 0
 711 874 684 881 657 883 c 1
 653 831 643 782 621 737 c 0
 571 639 477 565 371 541 c 0
 295 520 209 520 156 586 c 0
 106 643 113 713 113 782 c 2
 113 1133 l 1
 90 1133 68 1133 49 1135 c 1
 31 1163 16 1198 0 1231 c 1
225 979 m 1
 225 803 l 2
 225 719 219 647 279 612 c 0
 309 596 348 602 379 612 c 0
 469 641 522 727 535 817 c 0
 541 856 543 901 516 932 c 0
 465 989 317 967 225 979 c 1
EndSplineSet
EndChar
StartChar: bn_ja
Encoding: 2460 2460 122
Width: 1366
VWidth: 1000
Flags: HW
HStem: 223 172 868 115 1133 98<80 467 80 80 754 768 768 1337>
VStem: 111 35 1130 49<49 86 86 86>
Fore
0 1231 m 1
 1337 1231 l 1
 1364 1227 l 1
 1384 1200 1397 1165 1411 1133 c 1
 768 1133 l 2
 739 1133 711 1135 682 1124 c 1
 698 1104 715 1085 735 1071 c 0
 795 1026 870 1006 942 995 c 0
 989 989 1034 989 1081 985 c 0
 1098 985 1118 989 1135 983 c 0
 1151 979 1165 963 1178 950 c 0
 1198 934 1266 879 1274 868 c 0
 1280 860 1276 852 1272 846 c 0
 1239 795 1206 707 1190 641 c 0
 1145 432 1180 215 1180 2 c 1
 1153 12 1130 16 1130 49 c 2
 1130 86 l 1
 1118 346 1036 641 1137 866 c 1
 1098 866 1057 870 1018 877 c 0
 877 895 729 936 639 1020 c 0
 623 1034 606 1051 594 1069 c 1
 508 1012 416 946 393 840 c 1
 373 766 403 709 463 692 c 0
 479 688 498 690 514 692 c 0
 602 702 676 752 725 825 c 1
 774 803 801 780 834 743 c 1
 909 647 909 514 864 403 c 0
 838 338 795 279 731 246 c 0
 686 225 639 221 590 225 c 0
 385 242 264 399 197 561 c 0
 131 717 109 891 109 1059 c 1
 139 1040 145 1040 145 1004 c 0
 145 989 147 977 147 963 c 0
 166 764 246 582 387 475 c 0
 467 416 578 381 678 401 c 0
 768 418 846 496 831 592 c 0
 825 643 807 655 786 692 c 1
 784 692 l 1
 774 664 748 639 723 621 c 0
 645 561 535 549 449 600 c 0
 344 664 293 805 319 922 c 0
 334 979 365 1028 403 1071 c 0
 422 1092 442 1116 467 1130 c 1
 467 1133 l 1
 80 1133 l 1
 47 1137 l 1
 29 1165 14 1198 0 1231 c 1
776 711 m 1
 776 707 778 709 778 711 c 1
 776 711 l 1
EndSplineSet
EndChar
StartChar: bn_jha
Encoding: 2461 2461 123
Width: 1228
VWidth: 1000
Flags: HW
HStem: 1133 98<68 731 68 68>
VStem: 731 113<313 565 696 905 905 905 1073 1133 1133 1133> 1012 113<557 1133>
Fore
1012 1343 m 1
 1124 1235 l 1
 1153 1229 1192 1233 1225 1229 c 1
 1245 1200 1257 1165 1274 1133 c 1
 1124 1133 l 1
 1124 199 l 1
 1118 203 1079 227 1071 240 c 0
 1065 252 1067 270 1065 283 c 0
 1040 387 979 483 897 539 c 0
 881 549 862 557 844 565 c 1
 844 2 l 1
 842 4 797 33 791 43 c 0
 784 51 786 68 784 78 c 0
 776 160 725 236 680 289 c 0
 586 401 453 485 315 539 c 0
 266 559 227 565 178 580 c 0
 166 584 160 598 152 608 c 2
 102 682 l 2
 96 690 80 707 86 717 c 0
 92 731 184 788 203 799 c 0
 352 889 502 965 678 1024 c 0
 682 1026 723 1036 727 1047 c 1
 733 1053 731 1065 731 1073 c 2
 731 1133 l 1
 68 1133 l 1
 49 1135 l 1
 31 1163 16 1198 0 1231 c 1
 844 1231 l 1
 844 696 l 1
 920 676 971 616 1010 557 c 1
 1012 557 l 1
 1012 1343 l 1
731 905 m 1
 567 850 416 768 274 684 c 1
 274 682 l 1
 459 608 621 475 729 313 c 1
 731 313 l 1
 731 905 l 1
EndSplineSet
EndChar
StartChar: bn_nya
Encoding: 2462 2462 124
Width: 1775
VWidth: 1000
Flags: HW
HStem: 543 262 958 125 1130 98
VStem: 70 74 438 383 1038 113<213 365 584 592 592 770> 1217 330 1516 90
Fore
639 897 m 1
 686 895 729 877 764 844 c 0
 827 782 840 678 793 604 c 0
 780 586 764 567 745 555 c 0
 655 487 524 514 469 610 c 1
 406 713 446 850 492 938 c 0
 551 1059 653 1171 782 1214 c 0
 922 1257 1032 1200 1104 1108 c 0
 1130 1073 1151 1030 1151 985 c 1
 1184 1018 1221 1047 1264 1063 c 0
 1366 1104 1499 1087 1567 995 c 0
 1616 932 1616 838 1583 752 c 0
 1575 733 1569 717 1559 700 c 0
 1554 692 1546 684 1546 674 c 128
 1546 664 1554 655 1559 647 c 0
 1612 553 1626 444 1571 358 c 1
 1499 256 1356 244 1249 293 c 0
 1212 309 1180 336 1151 365 c 1
 1151 2 l 1
 1141 6 1108 31 1098 41 c 1
 1092 51 1094 66 1087 76 c 0
 1083 88 1049 131 1038 141 c 0
 1014 164 977 176 946 186 c 0
 864 213 772 221 686 223 c 0
 645 225 602 223 561 225 c 0
 371 238 223 307 129 434 c 0
 76 510 53 604 80 719 c 0
 94 780 115 846 150 899 c 1
 193 874 l 1
 141 772 113 639 184 539 c 0
 260 430 403 387 563 373 c 0
 612 371 662 373 711 367 c 0
 827 350 961 287 1038 213 c 1
 1038 930 l 2
 1038 963 1042 997 1030 1030 c 0
 1004 1114 903 1155 825 1118 c 0
 758 1085 668 985 639 897 c 1
1464 758 m 1
 1489 788 1509 815 1516 860 c 0
 1516 872 1516 883 1513 895 c 0
 1505 928 1477 948 1446 956 c 0
 1343 979 1237 907 1184 850 c 1
 1157 817 1151 815 1151 770 c 2
 1151 592 l 2
 1151 575 1147 557 1153 541 c 0
 1159 520 1182 498 1198 483 c 0
 1249 434 1323 391 1395 387 c 0
 1432 385 1477 393 1501 426 c 0
 1540 477 1499 553 1462 590 c 1
 1438 571 1411 553 1380 545 c 0
 1303 524 1223 588 1217 666 c 0
 1212 739 1264 786 1325 805 c 1
 1384 817 1427 782 1462 758 c 2
 1464 758 l 1
EndSplineSet
EndChar
StartChar: bn_Ta
Encoding: 2463 2463 125
Width: 886
VWidth: 1000
Flags: HW
HStem: 1135 96 1364 143<410 471>
VStem: 41 76 113 113<502 1133> 471 307
Fore
768 1231 m 1
 745 1300 655 1335 586 1350 c 0
 549 1358 510 1362 471 1364 c 2
 403 1364 l 1
 266 1372 63 1399 45 1546 c 1
 37 1589 41 1634 57 1673 c 0
 63 1686 72 1706 86 1710 c 0
 117 1714 121 1653 119 1624 c 0
 117 1614 111 1599 117 1591 c 1
 121 1573 178 1550 199 1542 c 0
 266 1520 338 1511 410 1507 c 2
 477 1507 l 1
 668 1499 829 1434 829 1231 c 1
 848 1231 868 1231 885 1229 c 1
 903 1200 918 1165 932 1133 c 1
 225 1133 l 1
 225 496 l 2
 225 469 221 440 231 416 c 0
 250 373 297 332 346 330 c 0
 377 330 410 342 436 358 c 0
 526 412 586 518 606 618 c 1
 563 623 530 641 508 668 c 0
 449 735 459 846 535 899 c 0
 584 934 641 934 696 911 c 1
 778 870 786 782 774 692 c 0
 748 506 639 301 500 203 c 0
 461 174 365 117 279 137 c 1
 201 162 152 260 129 336 c 0
 113 391 113 444 113 502 c 2
 113 1133 l 1
 90 1133 68 1133 49 1135 c 1
 31 1163 16 1198 0 1231 c 1
 768 1231 l 1
EndSplineSet
EndChar
StartChar: bn_Tha
Encoding: 2464 2464 126
Width: 886
VWidth: 1000
Flags: HW
HStem: 102 90 1135 96
VStem: 371 115 731 92
Fore
442 1231 m 1
 393 1346 344 1477 385 1602 c 0
 393 1624 449 1763 516 1708 c 1
 547 1679 547 1624 528 1589 c 1
 510 1563 485 1544 485 1503 c 0
 485 1444 528 1341 551 1294 c 0
 559 1274 569 1253 575 1231 c 1
 858 1231 l 1
 885 1227 l 1
 905 1200 918 1165 932 1133 c 1
 618 1133 l 1
 653 1081 688 1030 719 975 c 0
 780 856 817 719 823 584 c 0
 834 412 782 287 690 199 c 0
 539 57 317 82 207 203 c 0
 139 276 92 412 137 522 c 0
 143 543 145 551 168 551 c 0
 219 551 283 571 322 592 c 0
 487 676 575 866 530 1047 c 0
 526 1057 524 1067 520 1075 c 0
 512 1085 502 1094 496 1104 c 0
 492 1112 487 1126 479 1130 c 0
 469 1135 457 1133 446 1133 c 2
 78 1133 l 2
 70 1133 57 1130 49 1135 c 0
 39 1139 37 1153 33 1161 c 0
 20 1184 10 1208 0 1231 c 1
 442 1231 l 1
694 795 m 1
 686 778 684 758 678 739 c 0
 618 559 451 436 260 436 c 1
 244 342 274 270 330 231 c 0
 426 160 559 197 637 276 c 0
 737 377 743 539 719 692 c 0
 713 727 700 760 694 795 c 1
EndSplineSet
EndChar
StartChar: bn_Da
Encoding: 2465 2465 127
Width: 1228
VWidth: 1000
Flags: HW
HStem: 127 172 532 162 1135 96
VStem: 557 115<819 1133>
Fore
0 1231 m 1
 1202 1231 l 1
 1227 1227 l 1
 1247 1200 1260 1165 1274 1133 c 1
 672 1133 l 1
 672 776 l 2
 672 754 672 729 684 711 c 0
 711 670 766 702 797 721 c 0
 864 762 975 848 1004 936 c 1
 1092 899 1159 809 1174 713 c 0
 1180 680 1178 649 1176 616 c 0
 1161 406 1069 223 907 150 c 1
 805 106 674 121 575 172 c 0
 303 313 215 756 125 1083 c 1
 160 1069 176 1067 184 1032 c 1
 203 981 l 1
 262 805 315 625 418 479 c 0
 465 412 526 352 604 322 c 0
 768 258 956 324 1049 471 c 0
 1077 518 1096 573 1102 629 c 0
 1108 680 1096 717 1065 739 c 1
 1036 684 915 606 836 571 c 0
 770 543 674 502 614 561 c 0
 557 618 557 733 557 819 c 2
 557 1133 l 1
 389 1135 213 1128 49 1135 c 1
 31 1163 16 1198 0 1231 c 1
1024 868 m 1
 1024 864 1026 866 1026 868 c 1
 1024 868 l 1
1038 823 m 1
 1038 819 1040 821 1040 823 c 1
 1038 823 l 1
1040 817 m 1
 1040 813 1042 815 1042 817 c 1
 1040 817 l 1
1055 772 m 1
 1055 768 1057 770 1057 772 c 1
 1055 772 l 1
1057 766 m 1
 1057 762 1059 764 1059 766 c 1
 1057 766 l 1
1059 760 m 1
 1059 756 1061 758 1061 760 c 1
 1059 760 l 1
705 633 m 1
 705 629 707 631 707 633 c 1
 705 633 l 1
698 594 m 1
 698 590 700 592 700 594 c 1
 698 594 l 1
692 555 m 1
 692 551 694 553 694 555 c 1
 692 555 l 1
EndSplineSet
EndChar
StartChar: bn_Dha
Encoding: 2466 2466 128
Width: 886
VWidth: 1000
Flags: HW
HStem: 1135 96
VStem: 113 113<502 1133> 471 307
Fore
0 1231 m 1
 864 1231 l 1
 885 1227 l 1
 905 1200 918 1165 932 1133 c 1
 225 1133 l 1
 225 496 l 2
 225 469 221 440 231 416 c 0
 250 373 297 332 346 330 c 0
 377 330 410 342 436 358 c 0
 526 412 586 518 606 618 c 1
 563 623 530 641 508 668 c 0
 449 735 459 846 535 899 c 0
 584 934 641 934 696 911 c 1
 778 870 786 782 774 692 c 0
 748 506 639 301 500 203 c 0
 461 174 365 117 279 137 c 1
 201 162 152 260 129 336 c 0
 113 391 113 444 113 502 c 2
 113 1133 l 1
 90 1133 68 1133 49 1135 c 1
 31 1163 16 1198 0 1231 c 1
EndSplineSet
EndChar
StartChar: bn_Na
Encoding: 2467 2467 129
Width: 921
VWidth: 1000
Flags: HW
HStem: 1133 98
VStem: 94 158 289 289 696 113<106 891 891 902 1075 1133>
Fore
696 1343 m 1
 733 1307 768 1270 807 1235 c 1
 840 1229 883 1233 918 1229 c 1
 938 1200 950 1165 967 1133 c 1
 809 1133 l 1
 809 2 l 1
 782 18 758 39 731 57 c 0
 709 72 696 74 696 106 c 2
 696 891 l 2
 696 913 700 940 686 958 c 0
 639 1018 563 1108 453 1108 c 0
 334 1108 268 1022 254 926 c 0
 248 885 250 844 262 805 c 0
 268 786 279 770 285 752 c 1
 287 752 l 1
 287 813 319 844 362 862 c 0
 426 889 514 879 557 821 c 0
 578 793 582 760 573 727 c 0
 559 666 508 618 449 600 c 0
 328 563 199 618 135 727 c 0
 53 868 90 1073 221 1171 c 0
 332 1257 481 1245 592 1167 c 0
 631 1141 664 1108 696 1075 c 1
 696 1343 l 1
287 752 m 1
 287 748 289 750 289 752 c 1
 287 752 l 1
EndSplineSet
EndChar
StartChar: bn_ta
Encoding: 2468 2468 130
Width: 1296
VWidth: 1000
Flags: HW
HStem: 1133 98<74 1270 74 74>
VStem: 575 344
Fore
0 1231 m 1
 1270 1231 l 1
 1294 1227 l 1
 1315 1200 1327 1165 1341 1133 c 1
 74 1133 l 1
 47 1137 l 1
 29 1165 14 1198 0 1231 c 1
100 1083 m 1
 135 1069 152 1065 160 1028 c 1
 242 811 375 588 547 449 c 0
 614 395 692 350 778 338 c 0
 887 322 999 365 1073 446 c 0
 1151 535 1190 676 1122 782 c 0
 1075 854 985 909 870 909 c 1
 913 860 932 799 911 735 c 0
 905 717 897 700 885 686 c 0
 829 610 719 594 643 651 c 0
 600 682 575 739 575 801 c 0
 575 893 627 979 707 1026 c 0
 760 1055 819 1063 879 1057 c 0
 1079 1036 1237 864 1247 664 c 0
 1249 633 1247 600 1243 569 c 0
 1223 397 1122 213 930 178 c 1
 831 164 739 190 672 225 c 0
 451 344 295 582 190 815 c 0
 170 860 111 1004 100 1083 c 1
EndSplineSet
EndChar
StartChar: bn_tha
Encoding: 2469 2469 131
Width: 1024
VWidth: 1000
Flags: HW
HStem: 1133 98
VStem: 86 293 573 86 799 113<299 1133>
Fore
799 1343 m 1
 836 1307 870 1270 909 1235 c 1
 942 1229 985 1233 1020 1229 c 1
 1040 1200 1053 1165 1069 1133 c 1
 911 1133 l 1
 911 2 l 1
 909 4 864 33 858 43 c 0
 852 51 854 68 852 78 c 0
 836 172 776 244 713 299 c 0
 621 379 504 438 385 469 c 0
 346 479 305 485 264 492 c 0
 252 492 242 494 229 494 c 0
 211 494 201 500 197 514 c 1
 184 532 131 639 123 666 c 1
 266 666 485 711 551 817 c 0
 596 887 565 997 524 1055 c 0
 508 1075 489 1092 467 1104 c 0
 420 1124 373 1114 326 1102 c 1
 352 1069 379 1040 379 989 c 0
 381 891 283 815 188 844 c 0
 90 872 66 983 100 1073 c 0
 129 1147 195 1202 270 1223 c 0
 293 1229 317 1231 342 1231 c 0
 532 1231 680 1038 655 854 c 0
 643 770 590 694 528 637 c 0
 506 616 479 598 455 578 c 1
 487 567 516 547 545 528 c 0
 608 489 666 444 719 391 c 0
 745 365 778 334 797 299 c 1
 799 299 l 1
 799 1343 l 1
EndSplineSet
EndChar
StartChar: bn_da
Encoding: 2470 2470 132
Width: 956
VWidth: 1000
Flags: HW
HStem: 1135 96
VStem: 113 113<616 1133 1029 1133>
Fore
0 1231 m 1
 934 1231 l 1
 954 1227 l 1
 975 1200 987 1165 1001 1133 c 1
 225 1133 l 1
 225 616 l 1
 365 750 537 889 733 977 c 1
 758 946 784 920 811 891 c 0
 819 881 838 868 840 854 c 0
 842 844 829 829 825 819 c 0
 811 795 801 768 791 741 c 0
 711 549 707 328 786 123 c 0
 803 80 823 43 844 2 c 1
 825 10 799 18 782 33 c 0
 754 61 713 141 692 182 c 0
 637 303 608 440 614 573 c 0
 616 627 627 680 635 733 c 1
 489 641 367 526 254 403 c 0
 248 395 238 377 225 377 c 0
 213 377 201 397 193 406 c 2
 137 465 l 2
 125 479 113 489 113 510 c 0
 111 717 113 926 113 1133 c 1
 90 1133 68 1133 49 1135 c 1
 31 1163 16 1198 0 1231 c 1
635 735 m 1
 635 731 637 733 637 735 c 1
 635 735 l 1
EndSplineSet
EndChar
StartChar: bn_dha
Encoding: 2471 2471 133
Width: 956
VWidth: 1000
Flags: HW
HStem: 1133 98
VStem: 170 88 315 203 731 113<313 905 905 905 1075 1133> 784 59
Fore
731 1343 m 1
 768 1307 803 1270 842 1235 c 1
 874 1229 918 1233 952 1229 c 1
 973 1200 985 1165 1001 1133 c 1
 844 1133 l 1
 844 2 l 1
 842 4 797 33 791 43 c 0
 782 53 786 70 784 82 c 0
 768 176 717 250 662 311 c 0
 549 432 408 514 236 565 c 0
 223 569 209 571 197 575 c 1
 164 575 158 600 145 618 c 0
 137 629 92 694 82 717 c 1
 158 766 233 819 315 862 c 1
 315 864 l 1
 213 864 168 965 170 1047 c 0
 172 1149 242 1243 346 1257 c 0
 389 1264 434 1255 469 1229 c 0
 520 1190 539 1114 494 1063 c 0
 453 1018 379 1020 340 1067 c 0
 322 1090 315 1114 315 1143 c 1
 303 1137 293 1128 283 1118 c 0
 256 1087 250 1040 272 1004 c 0
 297 961 348 938 406 930 c 0
 416 930 424 928 434 928 c 0
 457 932 481 946 502 956 c 0
 582 993 621 1006 700 1032 c 0
 711 1036 725 1038 729 1047 c 0
 733 1055 731 1067 731 1075 c 2
 731 1343 l 1
731 905 m 1
 567 850 416 768 274 684 c 1
 274 682 l 1
 461 608 621 473 729 313 c 1
 731 313 l 1
 731 905 l 1
EndSplineSet
EndChar
StartChar: bn_na
Encoding: 2472 2472 134
Width: 1058
VWidth: 1000
Flags: HW
HStem: 1133 98<70 834 70 70 946 1034 946 946>
VStem: 834 113<446 1133> 889 57<66 97>
Fore
0 1231 m 1
 1034 1231 l 1
 1057 1227 l 1
 1077 1200 1090 1165 1104 1133 c 1
 946 1133 l 1
 946 2 l 1
 944 4 899 33 893 43 c 0
 887 49 889 61 889 70 c 0
 889 125 870 201 854 250 c 0
 807 401 694 592 535 647 c 0
 510 655 485 659 459 662 c 1
 492 627 518 575 512 512 c 0
 508 479 496 449 477 422 c 0
 420 342 305 324 223 377 c 1
 160 422 129 506 152 598 c 0
 178 709 270 803 389 807 c 0
 549 813 678 690 762 567 c 0
 788 530 817 489 831 446 c 1
 834 446 l 1
 834 1133 l 1
 70 1133 l 1
 49 1135 l 1
 31 1163 16 1198 0 1231 c 1
EndSplineSet
EndChar
StartChar: bn_pa
Encoding: 2474 2474 135
Width: 1161
VWidth: 1000
Flags: HW
HStem: 1073 115 1133 98
VStem: 397 53<700 700> 936 113<125 670 670 677 840 1133>
Fore
936 1343 m 1
 973 1307 1008 1270 1047 1235 c 1
 1079 1229 1122 1233 1157 1229 c 1
 1178 1200 1190 1165 1206 1133 c 1
 1049 1133 l 1
 1049 2 l 1
 1022 18 997 37 973 55 c 0
 963 63 946 70 940 82 c 0
 932 94 936 113 936 125 c 2
 936 670 l 2
 936 684 938 700 934 715 c 0
 924 754 881 809 854 842 c 0
 846 854 836 864 823 852 c 0
 813 844 713 743 672 702 c 2
 504 539 l 1
 457 492 l 2
 451 485 442 475 432 473 c 0
 418 469 287 510 268 518 c 1
 279 532 291 545 303 557 c 0
 317 573 387 659 397 700 c 0
 399 709 399 719 399 727 c 0
 399 754 389 797 369 811 c 1
 322 852 262 811 213 797 c 0
 164 780 96 788 80 842 c 0
 68 877 80 924 90 956 c 0
 131 1077 242 1159 365 1182 c 0
 543 1212 725 1116 840 985 c 0
 872 950 915 893 934 840 c 1
 936 840 l 1
 936 1343 l 1
725 969 m 1
 635 1028 537 1087 424 1073 c 0
 375 1067 324 1044 297 999 c 0
 285 979 283 958 279 936 c 1
 383 932 451 803 451 700 c 1
 545 786 635 879 725 969 c 1
276 934 m 1
 276 930 279 932 279 934 c 1
 276 934 l 1
262 915 m 1
 262 911 264 913 264 915 c 1
 262 915 l 1
248 897 m 1
 248 893 250 895 250 897 c 1
 248 897 l 1
233 879 m 1
 233 874 236 877 236 879 c 1
 233 879 l 1
219 860 m 1
 219 856 221 858 221 860 c 1
 219 860 l 1
205 842 m 1
 205 838 207 840 207 842 c 1
 205 842 l 1
190 823 m 1
 190 819 193 821 193 823 c 1
 190 823 l 1
176 805 m 1
 176 801 178 803 178 805 c 1
 176 805 l 1
EndSplineSet
EndChar
StartChar: bn_pha
Encoding: 2475 2475 136
Width: 1263
VWidth: 1000
Flags: HW
HStem: 494 260 834 115 1133 98<385 1237 385 385>
VStem: 731 113<303 834> 786 57<66 70> 920 258
Fore
0 1231 m 1
 1237 1231 l 1
 1262 1227 l 1
 1282 1200 1294 1165 1309 1133 c 1
 385 1133 l 1
 618 860 l 1
 633 836 l 1
 559 756 479 684 403 606 c 1
 434 596 461 573 487 555 c 0
 551 510 608 455 657 397 c 0
 682 369 713 338 729 303 c 1
 731 303 l 1
 731 946 l 1
 784 946 838 950 891 944 c 0
 981 932 1065 885 1118 811 c 0
 1165 743 1221 604 1137 526 c 1
 1102 498 1051 481 999 504 c 0
 983 510 969 518 956 530 c 0
 899 588 907 688 975 733 c 0
 993 748 1036 762 1069 754 c 1
 1008 809 926 834 844 834 c 1
 844 2 l 1
 842 4 797 33 791 43 c 0
 784 49 786 61 786 70 c 0
 778 131 752 186 721 233 c 0
 643 348 522 436 391 477 c 0
 358 487 326 487 293 494 c 0
 279 496 270 508 262 518 c 2
 213 575 l 2
 207 584 193 596 193 606 c 128
 193 616 207 625 213 631 c 0
 233 649 252 670 270 688 c 2
 432 846 l 2
 455 868 479 889 500 913 c 1
 481 922 467 932 449 940 c 0
 418 952 385 963 352 975 c 0
 270 1001 162 1024 115 1094 c 0
 109 1104 104 1120 94 1128 c 0
 82 1139 61 1126 47 1137 c 0
 39 1141 6 1219 0 1231 c 1
EndSplineSet
EndChar
StartChar: bn_ba
Encoding: 2476 2476 137
Width: 956
VWidth: 1000
Flags: HW
HStem: 1133 98<68 731 68 68 844 934 844 844>
VStem: 731 113<313 905 905 905 1069 1133> 784 59
Fore
0 1231 m 1
 934 1231 l 1
 954 1227 l 1
 975 1200 987 1165 1001 1133 c 1
 844 1133 l 1
 844 2 l 1
 842 4 797 33 791 43 c 0
 782 53 786 70 784 82 c 0
 768 176 717 250 662 311 c 0
 549 432 408 514 236 565 c 0
 223 569 209 571 197 575 c 1
 164 575 158 600 145 618 c 0
 137 629 92 694 82 717 c 1
 219 809 l 1
 344 885 504 965 653 1016 c 0
 670 1022 719 1036 725 1042 c 0
 733 1049 731 1061 731 1069 c 2
 731 1133 l 1
 68 1133 l 1
 49 1135 l 1
 31 1163 16 1198 0 1231 c 1
731 905 m 1
 567 850 416 768 274 684 c 1
 274 682 l 1
 461 608 621 473 729 313 c 1
 731 313 l 1
 731 905 l 1
EndSplineSet
EndChar
StartChar: bn_bha
Encoding: 2477 2477 138
Width: 1366
VWidth: 1000
Flags: HW
HStem: 152 170 592 150 1133 98<74 1337 74 74>
VStem: 508 303
Fore
0 1231 m 1
 1337 1231 l 1
 1364 1227 l 1
 1384 1200 1397 1165 1411 1133 c 1
 74 1133 l 1
 47 1137 l 1
 29 1165 14 1198 0 1231 c 1
127 1083 m 1
 141 1077 164 1069 176 1057 c 0
 184 1049 186 1034 190 1024 c 0
 266 834 410 618 549 479 c 0
 610 418 682 360 764 334 c 0
 815 317 868 319 920 332 c 0
 1065 365 1196 481 1212 657 c 1
 1223 733 1192 768 1151 801 c 1
 1075 655 893 571 733 596 c 0
 627 612 528 690 510 799 c 0
 498 874 526 940 580 967 c 1
 670 1022 788 967 807 862 c 0
 817 813 797 772 776 743 c 1
 911 717 1047 827 1063 973 c 1
 1135 940 1188 891 1229 827 c 0
 1370 608 1255 279 1018 180 c 0
 834 106 707 178 594 281 c 1
 436 418 242 733 158 987 c 0
 145 1018 133 1051 127 1083 c 1
1128 844 m 1
 1128 840 1130 842 1130 844 c 1
 1128 844 l 1
1130 840 m 1
 1130 836 1133 838 1133 840 c 1
 1130 840 l 1
EndSplineSet
EndChar
StartChar: bn_ma
Encoding: 2478 2478 139
Width: 1058
VWidth: 1000
Flags: HW
HStem: 313 410 1135 96
VStem: 834 113<391 1133> 889 57<66 70>
Fore
0 1231 m 1
 1034 1231 l 1
 1057 1227 l 1
 1077 1200 1090 1165 1104 1133 c 1
 946 1133 l 1
 946 2 l 1
 944 4 899 33 893 43 c 0
 887 49 889 61 889 70 c 0
 879 139 862 170 836 225 c 0
 782 326 690 403 594 461 c 1
 567 383 479 293 354 317 c 0
 326 322 299 334 276 350 c 0
 174 420 160 571 246 662 c 0
 279 694 326 719 381 723 c 0
 430 725 477 713 522 696 c 1
 543 803 514 858 449 905 c 0
 391 946 322 969 258 997 c 0
 199 1022 121 1063 106 1133 c 1
 86 1133 66 1133 49 1135 c 1
 31 1163 16 1198 0 1231 c 1
834 1133 m 1
 348 1133 l 1
 373 1106 403 1083 428 1057 c 0
 508 969 610 838 639 690 c 0
 641 676 643 664 643 649 c 0
 643 612 653 614 674 594 c 0
 745 522 778 475 831 391 c 1
 834 391 l 1
 834 1133 l 1
EndSplineSet
EndChar
StartChar: bn_ya
Encoding: 2479 2479 140
Width: 1024
VWidth: 1000
Flags: HW
HStem: 1133 98<412 799 412 412 911 1001 911 911>
VStem: 799 113<293 1133> 854 57<66 70>
Fore
0 1231 m 1
 1001 1231 l 1
 1022 1227 l 1
 1042 1200 1055 1165 1069 1133 c 1
 911 1133 l 1
 911 2 l 1
 909 4 864 33 858 43 c 0
 852 49 854 61 854 70 c 0
 844 139 813 197 776 246 c 0
 690 356 561 440 426 477 c 0
 401 483 377 487 352 492 c 1
 305 492 303 496 281 518 c 2
 229 575 l 2
 221 584 205 594 207 606 c 0
 207 618 283 680 291 688 c 2
 442 827 l 2
 473 854 508 883 535 913 c 1
 457 948 469 948 389 969 c 0
 297 995 176 1016 123 1092 c 0
 117 1102 113 1120 102 1128 c 0
 88 1141 63 1126 49 1135 c 0
 39 1139 37 1153 33 1161 c 0
 20 1184 10 1208 0 1231 c 1
799 1133 m 1
 412 1133 l 1
 662 860 l 1
 676 836 l 1
 598 756 510 686 432 606 c 1
 465 592 496 571 526 551 c 0
 621 487 694 420 764 334 c 0
 776 319 786 305 799 293 c 1
 799 1133 l 1
639 860 m 1
 639 856 641 858 641 860 c 1
 639 860 l 1
643 858 m 1
 643 854 645 856 645 858 c 1
 643 858 l 1
EndSplineSet
EndChar
StartChar: bn_la
Encoding: 2482 2482 142
Width: 1228
VWidth: 1000
Flags: HW
HStem: 383 317 1133 98<68 1004 68 68 1116 1202 1116 1116>
VStem: 147 82 358 315 1004 113<127 713 713 721 862 1133>
Fore
0 1231 m 1
 1202 1231 l 1
 1227 1227 l 1
 1247 1200 1260 1165 1274 1133 c 1
 1116 1133 l 1
 1116 2 l 1
 1090 18 1065 37 1040 55 c 0
 1030 63 1014 70 1008 82 c 0
 999 94 1004 115 1004 127 c 2
 1004 713 l 2
 1004 729 1006 750 999 766 c 0
 981 807 932 872 877 889 c 0
 834 901 795 879 772 842 c 0
 739 791 731 727 731 668 c 1
 702 692 680 727 657 758 c 0
 604 825 541 889 449 887 c 0
 342 885 260 803 236 702 c 0
 207 598 262 528 326 492 c 1
 371 473 l 1
 358 512 352 547 362 586 c 0
 395 705 539 735 621 664 c 0
 700 596 690 463 602 408 c 0
 563 383 518 381 475 385 c 0
 326 399 190 487 154 623 c 0
 135 696 147 784 174 854 c 0
 201 920 248 981 317 1008 c 0
 397 1036 485 1020 557 979 c 0
 598 954 633 924 668 889 c 1
 672 977 764 1038 846 1004 c 0
 913 977 958 915 1004 862 c 1
 1004 1133 l 1
 68 1133 l 1
 47 1137 l 1
 29 1165 14 1198 0 1231 c 1
EndSplineSet
EndChar
StartChar: bn_sha
Encoding: 2486 2486 143
Width: 1228
VWidth: 1000
Flags: HW
HStem: 1077 154<63 66 63 63> 1133 98
VStem: 145 715 1006 111
Fore
1004 1343 m 1
 1040 1307 1075 1270 1114 1235 c 1
 1147 1229 1190 1233 1225 1229 c 1
 1245 1200 1257 1165 1274 1133 c 1
 1116 1133 l 1
 1116 2 l 1
 1090 18 1065 39 1038 57 c 0
 1028 63 1012 72 1006 84 c 0
 999 100 1004 125 1004 141 c 2
 1004 856 l 2
 1004 899 1006 913 983 936 c 2
 936 983 l 2
 903 1016 838 1085 774 1096 c 1
 700 1102 641 1044 623 985 c 1
 705 981 786 899 823 840 c 0
 842 811 860 776 860 741 c 0
 862 664 784 621 715 616 c 0
 629 612 543 657 504 737 c 1
 483 705 463 676 430 655 c 0
 336 592 197 608 154 696 c 1
 137 737 150 780 168 817 c 0
 199 872 246 924 299 954 c 0
 326 971 352 983 383 985 c 1
 377 997 371 1010 360 1020 c 0
 303 1090 201 1081 119 1077 c 2
 63 1077 l 1
 0 1231 l 1
 131 1231 281 1227 381 1133 c 0
 410 1104 430 1071 451 1036 c 1
 471 1098 516 1161 573 1192 c 0
 618 1219 676 1237 729 1229 c 0
 768 1225 805 1200 838 1178 c 0
 897 1135 952 1085 1004 1034 c 1
 1004 1343 l 1
EndSplineSet
EndChar
StartChar: bn_Sha
Encoding: 2487 2487 144
Width: 1024
VWidth: 1000
Flags: HW
HStem: 1133 98<412 799 412 412 911 1001 911 911>
VStem: 799 113<713 1133> 854 57<66 70>
Fore
0 1231 m 1
 1001 1231 l 1
 1022 1227 l 1
 1042 1200 1055 1165 1069 1133 c 1
 911 1133 l 1
 911 2 l 1
 909 4 864 33 858 43 c 0
 852 49 854 61 854 70 c 0
 844 139 813 197 776 246 c 0
 690 356 561 440 426 477 c 0
 401 483 377 487 352 492 c 1
 305 492 303 496 281 518 c 2
 223 582 l 2
 215 590 201 600 201 612 c 0
 201 623 215 633 223 639 c 0
 252 668 424 823 494 885 c 0
 508 899 522 911 535 926 c 1
 489 944 449 963 401 975 c 0
 311 997 174 1016 123 1094 c 0
 117 1104 113 1120 102 1128 c 0
 88 1141 63 1126 49 1135 c 0
 39 1139 37 1153 33 1161 c 0
 20 1184 10 1208 0 1231 c 1
799 1133 m 1
 412 1133 l 1
 745 768 l 1
 799 713 l 1
 799 1133 l 1
541 922 m 1
 541 918 543 920 543 922 c 1
 541 922 l 1
575 901 m 1
 575 897 578 899 578 901 c 1
 575 901 l 1
610 881 m 1
 610 877 612 879 612 881 c 1
 610 881 l 1
645 860 m 1
 645 856 647 858 647 860 c 1
 645 860 l 1
635 793 m 1
 565 733 498 670 430 606 c 1
 549 532 668 438 758 332 c 0
 770 315 782 297 799 283 c 1
 797 391 803 508 797 612 c 1
 748 678 688 731 635 793 c 1
EndSplineSet
EndChar
StartChar: bn_sa
Encoding: 2488 2488 145
Width: 1193
VWidth: 1000
Flags: HW
HStem: 745 166 1133 98<475 969 475 475 1081 1167 1081 1081>
VStem: 971 111
Fore
0 1231 m 1
 1167 1231 l 1
 1192 1227 l 1
 1212 1200 1225 1165 1239 1133 c 1
 1081 1133 l 1
 1081 2 l 1
 1055 18 1030 39 1004 57 c 0
 993 63 977 72 971 84 c 0
 967 96 969 113 969 125 c 2
 969 590 l 2
 969 631 969 637 950 662 c 0
 922 707 858 762 791 741 c 0
 762 733 737 711 717 690 c 0
 639 612 580 518 506 436 c 0
 492 420 434 356 391 356 c 0
 371 356 352 377 338 389 c 0
 279 438 213 506 162 567 c 0
 150 582 137 598 133 616 c 1
 186 639 l 1
 213 604 248 575 281 547 c 0
 293 539 307 522 324 522 c 0
 336 520 352 526 362 532 c 0
 414 557 487 639 526 684 c 0
 537 696 555 711 559 727 c 0
 563 737 559 750 559 760 c 0
 543 889 461 985 348 1012 c 0
 303 1020 258 1016 213 1030 c 0
 182 1042 152 1061 131 1087 c 0
 121 1100 115 1118 102 1128 c 0
 88 1141 63 1126 49 1135 c 0
 39 1139 37 1153 33 1161 c 0
 20 1184 10 1208 0 1231 c 1
969 1133 m 1
 475 1133 l 1
 489 1106 510 1081 526 1055 c 0
 573 975 612 879 614 784 c 1
 627 795 637 807 647 817 c 0
 672 842 733 907 786 911 c 1
 887 911 930 842 967 774 c 1
 969 774 l 1
 969 1133 l 1
801 825 m 1
 801 821 803 823 803 825 c 1
 801 825 l 1
811 750 m 1
 811 745 813 748 813 750 c 1
 811 750 l 1
EndSplineSet
EndChar
StartChar: bn_ha
Encoding: 2489 2489 146
Width: 989
VWidth: 1000
Flags: HW
HStem: 909 117 1133 98<551 967 551 551>
VStem: 842 74
Fore
0 1231 m 1
 967 1231 l 1
 987 1227 l 1
 1008 1200 1020 1165 1034 1133 c 1
 551 1133 l 1
 557 1110 565 1087 567 1065 c 0
 569 1057 567 1040 573 1032 c 0
 580 1026 596 1026 604 1026 c 0
 707 1008 793 979 858 911 c 0
 913 852 922 774 909 696 c 0
 889 553 772 410 629 362 c 1
 629 360 l 1
 659 348 766 270 797 248 c 0
 868 190 938 129 999 61 c 0
 1063 -8 1059 0 1098 -70 c 0
 1110 -92 1124 -115 1137 -139 c 1
 1118 -123 1104 -104 1087 -86 c 0
 928 88 680 240 406 297 c 0
 373 305 340 311 307 315 c 0
 293 317 272 315 260 324 c 0
 252 332 227 379 219 393 c 0
 188 453 154 506 125 567 c 1
 190 553 258 532 322 510 c 0
 397 481 410 459 485 475 c 1
 649 494 803 594 836 741 c 0
 844 782 848 827 817 860 c 0
 762 915 653 915 557 905 c 1
 553 864 539 823 518 786 c 0
 502 752 477 721 442 700 c 0
 358 651 246 686 209 778 c 0
 203 795 199 811 199 829 c 0
 199 936 268 983 346 1010 c 0
 389 1026 434 1034 481 1034 c 1
 469 1104 l 1
 453 1128 l 1
 332 1141 180 1124 49 1135 c 1
 31 1163 16 1198 0 1231 c 1
EndSplineSet
EndChar
StartChar: bn_nukta
Encoding: 2492 2492 147
Width: 883
VWidth: 1000
Flags: HW
Fore
518 -5 m 28
 588.6 -4.04395 646.188 -64.4277 644 -135 c 28
 641.972 -200.396 585.381 -250.491 520 -248 c 28
 455.212 -245.531 406.419 -191.834 406 -127 c 28
 405.582 -62.4121 453.416 -5.875 518 -5 c 28
EndSplineSet
EndChar
StartChar: bn_aakaar
Encoding: 2494 2494 148
Width: 477
VWidth: 1000
Flags: HW
HStem: 1133 98<138 158 270 438 270 270>
VStem: 158 113<356 1133>
Fore
0 1231 m 1
 438 1231 l 1
 475 1227 l 1
 496 1200 508 1165 522 1133 c 1
 270 1133 l 1
 270 2 l 1
 233 29 197 53 162 82 c 1
 152 164 162 266 158 356 c 1
 158 1133 l 1
 119 1133 80 1130 47 1137 c 1
 29 1165 14 1198 0 1231 c 1
EndSplineSet
EndChar
StartChar: bn_ikaar
Encoding: 2495 2495 149
Width: 477
VWidth: 1000
Flags: HW
HStem: 1133 98<295 440 440 459 295 295>
VStem: 182 113<356 1133>
Fore
137 1231 m 1
 70 1296 -23 1368 -35 1487 c 0
 -39 1552 -2 1614 45 1657 c 0
 147 1747 317 1806 498 1812 c 0
 537 1815 575 1817 614 1812 c 0
 862 1782 1116 1620 1257 1450 c 0
 1260 1446 1313 1391 1309 1366 c 0
 1307 1356 1296 1358 1288 1360 c 0
 1247 1376 1214 1434 1188 1466 c 0
 1157 1501 1120 1530 1083 1556 c 0
 967 1640 825 1704 682 1720 c 0
 637 1724 594 1722 549 1718 c 0
 373 1706 184 1645 94 1526 c 0
 68 1489 49 1442 61 1395 c 0
 74 1341 121 1305 160 1270 c 0
 197 1233 203 1231 258 1231 c 2
 440 1231 l 2
 477 1231 479 1227 492 1202 c 0
 502 1180 514 1157 522 1133 c 1
 295 1133 l 1
 295 2 l 1
 258 29 221 53 186 82 c 1
 176 164 186 266 182 356 c 1
 182 1133 l 1
 135 1133 88 1130 47 1137 c 1
 29 1165 14 1198 0 1231 c 1
 137 1231 l 1
EndSplineSet
EndChar
StartChar: bn_iikaar
Encoding: 2496 2496 150
Width: 409
VWidth: 1000
Flags: HW
HStem: 1133 98<184 184 315 375 375 380>
VStem: 184 113<356 1133>
Fore
-168 1231 m 1
 -145 1255 -141 1307 -168 1329 c 0
 -201 1358 -262 1378 -309 1389 c 0
 -459 1423 -629 1380 -756 1485 c 0
 -813 1534 -856 1604 -836 1681 c 0
 -819 1745 -768 1786 -709 1810 c 0
 -608 1853 -492 1849 -385 1833 c 0
 -111 1794 172 1595 260 1319 c 0
 266 1300 276 1243 283 1237 c 0
 289 1227 305 1231 315 1231 c 2
 375 1231 l 2
 385 1231 395 1233 406 1229 c 0
 418 1223 449 1149 455 1133 c 1
 297 1133 l 1
 297 2 l 1
 260 29 223 53 188 82 c 1
 178 164 188 266 184 356 c 1
 184 1133 l 1
 84 1135 -25 1128 -121 1135 c 1
 -133 1159 -150 1182 -164 1204 c 1
 -168 1231 l 1
195 1231 m 1
 195 1325 168 1399 133 1464 c 0
 35 1647 -180 1729 -375 1749 c 0
 -469 1757 -571 1749 -657 1704 c 0
 -715 1675 -758 1618 -750 1550 c 0
 -745 1524 -715 1518 -692 1513 c 0
 -657 1505 -621 1501 -584 1499 c 0
 -393 1499 -244 1464 -137 1358 c 0
 -100 1321 -72 1282 -59 1231 c 1
 195 1231 l 1
EndSplineSet
EndChar
StartChar: bn_ukaar
Encoding: 2497 2497 151
Width: 0
VWidth: 1000
Flags: HW
HStem: -281 68
Fore
-225 82 m 1
 -188 55 -150 29 -115 0 c 1
 -113 -53 -129 -88 -137 -131 c 1
 -98 -160 -61 -190 -25 -221 c 1
 223 -406 l 1
 223 -408 l 1
 197 -408 172 -408 147 -406 c 1
 41 -332 -57 -250 -160 -172 c 1
 -180 -221 -236 -264 -291 -276 c 0
 -389 -301 -514 -250 -541 -145 c 0
 -551 -113 -549 -76 -535 -43 c 0
 -508 27 -428 76 -352 63 c 0
 -301 55 -266 14 -233 -23 c 1
 -225 82 l 1
-250 -98 m 1
 -281 -84 -338 -51 -389 -63 c 1
 -457 -63 -496 -147 -442 -193 c 0
 -414 -217 -373 -221 -340 -205 c 0
 -305 -190 -266 -135 -250 -98 c 1
EndSplineSet
EndChar
StartChar: bn_uukaar
Encoding: 2498 2498 152
Width: 0
VWidth: 1000
Flags: HW
HStem: -295 96 4 74
Fore
-31 -154 m 1
 -45 -182 -72 -207 -98 -227 c 0
 -170 -283 -266 -309 -354 -289 c 0
 -426 -270 -492 -223 -502 -145 c 0
 -518 -31 -383 63 -256 78 c 1
 -221 86 -209 74 -190 57 c 1
 -166 41 -137 25 -115 2 c 1
 -193 2 -283 18 -352 -25 c 0
 -393 -49 -426 -98 -399 -145 c 0
 -387 -168 -375 -174 -354 -186 c 1
 -287 -215 -203 -190 -143 -154 c 0
 -129 -143 -115 -131 -100 -121 c 0
 -90 -111 -82 -102 -68 -100 c 2
 -27 -100 l 2
 8 -100 12 -113 31 -131 c 2
 94 -199 l 2
 160 -270 229 -334 293 -408 c 1
 266 -408 240 -408 215 -406 c 1
 129 -326 51 -238 -31 -154 c 1
EndSplineSet
EndChar
StartChar: bn_rikaar
Encoding: 2499 2499 153
Width: 0
VWidth: 1000
Flags: HW
Fore
-332 -152 m 1
 -317 -158 -37 -336 -6 -356 c 0
 16 -373 33 -397 39 -424 c 0
 41 -436 43 -451 31 -459 c 0
 20 -467 6 -459 -4 -453 c 2
 -84 -401 l 1
 -84 -401 -420 -190 -434 -178 c 0
 -446 -166 -485 -121 -465 -86 c 0
 -455 -72 -430 -63 -414 -53 c 2
 -295 12 l 1
 -238 45 l 2
 -221 53 -209 61 -190 51 c 0
 -168 41 -152 12 -145 -12 c 0
 -137 -59 -180 -68 -209 -84 c 2
 -332 -152 l 1
EndSplineSet
EndChar
StartChar: bn_rrikaar
Encoding: 2500 2500 154
Width: 0
VWidth: 1000
Flags: HW
Fore
-349 68 m 1
 -334 62 -303 40 -272 20 c 4
 -250 3 -278 47 -272 20 c 0
 -270 8 -283 20 -295 12 c 0
 -306 4 -312 -6 -322 0 c 2
 -354 -20 l 1
 -354 -20 -437 30 -451 42 c 0
 -463 54 -502 99 -482 134 c 0
 -472 148 -447 157 -431 167 c 2
 -312 232 l 1
 -255 265 l 2
 -238 273 -226 281 -207 271 c 0
 -185 261 -169 232 -162 208 c 0
 -154 161 -197 152 -226 136 c 2
 -349 68 l 1
-332 -152 m 1
 -317 -158 -37 -336 -6 -356 c 0
 16 -373 33 -397 39 -424 c 0
 41 -436 43 -451 31 -459 c 0
 20 -467 6 -459 -4 -453 c 2
 -84 -401 l 1
 -84 -401 -420 -190 -434 -178 c 0
 -446 -166 -485 -121 -465 -86 c 0
 -455 -72 -430 -63 -414 -53 c 2
 -295 12 l 1
 -238 45 l 2
 -221 53 -209 61 -190 51 c 0
 -168 41 -152 12 -145 -12 c 0
 -137 -59 -180 -68 -209 -84 c 2
 -332 -152 l 1
EndSplineSet
EndChar
StartChar: bn_ekaar
Encoding: 2503 2503 155
Width: 546
VWidth: 1000
Flags: HW
HStem: 2 305 1133 96
VStem: 84 80
Fore
0 1231 m 1
 180 1229 369 1235 545 1229 c 1
 563 1200 578 1165 592 1133 c 1
 528 1133 l 2
 483 1133 475 1126 444 1108 c 0
 301 1022 193 868 168 692 c 0
 154 567 172 397 211 297 c 0
 221 270 236 242 256 223 c 1
 287 307 401 330 473 287 c 0
 557 240 567 123 512 57 c 0
 451 -18 332 -8 258 41 c 0
 131 127 88 346 84 537 c 1
 74 750 119 926 207 1061 c 0
 221 1085 238 1108 254 1133 c 1
 66 1133 l 1
 47 1137 l 1
 29 1165 14 1198 0 1231 c 1
EndSplineSet
EndChar
StartChar: bn_aikaar
Encoding: 2504 2504 156
Width: 546
VWidth: 1000
Flags: HW
HStem: 2 305 1133 98<66 254 66 66>
VStem: 84 80
Fore
461 1231 m 1
 442 1307 358 1350 287 1360 c 0
 264 1364 240 1362 217 1364 c 0
 92 1372 -35 1434 -45 1573 c 0
 -47 1608 -43 1647 -29 1679 c 0
 -23 1692 -14 1710 0 1710 c 0
 29 1710 33 1653 31 1626 c 1
 23 1589 25 1597 39 1575 c 1
 80 1534 158 1513 221 1507 c 0
 246 1505 270 1507 295 1503 c 0
 426 1485 522 1386 522 1231 c 1
 545 1227 l 1
 565 1200 578 1165 592 1133 c 1
 528 1133 l 2
 483 1133 475 1126 444 1108 c 0
 301 1022 193 868 168 692 c 0
 154 567 172 397 211 297 c 0
 221 270 236 242 256 223 c 1
 287 307 401 330 473 287 c 0
 557 240 567 123 512 57 c 0
 451 -18 332 -8 258 41 c 0
 131 127 88 346 84 537 c 1
 74 750 119 926 207 1061 c 0
 221 1085 238 1108 254 1133 c 1
 66 1133 l 1
 47 1137 l 1
 29 1165 14 1198 0 1231 c 1
 461 1231 l 1
EndSplineSet
EndChar
StartChar: bn_okaar
Encoding: 2507 2507 157
Width: 477
VWidth: 1000
Flags: HW
HStem: 2 305 1133 96
VStem: 84 80
Fore
-754 1234 m 1
 -574 1232 -385 1238 -209 1232 c 1
 -191 1203 -176 1168 -162 1136 c 1
 -226 1136 l 2
 -271 1136 -279 1129 -310 1111 c 0
 -453 1025 -561 871 -586 695 c 0
 -600 570 -582 400 -543 300 c 0
 -533 273 -518 245 -498 226 c 1
 -467 310 -353 333 -281 290 c 0
 -197 243 -187 126 -242 60 c 0
 -303 -15 -422 -5 -496 44 c 0
 -623 130 -666 349 -670 540 c 1
 -680 753 -635 929 -547 1064 c 0
 -533 1088 -516 1111 -500 1136 c 1
 -688 1136 l 1
 -707 1140 l 1
 -725 1168 -740 1201 -754 1234 c 1
0 1231 m 1
 438 1231 l 1
 475 1227 l 1
 496 1200 508 1165 522 1133 c 1
 270 1133 l 1
 270 2 l 1
 233 29 197 53 162 82 c 1
 152 164 162 266 158 356 c 1
 158 1133 l 1
 119 1133 80 1130 47 1137 c 1
 29 1165 14 1198 0 1231 c 1
EndSplineSet
EndChar
StartChar: bn_aukaar
Encoding: 2508 2508 158
Width: 477
VWidth: 1000
Flags: HW
HStem: 1133 98<130 147 262 265 262 262> 1364 143<-184 -123>
VStem: 147 115<360 1133>
Fore
174 1231 m 5
 152 1300 61 1335 -8 1350 c 4
 -45 1358 -84 1362 -123 1364 c 6
 -190 1364 l 5
 -328 1372 -530 1399 -549 1546 c 5
 -557 1587 -553 1634 -537 1673 c 4
 -532 1686 -524 1706 -510 1710 c 4
 -496 1712 -487 1696 -483 1686 c 4
 -475 1665 -475 1642 -477 1622 c 4
 -477 1612 -483 1602 -479 1591 c 5
 -463 1569 -422 1552 -395 1542 c 4
 -328 1520 -256 1511 -184 1507 c 6
 -117 1507 l 5
 74 1499 236 1432 236 1231 c 5
 295 1231 354 1233 408 1227 c 5
 428 1200 440 1165 455 1133 c 5
 262 1133 l 5
 262 2 l 5
 225 29 186 53 152 82 c 5
 141 164 152 270 147 360 c 5
 147 1133 l 5
 113 1133 76 1130 47 1137 c 5
 29 1165 14 1198 0 1231 c 5
 174 1231 l 5
-754 1234 m 1
 -574 1232 -385 1238 -209 1232 c 1
 -191 1203 -176 1168 -162 1136 c 1
 -226 1136 l 2
 -271 1136 -279 1129 -310 1111 c 0
 -453 1025 -561 871 -586 695 c 0
 -600 570 -582 400 -543 300 c 0
 -533 273 -518 245 -498 226 c 1
 -467 310 -353 333 -281 290 c 0
 -197 243 -187 126 -242 60 c 0
 -303 -15 -422 -5 -496 44 c 0
 -623 130 -666 349 -670 540 c 1
 -680 753 -635 929 -547 1064 c 0
 -533 1088 -516 1111 -500 1136 c 1
 -688 1136 l 1
 -707 1140 l 1
 -725 1168 -740 1201 -754 1234 c 1
EndSplineSet
EndChar
StartChar: bn_hasanta
Encoding: 2509 2509 159
Width: 0
VWidth: 1000
Flags: HW
Fore
-170 2 m 1
 -98 -78 l 1
 23 -219 l 1
 78 -281 133 -342 184 -408 c 1
 111 -379 l 1
 -33 -268 l 1
 -258 -90 l 1
 -229 -57 -201 -29 -170 2 c 1
EndSplineSet
EndChar
StartChar: bn_auMark
Encoding: 2519 2519 160
Width: 409
VWidth: 1000
Flags: HW
HStem: 1133 98<130 147 262 265 262 262> 1364 143<-184 -123>
VStem: 147 115<360 1133>
Fore
174 1231 m 1
 152 1300 61 1335 -8 1350 c 0
 -45 1358 -84 1362 -123 1364 c 2
 -190 1364 l 1
 -328 1372 -530 1399 -549 1546 c 1
 -557 1587 -553 1634 -537 1673 c 0
 -532 1686 -524 1706 -510 1710 c 0
 -496 1712 -487 1696 -483 1686 c 0
 -475 1665 -475 1642 -477 1622 c 0
 -477 1612 -483 1602 -479 1591 c 1
 -463 1569 -422 1552 -395 1542 c 0
 -328 1520 -256 1511 -184 1507 c 2
 -117 1507 l 1
 74 1499 236 1432 236 1231 c 1
 295 1231 354 1233 408 1227 c 1
 428 1200 440 1165 455 1133 c 1
 262 1133 l 1
 262 2 l 1
 225 29 186 53 152 82 c 1
 141 164 152 270 147 360 c 1
 147 1133 l 1
 113 1133 76 1130 47 1137 c 1
 29 1165 14 1198 0 1231 c 1
 174 1231 l 1
EndSplineSet
EndChar
StartChar: bn_lli
Encoding: 2529 2529 165
Width: 1009
VWidth: 1000
Flags: HW
Fore
544.818 474.086 m 0
 544.818 397.675 675.312 375.244 724.992 354.969 c 1
 804.48 322.021 881.318 276.402 881.318 197.836 c 0
 881.318 152.217 870.058 128.773 844.225 98.9951 c 0
 791.895 42.6045 738.24 -2.38184 672 -48 c 1
 672 -48 669.351 5.22168 653.453 43.2373 c 0
 629.606 102.796 591.187 145.247 534.883 160.453 c 1
 546.145 150.95 571.315 134.476 571.315 91.3916 c 8
 571.315 39.6523 510.374 0.15332 470.631 0.15332 c 0
 428.898 0.15332 377.895 38.1689 377.895 104.063 c 8
 377.895 174.528 433.021 230.259 506.4 236.486 c 24
 604.338 244.799 693.196 147.782 707.77 91.3916 c 1
 748.838 131.941 783.283 169.958 783.283 202.904 c 0
 783.283 266.316 615.696 290.342 555.418 329.625 c 0
 512.362 357.504 463.053 389.195 460.032 471.551 c 0
 457.383 543.782 530.246 604.607 530.246 604.607 c 1
 624.307 585.6 l 0
 619.671 578.63 544.818 539.98 544.818 474.086 c 0
299.52 1141.28 m 0
 299.52 1035.15 480.76 1004 549.76 975.84 c 1
 660.16 930.08 766.88 866.72 766.88 757.6 c 0
 766.88 694.24 751.24 661.68 715.36 620.32 c 0
 642.68 542 568.16 479.52 476.16 416.16 c 1
 476.16 416.16 472.48 490.08 450.4 542.88 c 0
 417.28 625.6 363.92 684.56 285.72 705.68 c 1
 301.36 692.48 336.32 669.6 336.32 609.76 c 8
 336.32 537.9 251.68 483.04 196.48 483.04 c 0
 138.52 483.04 67.6797 535.84 67.6797 627.36 c 8
 67.6797 725.228 144.245 802.631 246.16 811.28 c 24
 382.186 822.825 505.6 688.08 525.84 609.76 c 1
 582.88 666.08 630.72 718.88 630.72 764.64 c 0
 630.72 852.711 397.96 886.08 314.24 940.64 c 0
 254.44 979.36 185.956 1023.38 181.76 1137.76 c 0
 178.08 1238.08 279.28 1322.56 279.28 1322.56 c 1
 409.92 1296.16 l 0
 403.48 1286.48 299.52 1232.8 299.52 1141.28 c 0
EndSplineSet
EndChar
StartChar: bn_likaar
Encoding: 2530 2530 166
Width: 223
VWidth: 1000
Flags: HW
Fore
-304.182 129.086 m 0
 -304.182 52.6748 -173.688 30.2441 -124.008 9.96875 c 1
 -44.5195 -22.9785 32.3184 -68.5977 32.3184 -147.164 c 0
 32.3184 -192.783 21.0576 -216.227 -4.77539 -246.005 c 0
 -57.1055 -302.396 -110.76 -347.382 -177 -393 c 1
 -177 -393 -179.649 -339.778 -195.547 -301.763 c 0
 -219.394 -242.204 -257.813 -199.753 -314.117 -184.547 c 1
 -302.855 -194.05 -277.685 -210.524 -277.685 -253.608 c 8
 -277.685 -305.348 -338.626 -344.847 -378.369 -344.847 c 0
 -420.102 -344.847 -471.105 -306.831 -471.105 -240.937 c 8
 -471.105 -170.472 -415.979 -114.741 -342.6 -108.514 c 24
 -244.662 -100.201 -155.804 -197.218 -141.23 -253.608 c 1
 -100.162 -213.059 -65.7168 -175.042 -65.7168 -142.096 c 0
 -65.7168 -78.6836 -233.304 -54.6582 -293.582 -15.375 c 0
 -336.638 12.5039 -385.947 44.1953 -388.968 126.551 c 0
 -391.617 198.782 -318.754 259.607 -318.754 259.607 c 1
 -224.693 240.6 l 0
 -229.329 233.63 -304.182 194.98 -304.182 129.086 c 0
EndSplineSet
EndChar
StartChar: bn_llikaar
Encoding: 2531 2531 167
Width: 520
VWidth: 1000
Flags: HW
Fore
199.818 237.086 m 0
 199.818 160.675 330.312 138.244 379.992 117.969 c 1
 459.48 85.0215 536.318 39.4023 536.318 -39.1641 c 0
 536.318 -84.7832 525.058 -108.227 499.225 -138.005 c 0
 446.895 -194.396 393.24 -239.382 327 -285 c 1
 327 -285 324.351 -231.778 308.453 -193.763 c 0
 284.606 -134.204 246.187 -91.7529 189.883 -76.5469 c 1
 201.145 -86.0498 226.315 -102.524 226.315 -145.608 c 8
 226.315 -197.348 165.374 -236.847 125.631 -236.847 c 0
 83.8984 -236.847 32.8945 -198.831 32.8945 -132.937 c 8
 32.8945 -62.4717 88.0215 -6.74121 161.4 -0.513672 c 24
 259.338 7.79883 348.196 -89.2178 362.77 -145.608 c 1
 403.838 -105.059 438.283 -67.042 438.283 -34.0957 c 0
 438.283 29.3164 270.696 53.3418 210.418 92.625 c 0
 167.362 120.504 118.053 152.195 115.032 234.551 c 0
 112.383 306.782 185.246 367.607 185.246 367.607 c 1
 279.307 348.6 l 0
 274.671 341.63 199.818 302.98 199.818 237.086 c 0
-133.182 102.086 m 0
 -133.182 25.6748 -2.68848 3.24414 46.9922 -17.0312 c 1
 126.48 -49.9785 203.318 -95.5977 203.318 -174.164 c 0
 203.318 -219.783 192.058 -243.227 166.225 -273.005 c 0
 113.895 -329.396 60.2402 -374.382 -6 -420 c 1
 -6 -420 -8.64941 -366.778 -24.5469 -328.763 c 0
 -48.3936 -269.204 -86.8135 -226.753 -143.117 -211.547 c 1
 -131.855 -221.05 -106.685 -237.524 -106.685 -280.608 c 8
 -106.685 -332.348 -167.626 -371.847 -207.369 -371.847 c 0
 -249.102 -371.847 -300.105 -333.831 -300.105 -267.937 c 8
 -300.105 -197.472 -244.979 -141.741 -171.6 -135.514 c 24
 -73.6621 -127.201 15.1963 -224.218 29.7695 -280.608 c 1
 70.8379 -240.059 105.283 -202.042 105.283 -169.096 c 0
 105.283 -105.684 -62.3037 -81.6582 -122.582 -42.375 c 0
 -165.638 -14.4961 -214.947 17.1953 -217.968 99.5508 c 0
 -220.617 171.782 -147.754 232.607 -147.754 232.607 c 1
 -53.6934 213.6 l 0
 -58.3291 206.63 -133.182 167.98 -133.182 102.086 c 0
EndSplineSet
EndChar
StartChar: bn_shunya
Encoding: 2534 2534 168
Width: 1091
VWidth: 1000
Flags: HW
Fore
180 881 m 0
 270 1012 465 1110 672 1049 c 0
 784 1016 879 940 934 848 c 0
 1030 688 1016 479 897 334 c 0
 801 215 604 119 399 190 c 1
 182 262 45 510 111 737 c 0
 125 788 150 838 180 881 c 0
614 895 m 0
 559 889 506 868 461 838 c 0
 377 782 305 698 279 600 c 0
 231 442 348 330 473 338 c 0
 530 342 584 365 631 395 c 0
 715 451 786 535 813 633 c 0
 862 795 741 903 614 895 c 0
EndSplineSet
EndChar
StartChar: bn_ek
Encoding: 2535 2535 169
Width: 1091
VWidth: 1000
Flags: HW
VStem: 197 238
Fore
750 289 m 1
 774 340 795 383 786 455 c 0
 766 606 623 690 502 758 c 1
 401 821 217 901 199 1073 c 0
 195 1108 197 1143 215 1174 c 0
 258 1239 356 1245 406 1186 c 0
 434 1151 442 1104 426 1063 c 0
 420 1049 406 1034 403 1020 c 0
 403 1001 428 963 436 950 c 0
 512 844 629 778 725 694 c 0
 786 639 842 571 856 487 c 0
 862 451 860 412 856 375 c 0
 836 244 760 125 649 53 c 0
 621 33 588 14 555 4 c 0
 485 -20 383 -29 332 39 c 1
 317 61 309 80 309 113 c 0
 309 131 313 150 319 166 c 0
 350 254 432 317 518 346 c 0
 545 356 573 362 602 362 c 0
 655 362 725 346 745 289 c 1
 750 289 l 1
EndSplineSet
EndChar
StartChar: bn_dui
Encoding: 2536 2536 170
Width: 1091
VWidth: 1000
Flags: HW
VStem: 295 236 788 72
Fore
145 641 m 1
 188 621 227 592 268 567 c 0
 285 557 301 545 319 535 c 0
 401 500 518 481 625 502 c 0
 709 516 813 567 784 678 c 0
 782 694 776 713 766 727 c 0
 686 868 436 870 332 997 c 1
 283 1061 276 1171 356 1212 c 0
 442 1255 539 1190 530 1098 c 0
 528 1083 524 1069 518 1055 c 0
 514 1047 506 1036 506 1026 c 0
 506 1012 539 977 547 969 c 0
 631 885 754 848 825 750 c 0
 899 647 848 506 752 434 c 0
 713 406 668 385 621 369 c 0
 600 362 582 360 561 354 c 1
 582 344 659 272 682 254 c 0
 756 188 911 37 989 -59 c 0
 1004 -76 1020 -90 1030 -109 c 0
 1040 -127 1049 -152 1055 -172 c 1
 1032 -158 1014 -139 993 -121 c 2
 889 -37 l 2
 715 100 489 260 279 375 c 0
 242 393 246 391 231 422 c 1
 145 641 l 1
EndSplineSet
EndChar
StartChar: bn_tin
Encoding: 2537 2537 171
Width: 1091
VWidth: 1000
Flags: HW
HStem: 139 160
VStem: 920 76
Fore
621 950 m 1
 655 924 682 879 686 825 c 0
 692 770 666 719 637 690 c 0
 580 631 485 621 416 664 c 0
 395 676 379 692 365 711 c 0
 301 799 336 934 408 1006 c 0
 518 1116 709 1104 829 997 c 1
 903 928 948 844 975 735 c 0
 1030 524 973 336 860 229 c 0
 772 145 627 106 512 164 c 1
 418 207 348 297 295 383 c 0
 184 559 137 723 55 909 c 0
 45 934 35 958 25 985 c 1
 61 973 86 967 100 936 c 0
 158 819 133 874 184 764 c 0
 254 608 348 365 535 311 c 0
 641 281 735 305 797 354 c 0
 920 449 944 612 903 754 c 0
 879 846 809 961 680 961 c 0
 659 961 639 956 621 950 c 1
EndSplineSet
EndChar
StartChar: bn_chaar
Encoding: 2538 2538 172
Width: 1091
VWidth: 1000
Flags: HW
VStem: 207 121 764 123 788 121
Fore
442 590 m 1
 358 618 285 684 242 756 c 0
 205 819 195 913 227 991 c 0
 281 1110 412 1176 537 1182 c 0
 664 1186 803 1133 862 1014 c 1
 893 944 895 874 866 805 c 1
 834 735 762 670 690 637 c 1
 711 625 733 614 754 602 c 0
 825 557 930 451 909 309 c 0
 891 203 829 139 748 96 c 0
 559 2 340 61 250 182 c 1
 188 260 195 379 262 461 c 0
 291 496 328 522 367 545 c 0
 391 559 416 578 442 586 c 1
 442 590 l 1
518 1120 m 0
 379 1108 283 971 342 838 c 1
 387 748 479 719 571 682 c 0
 582 680 592 674 602 674 c 0
 616 674 651 705 662 711 c 0
 717 756 760 819 764 891 c 1
 764 1038 647 1130 518 1120 c 0
530 551 m 0
 518 551 506 541 496 535 c 0
 416 489 340 434 328 326 c 1
 322 205 432 117 547 111 c 0
 649 104 762 166 784 272 c 0
 788 289 788 307 788 324 c 0
 776 449 666 498 565 539 c 0
 555 545 543 549 530 551 c 0
EndSplineSet
EndChar
StartChar: bn_paanch
Encoding: 2539 2539 173
Width: 1091
VWidth: 1000
Flags: HW
HStem: 59 59
VStem: 111 98
Fore
848 113 m 1
 606 -8 256 78 143 332 c 1
 102 418 98 535 125 643 c 0
 152 764 211 879 297 969 c 0
 410 1087 563 1165 727 1182 c 1
 727 1096 729 1008 780 934 c 0
 834 858 877 840 965 813 c 1
 965 811 l 1
 924 807 881 791 844 772 c 0
 721 711 629 596 596 463 c 0
 580 399 569 326 602 266 c 0
 625 227 659 197 702 182 c 0
 719 176 739 178 756 172 c 0
 768 168 834 125 848 113 c 1
569 1010 m 1
 524 991 481 971 440 942 c 0
 334 866 254 754 223 627 c 0
 188 489 209 342 305 236 c 0
 348 188 403 154 469 133 c 0
 522 117 573 119 629 123 c 1
 616 141 596 154 580 168 c 0
 553 195 530 223 512 254 c 0
 432 391 449 578 549 700 c 0
 580 739 627 776 674 801 c 0
 684 805 692 807 700 815 c 1
 618 842 569 928 569 1010 c 1
EndSplineSet
EndChar
StartChar: bn_chhoi
Encoding: 2540 2540 174
Width: 1091
VWidth: 1000
Flags: HW
HStem: 113 147 940 238
VStem: 944 61
Fore
358 942 m 1
 311 936 279 950 254 975 c 0
 207 1026 211 1114 268 1155 c 0
 340 1206 428 1165 451 1096 c 0
 463 1053 477 838 483 778 c 0
 489 733 485 668 522 647 c 0
 561 623 631 686 651 705 c 0
 678 727 702 750 725 776 c 0
 762 817 799 858 813 911 c 1
 844 891 872 866 897 838 c 0
 1038 676 1042 428 913 258 c 0
 838 158 717 90 547 121 c 0
 276 174 180 539 100 784 c 1
 51 918 l 2
 43 940 33 963 25 985 c 1
 33 983 76 967 84 958 c 0
 90 952 92 944 96 936 c 2
 113 895 l 2
 168 750 231 561 324 436 c 0
 365 377 418 324 483 293 c 0
 637 219 846 272 922 432 c 0
 977 553 934 645 874 715 c 1
 872 715 l 1
 842 676 713 580 655 547 c 1
 633 530 608 516 582 512 c 0
 518 500 471 549 442 600 c 0
 385 705 379 827 358 942 c 1
842 815 m 1
 842 811 844 813 844 815 c 1
 842 815 l 1
850 788 m 1
 850 784 852 786 852 788 c 1
 850 788 l 1
868 729 m 1
 868 725 870 727 870 729 c 1
 868 729 l 1
EndSplineSet
EndChar
StartChar: bn_saat
Encoding: 2541 2541 175
Width: 1091
VWidth: 1000
Flags: HW
HStem: 55 238 637 102
VStem: 682 115<293 322 322 325> 684 231
Fore
680 641 m 1
 506 641 383 616 266 678 c 0
 242 692 217 709 199 729 c 0
 125 815 160 950 221 1034 c 0
 297 1139 440 1188 563 1137 c 0
 702 1079 770 905 788 731 c 0
 797 649 793 567 793 485 c 0
 793 422 797 356 797 293 c 1
 829 293 862 281 887 256 c 0
 938 201 924 102 854 68 c 0
 784 33 700 74 684 150 c 0
 680 170 682 193 682 215 c 2
 682 322 l 2
 682 428 680 535 680 641 c 1
483 1065 m 0
 453 1061 422 1047 395 1030 c 0
 340 993 289 938 266 874 c 0
 252 838 242 780 276 752 c 0
 305 727 352 739 385 739 c 2
 578 739 l 2
 610 739 645 735 676 739 c 0
 694 743 700 758 700 774 c 0
 705 819 680 872 666 909 c 0
 633 981 573 1073 483 1065 c 0
EndSplineSet
EndChar
StartChar: bn_aat
Encoding: 2542 2542 176
Width: 1091
VWidth: 1000
Flags: HW
HStem: 940 238
VStem: 152 113<357 371 371 479 479 556>
Fore
150 940 m 1
 117 940 86 950 61 973 c 0
 14 1018 14 1100 61 1145 c 0
 123 1204 231 1180 258 1098 c 0
 270 1061 264 1020 264 983 c 2
 264 711 l 2
 264 696 264 682 266 668 c 1
 276 707 311 745 344 764 c 0
 428 815 528 780 600 721 c 0
 623 705 645 684 659 659 c 1
 668 678 676 694 688 709 c 0
 721 745 766 766 813 768 c 0
 858 770 905 760 950 772 c 0
 975 780 999 797 1010 821 c 0
 1018 840 1014 868 1034 881 c 0
 1053 891 1065 866 1069 852 c 0
 1085 788 1063 723 1034 684 c 0
 997 631 936 621 874 623 c 0
 821 625 758 629 721 582 c 1
 709 569 719 551 723 537 c 0
 729 508 727 479 725 451 c 0
 717 369 680 289 625 227 c 1
 582 184 565 176 518 145 c 1
 432 100 309 74 227 141 c 1
 201 160 176 203 164 233 c 0
 152 272 152 311 152 352 c 2
 152 479 l 2
 152 633 150 786 150 940 c 1
563 618 m 0
 502 639 365 659 293 631 c 1
 266 625 264 612 264 586 c 2
 264 371 l 2
 264 344 260 313 268 287 c 0
 276 250 307 221 346 223 c 128
 385 225 420 246 451 268 c 0
 514 313 569 375 608 444 c 0
 623 469 653 530 635 573 c 1
 621 598 588 610 563 618 c 0
EndSplineSet
EndChar
StartChar: bn_noi
Encoding: 2543 2543 177
Width: 1091
VWidth: 1000
Flags: HW
HStem: 27 293 541 74
VStem: 92 113 870 74
Fore
727 248 m 1
 774 264 809 291 836 328 c 0
 911 436 860 582 776 670 c 1
 627 819 483 786 285 864 c 0
 217 889 150 930 129 1001 c 0
 113 1063 121 1116 162 1149 c 0
 213 1194 295 1184 334 1128 c 0
 362 1087 362 1042 340 995 c 1
 373 985 403 971 436 961 c 0
 504 938 573 918 639 885 c 0
 739 838 827 762 885 666 c 0
 965 532 971 360 877 231 c 0
 819 156 727 94 606 88 c 1
 606 246 588 449 477 518 c 0
 418 555 334 549 276 508 c 0
 221 467 182 377 215 287 c 0
 221 272 229 260 236 248 c 1
 238 248 l 1
 246 262 256 274 268 287 c 0
 346 354 473 317 506 219 c 0
 528 143 487 61 414 35 c 1
 346 14 274 37 227 59 c 1
 66 154 49 397 176 528 c 0
 264 618 422 643 535 588 c 0
 662 528 727 383 727 248 c 1
721 242 m 1
 721 238 723 240 723 242 c 1
 721 242 l 1
700 215 m 1
 700 211 702 213 702 215 c 1
 700 215 l 1
694 207 m 1
 694 203 696 205 696 207 c 1
 694 207 l 1
688 199 m 1
 688 195 690 197 690 199 c 1
 688 199 l 1
682 190 m 1
 682 186 684 188 684 190 c 1
 682 190 l 1
676 182 m 1
 676 178 678 180 678 182 c 1
 676 182 l 1
670 174 m 1
 670 170 672 172 672 174 c 1
 670 174 l 1
655 156 m 1
 655 152 657 154 657 156 c 1
 655 156 l 1
649 147 m 1
 649 143 651 145 651 147 c 1
 649 147 l 1
643 139 m 1
 643 135 645 137 645 139 c 1
 643 139 l 1
637 131 m 1
 637 127 639 129 639 131 c 1
 637 131 l 1
631 123 m 1
 631 119 633 121 633 123 c 1
 631 123 l 1
625 115 m 1
 625 111 627 113 627 115 c 1
 625 115 l 1
618 106 m 1
 618 102 621 104 621 106 c 1
 618 106 l 1
EndSplineSet
EndChar
StartChar: bn_asamiba
Encoding: 2544 2544 178
Width: 956
VWidth: 1000
Flags: HW
HStem: 1133 98<68 731 68 68 844 934 844 844>
VStem: 731 113<313 313 635 905 905 905 1069 1133> 784 59
Fore
0 1231 m 1
 934 1231 l 1
 954 1227 l 1
 975 1200 987 1165 1001 1133 c 1
 844 1133 l 1
 844 2 l 1
 842 4 797 33 791 43 c 0
 782 53 786 70 784 82 c 0
 768 176 717 250 662 311 c 0
 549 432 408 514 236 565 c 0
 223 569 209 571 197 575 c 1
 164 575 158 600 145 618 c 0
 137 629 92 694 82 717 c 1
 219 809 l 1
 344 885 504 965 653 1016 c 0
 670 1022 719 1036 725 1042 c 0
 733 1049 731 1061 731 1069 c 2
 731 1133 l 1
 68 1133 l 1
 49 1135 l 1
 31 1163 16 1198 0 1231 c 1
731 905 m 1
 645 874 557 842 477 797 c 1
 477 795 l 1
 731 635 l 1
 731 905 l 1
731 313 m 1
 729 385 735 463 729 530 c 1
 631 604 518 664 414 733 c 1
 387 745 l 1
 344 731 311 705 274 682 c 1
 461 608 621 473 729 313 c 1
 731 313 l 1
EndSplineSet
EndChar
StartChar: bn_asamira
Encoding: 2545 2545 179
Width: 956
VWidth: 1000
Flags: HW
HStem: 1133 98<68 731 68 68 844 934 844 844>
VStem: 731 113<313 905 905 905 1069 1133>
Fore
0 1231 m 1
 934 1231 l 1
 954 1227 l 1
 975 1200 987 1165 1001 1133 c 1
 844 1133 l 1
 844 2 l 1
 842 4 797 33 791 43 c 0
 782 53 786 70 784 82 c 0
 768 176 717 250 662 311 c 0
 549 432 408 514 236 565 c 0
 223 569 209 571 197 575 c 1
 164 575 158 600 145 618 c 0
 137 629 92 694 82 717 c 1
 219 809 l 1
 344 885 504 965 653 1016 c 0
 670 1022 719 1036 725 1042 c 0
 733 1049 731 1061 731 1069 c 2
 731 1133 l 1
 68 1133 l 1
 49 1135 l 1
 31 1163 16 1198 0 1231 c 1
731 905 m 1
 567 850 416 768 274 684 c 1
 274 682 l 1
 461 608 621 473 729 313 c 1
 731 313 l 1
 731 905 l 1
621 -39 m 1
 610 -31 608 -20 604 -8 c 0
 575 70 543 121 487 176 c 0
 416 246 303 311 172 319 c 1
 150 324 125 315 125 344 c 0
 123 360 121 397 135 401 c 0
 152 408 223 397 242 393 c 0
 389 358 518 262 588 127 c 0
 612 80 645 14 621 -39 c 1
EndSplineSet
EndChar
StartChar: bn_takamark
Encoding: 2546 2546 180
Width: 662
VWidth: 1000
Flags: HW
Fore
34 452 m 1
 476 534 596 27 596 27 c 1
 531 54 l 1
 531 54 449 371 99 371 c 1
 34 452 l 1
EndSplineSet
EndChar
StartChar: bn_takasign
Encoding: 2547 2547 181
Width: 778
VWidth: 1000
Flags: HW
Fore
0 916 m 1
 -34 943 l 1
 67 1039 299 1174 299 918 c 2
 299 610 l 1
 746 610 l 1
 814 530 l 1
 299 530 l 1
 299 100 l 1
 492 143 621 176 577 314 c 1
 463 265 418 367 430 398 c 0
 454 462 628 526 672 355 c 0
 744 78 490 26 261 0 c 9
 200 67 l 1
 200 530 l 1
 34 530 l 1
 -34 610 l 1
 200 610 l 1
 201 912 l 2
 203 1028 130 1026 0 916 c 1
EndSplineSet
EndChar
StartChar: bn_currency1
Encoding: 2548 2548 182
Width: 662
VWidth: 1000
Flags: HW
Fore
34 133 m 1
 99 212 l 1
 449 212 531 530 531 530 c 1
 596 557 l 1
 596 557 476 50 34 133 c 1
EndSplineSet
EndChar
StartChar: bn_currency2
Encoding: 2549 2549 183
Width: 662
VWidth: 1000
Flags: HW
Fore
131 212 m 1
 251 249 270 342 200 384 c 1
 246 251 34 247 34 365 c 0
 34 502 387 438 263 226 c 1
 510 284 531 530 531 530 c 1
 596 557 l 1
 596 557 509 50 67 133 c 1
 131 212 l 1
EndSplineSet
EndChar
StartChar: bn_currency3
Encoding: 2550 2550 184
Width: 662
VWidth: 1000
Flags: HW
Fore
131 269 m 2
 234 269 304 400 232 441 c 1
 265 318 67 333 67 422 c 0
 67 463 97 504 166 504 c 0
 343 504 350 247 131 226 c 1
 280 138 517 348 531 530 c 1
 596 557 l 1
 544 209 147 -35 34 269 c 1
 131 269 l 2
EndSplineSet
EndChar
StartChar: bn_currency4
Encoding: 2551 2551 185
Width: 196
VWidth: 1000
Flags: HW
Fore
34 798 m 1
 131 718 l 1
 131 0 l 1
 34 79 l 1
 34 798 l 1
EndSplineSet
EndChar
StartChar: bn_currency1less
Encoding: 2552 2552 186
Width: 727
VWidth: 1000
Flags: HW
Fore
167 718 m 1
 167 718 l 1
 167 363 l 1
 305 514 439 646 580 676 c 9
 664 543 l 17
 550 407 515 209 631 27 c 1
 597 0 l 1
 541 85 435 174 519 526 c 1
 393 474 167 236 167 236 c 1
 67 332 l 1
 67 718 l 1
 -5 770 39 867 167 718 c 1
EndSplineSet
EndChar
StartChar: bn_currency16
Encoding: 2553 2553 187
Width: 692
VWidth: 1000
Flags: HW
Fore
331 265 m 0
 -67 265 -67 622 331 622 c 0
 730 622 730 265 331 265 c 0
331 564 m 0
 102 564 101 326 331 326 c 0
 565 326 561 564 331 564 c 0
EndSplineSet
EndChar
StartChar: bn_isshar
Encoding: 2554 2554 188
Width: 0
VWidth: 1000
Flags: HW
HStem: 1237 143
VStem: -438 201
Fore
-424 1696 m 0
 -406 1726 -365 1749 -315 1741 c 1
 -248 1724 -213 1645 -252 1585 c 0
 -268 1556 -309 1532 -360 1540 c 1
 -428 1556 -463 1636 -424 1696 c 0
-682 1710 m 0
 -670 1716 -657 1698 -653 1690 c 0
 -641 1661 -645 1626 -637 1595 c 0
 -604 1470 -477 1386 -352 1380 c 0
 -213 1372 -55 1470 -33 1624 c 0
 -29 1651 -31 1704 -2 1710 c 0
 14 1714 23 1690 27 1677 c 0
 35 1640 31 1599 25 1563 c 0
 2 1444 -63 1337 -172 1278 c 0
 -270 1225 -395 1225 -496 1274 c 0
 -612 1335 -707 1466 -707 1632 c 0
 -707 1657 -707 1696 -682 1710 c 0
EndSplineSet
EndChar
StartChar: afii61664
Encoding: 8204 8204 189
Width: 0
Flags: HW
Fore
67 101 m 1
 -80 101 l 1
 -80 1134 l 1
 67 1134 l 1
 67 101 l 1
EndSplineSet
EndChar
StartChar: afii301
Encoding: 8205 8205 190
Width: 0
Flags: HW
Fore
357 670 m 1
 259 591 l 1
 70 670 l 1
 75 128 l 1
 -70 128 l 1
 -75 670 l 1
 -278 550 l 1
 -375 626 l 1
 -90 798 l 1
 -309 916 l 1
 -210 993 l 1
 -2 874 l 1
 222 1017 l 1
 324 943 l 1
 87 798 l 1
 357 670 l 1
EndSplineSet
EndChar
StartChar: uni25CC
Encoding: 9676 9676 191
Width: 1213
Flags: HW
Fore
56 381 m 1
 12 550 l 1
 143 570 l 1
 188 404 l 1
 56 381 l 1
19 658 m 1
 73 812 l 1
 201 784 l 1
 147 632 l 1
 19 658 l 1
152 914 m 1
 319 1017 l 1
 401 934 l 1
 234 830 l 1
 152 914 l 1
476 1074 m 1
 667 1074 l 1
 667 966 l 1
 483 966 l 1
 476 1074 l 1
848 1032 m 1
 1060 914 l 1
 983 826 l 1
 777 945 l 1
 848 1032 l 1
1152 777 m 1
 1195 560 l 1
 1063 545 l 1
 1019 761 l 1
 1152 777 l 1
1166 366 m 1
 1048 242 l 1
 942 309 l 1
 1058 430 l 1
 1166 366 l 1
865 122 m 1
 660 75 l 1
 623 178 l 1
 831 224 l 1
 865 122 l 1
387 102 m 1
 188 217 l 1
 265 307 l 1
 466 191 l 1
 387 102 l 1
EndSplineSet
EndChar
StartChar: bn_half_ka
Encoding: 65537 -1 192
Width: 819
VWidth: 1000
Flags: HW
HStem: 729 145 1133 98<78 424 78 78 537 788 537 537>
VStem: 424 113<731 1026 1026 1026 1122 1133>
Fore
0 1231 m 1
 788 1231 l 1
 815 1229 l 1
 836 1200 848 1165 864 1133 c 1
 537 1133 l 1
 537 1122 l 1
 690 1096 778 913 715 774 c 0
 692 723 625 715 590 758 c 0
 557 801 580 864 633 874 c 0
 659 881 682 870 702 852 c 1
 692 942 623 1014 537 1040 c 1
 537 494 l 1
 526 498 494 522 483 532 c 1
 479 541 479 551 477 559 c 0
 469 610 422 670 389 702 c 1
 319 764 242 805 143 831 c 0
 131 836 117 836 106 842 c 0
 94 852 59 905 49 922 c 1
 119 971 279 1065 389 1098 c 1
 412 1108 424 1106 424 1133 c 1
 78 1133 l 1
 47 1137 l 1
 29 1165 14 1198 0 1231 c 1
424 1026 m 1
 338 993 l 1
 168 903 l 1
 219 883 264 856 307 829 c 1
 348 799 389 768 424 731 c 1
 424 1026 l 1
EndSplineSet
LCarets: 0 0 '    ' 1 0 
Ligature: 0 0 'half' bn_ka bn_hasanta
EndChar
StartChar: bn_half_kha
Encoding: 65538 -1 193
Width: 1091
VWidth: 1000
Flags: HW
HStem: 1133 98
VStem: 866 113<324 1133> 920 59
Fore
866 1343 m 1
 903 1307 938 1270 977 1235 c 1
 1010 1229 1053 1233 1087 1229 c 1
 1108 1200 1120 1165 1137 1133 c 1
 979 1133 l 1
 979 2 l 1
 977 4 932 33 926 43 c 0
 918 53 922 72 920 84 c 0
 903 195 829 289 758 354 c 0
 666 438 539 520 383 539 c 0
 338 545 328 541 307 567 c 1
 272 606 l 2
 246 635 166 721 154 739 c 1
 371 739 647 778 670 985 c 0
 674 1016 668 1047 637 1061 c 1
 594 1075 580 1047 559 1026 c 1
 473 961 336 909 213 911 c 0
 193 911 174 911 156 915 c 0
 104 928 53 973 45 1036 c 0
 29 1135 119 1221 215 1204 c 1
 276 1190 326 1149 336 1083 c 1
 412 1110 481 1157 530 1214 c 0
 539 1223 545 1229 555 1227 c 0
 586 1221 618 1198 643 1180 c 0
 741 1106 786 971 750 852 c 0
 725 774 664 717 594 678 c 0
 567 664 539 647 510 641 c 1
 522 629 541 621 555 612 c 0
 651 551 719 498 793 416 c 0
 817 387 846 356 864 324 c 1
 866 324 l 1
 866 1343 l 1
EndSplineSet
LCarets: 0 255 '    ' 1 0 
Ligature: 0 0 'half' bn_kha bn_hasanta
EndChar
StartChar: bn_half_ga
Encoding: 65539 -1 194
Width: 546
VWidth: 1000
Flags: HW
HStem: 1161 70
VStem: 395 94
Fore
225 643 m 1
 293 688 348 762 379 838 c 0
 391 866 406 903 391 932 c 0
 377 961 340 967 311 963 c 0
 254 954 203 918 150 897 c 0
 127 889 86 868 68 891 c 0
 49 911 27 983 31 1024 c 0
 37 1104 98 1165 168 1196 c 0
 199 1208 305 1241 367 1229 c 1
 457 1219 555 1147 612 1094 c 0
 639 1071 705 1008 715 958 c 0
 721 938 717 913 717 893 c 0
 717 877 719 860 715 844 c 1
 684 934 571 1036 498 1090 c 0
 459 1118 393 1161 324 1161 c 0
 240 1157 176 1090 164 1010 c 1
 209 1024 256 1028 303 1028 c 0
 375 1028 434 1001 465 956 c 0
 545 842 428 682 352 610 c 1
 324 588 319 586 291 600 c 0
 268 614 244 625 225 643 c 1
EndSplineSet
Ligature: 0 0 'half' bn_ga bn_hasanta
EndChar
StartChar: bn_half_gha
Encoding: 65540 -1 195
Width: 1024
VWidth: 1000
Flags: HW
HStem: 1133 98<90 90 324 346 346 799 911 1001 911 911>
VStem: 799 113<293 1133>
Fore
0 1231 m 1
 1001 1231 l 1
 1022 1227 l 1
 1042 1200 1055 1165 1069 1133 c 1
 911 1133 l 1
 911 2 l 1
 909 4 864 33 858 43 c 0
 852 51 854 68 852 78 c 0
 844 150 797 221 756 270 c 0
 666 375 522 469 352 492 c 1
 307 492 303 496 281 518 c 2
 246 557 l 1
 246 557 211 592 207 602 c 0
 203 616 233 635 242 643 c 0
 283 680 322 719 362 754 c 1
 248 780 150 866 109 977 c 0
 90 1026 84 1079 90 1133 c 1
 49 1135 l 1
 31 1163 16 1198 0 1231 c 1
799 1133 m 1
 346 1133 l 2
 301 1133 297 1139 279 1112 c 1
 233 1024 281 918 362 879 c 0
 420 852 481 868 518 897 c 0
 524 901 530 907 539 907 c 0
 553 907 569 895 582 889 c 0
 614 872 647 852 682 838 c 1
 600 760 510 690 432 606 c 1
 465 592 496 571 526 551 c 0
 621 487 694 420 764 334 c 0
 776 319 786 305 799 293 c 1
 799 1133 l 1
EndSplineSet
Ligature: 0 0 'half' bn_gha bn_hasanta
EndChar
StartChar: bn_half_nga
Encoding: 65541 -1 196
Width: 614
VWidth: 1000
Flags: HW
HStem: 512 115 1036 80
VStem: 252 113<1027 1028> 563 68 668 51
Fore
100 1264 m 1
 164 1276 l 2
 172 1276 184 1280 193 1276 c 0
 201 1272 207 1260 215 1251 c 0
 219 1247 279 1198 303 1198 c 0
 313 1198 322 1208 328 1212 c 0
 362 1247 424 1272 483 1278 c 0
 537 1284 588 1268 612 1231 c 0
 651 1176 631 1098 573 1063 c 0
 508 1024 436 1032 365 1049 c 1
 365 1006 348 965 340 922 c 0
 336 903 330 879 340 860 c 0
 358 827 399 838 426 852 c 0
 449 864 469 881 487 897 c 0
 520 926 553 958 567 1001 c 1
 610 989 637 973 666 944 c 0
 741 862 723 733 678 641 c 0
 655 600 627 561 586 539 c 0
 481 475 340 522 264 608 c 0
 170 717 131 870 100 1008 c 0
 98 1018 72 1135 68 1165 c 1
 106 1149 104 1137 115 1098 c 0
 160 932 217 723 362 647 c 1
 449 606 561 623 623 698 c 2
 641 723 l 1
 664 764 686 834 645 870 c 0
 637 879 616 891 604 883 c 0
 596 879 594 870 590 864 c 0
 563 819 500 772 446 760 c 0
 416 750 365 760 338 772 c 0
 266 809 256 901 254 973 c 0
 254 987 252 999 252 1014 c 0
 252 1042 250 1071 258 1100 c 1
 190 1137 133 1194 100 1264 c 1
416 1135 m 1
 453 1122 496 1104 535 1118 c 0
 551 1124 573 1149 563 1169 c 0
 557 1182 535 1169 524 1169 c 0
 489 1163 440 1165 416 1135 c 1
575 969 m 1
 575 965 578 967 578 969 c 1
 575 969 l 1
586 934 m 1
 586 930 588 932 588 934 c 1
 586 934 l 1
590 920 m 1
 590 915 592 918 592 920 c 1
 590 920 l 1
596 899 m 1
 596 895 598 897 598 899 c 1
 596 899 l 1
EndSplineSet
Ligature: 0 0 'half' bn_nga bn_hasanta
EndChar
StartChar: bn_half_cha
Encoding: 65542 -1 197
Width: 477
VWidth: 1000
Flags: HW
HStem: 1135 96
VStem: 113 113<743 774 774 969>
Fore
0 1231 m 1
 438 1231 l 1
 475 1227 l 1
 496 1200 508 1165 522 1133 c 1
 225 1133 l 1
 227 1079 266 1047 313 1028 c 0
 406 997 575 1001 575 879 c 0
 578 737 514 584 387 514 c 0
 315 473 211 457 156 528 c 0
 109 590 113 670 113 743 c 2
 113 1133 l 1
 90 1133 68 1133 49 1135 c 1
 31 1163 16 1198 0 1231 c 1
225 969 m 1
 225 774 l 2
 225 698 213 600 270 567 c 0
 285 559 301 559 315 559 c 0
 424 573 463 698 469 799 c 0
 471 825 473 854 463 881 c 0
 438 940 348 950 281 961 c 0
 262 963 244 967 225 969 c 1
EndSplineSet
Ligature: 0 0 'half' bn_cha bn_hasanta
EndChar
StartChar: bn_half_chha
Encoding: 65543 -1 198
Width: 1058
VWidth: 1000
Flags: HW
HStem: 530 74 1135 96
VStem: 113 113<782 803 803 979 1126 1133>
Fore
0 1231 m 1
 1034 1231 l 1
 1057 1227 l 1
 1077 1200 1090 1165 1104 1133 c 1
 225 1133 l 1
 225 1120 227 1108 233 1096 c 0
 256 1034 332 1026 389 1022 c 0
 401 1022 414 1020 426 1020 c 0
 440 1020 453 1018 467 1018 c 0
 512 1018 573 1010 608 991 c 0
 623 983 633 967 649 958 c 0
 659 956 670 954 680 954 c 1
 725 942 l 2
 801 920 866 877 903 813 c 0
 981 686 920 514 817 420 c 0
 782 387 692 326 627 311 c 1
 627 309 l 1
 664 295 719 260 752 240 c 0
 864 166 1004 35 1077 -92 c 0
 1079 -96 1083 -102 1083 -109 c 0
 1083 -119 1071 -133 1061 -135 c 0
 1051 -135 1016 -92 1008 -84 c 0
 885 55 694 172 494 219 c 0
 449 229 403 238 356 244 c 0
 342 244 326 246 311 246 c 1
 287 252 287 250 274 268 c 2
 252 299 l 1
 225 340 195 377 170 420 c 1
 242 420 360 403 430 383 c 0
 442 381 453 375 465 375 c 0
 487 375 514 383 537 389 c 0
 676 426 819 535 840 698 c 0
 852 801 805 834 737 864 c 0
 711 874 684 881 657 883 c 1
 653 831 643 782 621 737 c 0
 571 639 477 565 371 541 c 0
 295 520 209 520 156 586 c 0
 106 643 113 713 113 782 c 2
 113 1133 l 1
 90 1133 68 1133 49 1135 c 1
 31 1163 16 1198 0 1231 c 1
225 979 m 1
 225 803 l 2
 225 719 219 647 279 612 c 0
 309 596 348 602 379 612 c 0
 469 641 522 727 535 817 c 0
 541 856 543 901 516 932 c 0
 465 989 317 967 225 979 c 1
EndSplineSet
Ligature: 0 0 'half' bn_chha bn_hasanta
EndChar
StartChar: bn_half_ja
Encoding: 65544 -1 199
Width: 681
VWidth: 1000
Flags: HW
HStem: 528 121 1133 98<68 279 68 68 473 659 473 473>
VStem: 74 25 553 43
Fore
0 1231 m 1
 659 1231 l 1
 680 1229 l 1
 698 1200 713 1165 727 1133 c 1
 473 1133 l 1
 528 1081 602 1067 674 1061 c 0
 688 1061 705 1059 719 1059 c 0
 762 1059 762 1053 786 1032 c 0
 807 1012 831 993 850 973 c 1
 662 973 506 1001 406 1102 c 0
 401 1106 397 1110 391 1110 c 0
 379 1110 344 1079 338 1073 c 0
 301 1042 268 999 258 950 c 0
 254 924 256 897 274 877 c 0
 309 834 377 856 418 881 c 1
 440 899 453 907 469 930 c 0
 473 936 477 942 485 942 c 0
 508 942 545 899 555 885 c 0
 631 782 586 633 520 567 c 1
 434 487 295 535 221 608 c 0
 115 715 72 918 72 1110 c 1
 90 1100 96 1092 96 1069 c 0
 96 1057 98 1047 98 1034 c 0
 109 891 172 752 279 684 c 0
 346 643 449 627 506 676 c 0
 516 684 526 694 535 707 c 0
 565 752 555 811 520 852 c 1
 512 831 496 815 479 801 c 0
 412 748 315 758 260 823 c 0
 211 881 195 969 221 1038 c 0
 233 1075 254 1104 279 1133 c 1
 68 1133 l 1
 47 1137 l 1
 29 1165 14 1198 0 1231 c 1
487 932 m 1
 487 928 489 930 489 932 c 1
 487 932 l 1
EndSplineSet
Ligature: 0 0 'half' bn_ja bn_hasanta
EndChar
StartChar: bn_half_jha
Encoding: 65545 -1 200
Width: 1228
VWidth: 1000
Flags: HW
HStem: 1133 98<68 731 68 68>
VStem: 731 113<313 565 696 905 905 905 1073 1133 1133 1133> 1012 113<557 1133>
Fore
1012 1343 m 1
 1124 1235 l 1
 1153 1229 1192 1233 1225 1229 c 1
 1245 1200 1257 1165 1274 1133 c 1
 1124 1133 l 1
 1124 199 l 1
 1118 203 1079 227 1071 240 c 0
 1065 252 1067 270 1065 283 c 0
 1040 387 979 483 897 539 c 0
 881 549 862 557 844 565 c 1
 844 2 l 1
 842 4 797 33 791 43 c 0
 784 51 786 68 784 78 c 0
 776 160 725 236 680 289 c 0
 586 401 453 485 315 539 c 0
 266 559 227 565 178 580 c 0
 166 584 160 598 152 608 c 2
 102 682 l 2
 96 690 80 707 86 717 c 0
 92 731 184 788 203 799 c 0
 352 889 502 965 678 1024 c 0
 682 1026 723 1036 727 1047 c 1
 733 1053 731 1065 731 1073 c 2
 731 1133 l 1
 68 1133 l 1
 49 1135 l 1
 31 1163 16 1198 0 1231 c 1
 844 1231 l 1
 844 696 l 1
 920 676 971 616 1010 557 c 1
 1012 557 l 1
 1012 1343 l 1
731 905 m 1
 567 850 416 768 274 684 c 1
 274 682 l 1
 459 608 621 475 729 313 c 1
 731 313 l 1
 731 905 l 1
EndSplineSet
Ligature: 0 0 'half' bn_jha bn_hasanta
EndChar
StartChar: bn_half_nya
Encoding: 65546 -1 201
Width: 819
VWidth: 1000
Flags: HW
HStem: 745 63 877 154 1098 61 1180 51
VStem: 248 205 477 113<766 784 878 895 895 1001> 600 190
Fore
365 1073 m 1
 391 1067 418 1055 434 1032 c 0
 477 975 453 893 385 868 c 0
 332 850 272 879 252 932 c 0
 246 950 244 971 248 989 c 0
 262 1075 311 1151 385 1198 c 0
 420 1221 475 1243 516 1225 c 0
 555 1210 580 1163 590 1120 c 1
 604 1130 618 1141 635 1147 c 0
 690 1169 768 1163 803 1108 c 1
 827 1079 821 1028 807 991 c 0
 803 979 791 965 791 952 c 0
 791 940 803 926 807 913 c 0
 821 879 825 825 803 797 c 1
 768 741 690 735 635 758 c 0
 618 764 604 774 590 784 c 1
 590 616 l 1
 573 627 553 639 539 653 c 0
 518 674 498 705 467 715 c 0
 422 729 373 725 326 727 c 0
 227 733 109 760 59 856 c 0
 23 930 51 1008 84 1065 c 1
 104 1055 l 1
 100 1042 94 1030 88 1018 c 0
 82 997 76 975 76 954 c 0
 74 895 123 854 174 831 c 0
 213 815 256 807 297 803 c 0
 324 801 350 803 377 801 c 0
 412 797 446 784 477 766 c 1
 477 1087 l 2
 477 1108 479 1122 492 1139 c 0
 498 1147 510 1161 506 1174 c 0
 500 1190 467 1178 457 1171 c 0
 418 1153 383 1114 365 1073 c 1
762 1081 m 0
 721 1122 649 1083 616 1059 c 0
 590 1038 590 1036 590 1001 c 2
 590 895 l 2
 590 860 606 854 625 840 c 0
 657 817 702 797 743 811 c 0
 780 825 784 877 754 899 c 0
 739 911 717 885 702 881 c 0
 668 866 629 885 610 915 c 0
 580 967 627 1038 688 1028 c 0
 705 1026 717 1018 729 1010 c 0
 735 1004 743 999 752 1004 c 0
 776 1018 782 1063 762 1081 c 0
EndSplineSet
Ligature: 0 0 'half' bn_nya bn_hasanta
EndChar
StartChar: bn_half_Ta
Encoding: 65547 -1 202
Width: 819
VWidth: 1000
Flags: HW
HStem: 1135 96 1364 145
VStem: 37 74 113 113<573 1133> 442 276
Fore
707 1231 m 1
 672 1325 543 1358 424 1364 c 2
 367 1364 l 1
 236 1372 86 1407 47 1518 c 0
 33 1565 33 1618 49 1665 c 0
 53 1679 61 1706 80 1710 c 0
 109 1714 115 1655 113 1628 c 0
 106 1595 109 1587 129 1575 c 1
 172 1542 240 1526 301 1516 c 0
 344 1507 387 1509 432 1507 c 0
 535 1501 659 1477 723 1386 c 0
 752 1346 768 1294 768 1231 c 1
 817 1229 l 1
 836 1200 850 1165 864 1133 c 1
 225 1133 l 1
 225 567 l 2
 225 508 227 492 254 459 c 0
 291 410 350 412 403 446 c 1
 471 485 543 580 559 680 c 1
 524 684 492 707 473 729 c 0
 408 809 451 934 551 954 c 1
 604 971 653 944 680 918 c 0
 727 868 723 803 715 741 c 0
 690 569 582 387 451 299 c 0
 422 279 319 223 254 250 c 0
 184 274 145 358 127 426 c 0
 113 475 113 522 113 573 c 2
 113 1133 l 1
 90 1133 68 1133 49 1135 c 1
 31 1163 16 1198 0 1231 c 1
 707 1231 l 1
EndSplineSet
Ligature: 0 0 'half' bn_Ta bn_hasanta
EndChar
StartChar: bn_half_Tha
Encoding: 65548 -1 203
Width: 886
VWidth: 1000
Flags: HW
HStem: 102 90 1135 96
VStem: 371 115 731 92
Fore
442 1231 m 1
 393 1346 344 1477 385 1602 c 0
 393 1624 449 1763 516 1708 c 1
 547 1679 547 1624 528 1589 c 1
 510 1563 485 1544 485 1503 c 0
 485 1444 528 1341 551 1294 c 0
 559 1274 569 1253 575 1231 c 1
 858 1231 l 1
 885 1227 l 1
 905 1200 918 1165 932 1133 c 1
 618 1133 l 1
 653 1081 688 1030 719 975 c 0
 780 856 817 719 823 584 c 0
 834 412 782 287 690 199 c 0
 539 57 317 82 207 203 c 0
 139 276 92 412 137 522 c 0
 143 543 145 551 168 551 c 0
 219 551 283 571 322 592 c 0
 487 676 575 866 530 1047 c 0
 526 1057 524 1067 520 1075 c 0
 512 1085 502 1094 496 1104 c 0
 492 1112 487 1126 479 1130 c 0
 469 1135 457 1133 446 1133 c 2
 78 1133 l 2
 70 1133 57 1130 49 1135 c 0
 39 1139 37 1153 33 1161 c 0
 20 1184 10 1208 0 1231 c 1
 442 1231 l 1
694 795 m 1
 686 778 684 758 678 739 c 0
 618 559 451 436 260 436 c 1
 244 342 274 270 330 231 c 0
 426 160 559 197 637 276 c 0
 737 377 743 539 719 692 c 0
 713 727 700 760 694 795 c 1
EndSplineSet
Ligature: 0 0 'half' bn_Tha bn_hasanta
EndChar
StartChar: bn_half_Da
Encoding: 65549 -1 204
Width: 956
VWidth: 1000
Flags: HW
HStem: 403 127 709 119 1133 98<78 422 78 78 535 934 535 535>
VStem: 422 113<924 1133> 858 57
Fore
0 1231 m 1
 934 1231 l 1
 954 1227 l 1
 975 1200 987 1165 1001 1133 c 1
 535 1133 l 1
 535 868 l 2
 535 858 537 846 543 836 c 1
 563 815 602 840 621 850 c 0
 662 874 698 905 731 938 c 0
 752 958 770 981 780 1010 c 1
 799 1004 815 993 829 981 c 0
 872 948 903 897 911 844 c 0
 918 817 915 791 913 764 c 0
 903 629 842 502 745 442 c 0
 659 387 547 389 457 434 c 0
 260 526 182 815 119 1047 c 0
 111 1071 102 1096 98 1120 c 1
 111 1114 127 1110 135 1100 c 0
 147 1087 152 1061 158 1044 c 2
 203 920 l 1
 256 778 330 606 473 549 c 0
 598 500 743 551 815 662 c 0
 827 682 870 770 856 821 c 0
 852 838 842 850 831 862 c 1
 829 862 l 1
 799 821 764 801 721 774 c 0
 684 750 682 754 645 735 c 1
 590 713 518 686 469 735 c 0
 426 778 422 854 422 924 c 2
 422 1133 l 1
 78 1133 l 1
 47 1137 l 1
 29 1165 14 1198 0 1231 c 1
553 813 m 1
 553 809 555 811 555 813 c 1
 553 813 l 1
537 713 m 1
 537 709 539 711 539 713 c 1
 537 713 l 1
EndSplineSet
Ligature: 0 0 'half' bn_Da bn_hasanta
EndChar
StartChar: bn_half_Dha
Encoding: 65550 -1 205
Width: 886
VWidth: 1000
Flags: HW
HStem: 1135 96
VStem: 113 113<502 1133> 471 307
Fore
0 1231 m 1
 864 1231 l 1
 885 1227 l 1
 905 1200 918 1165 932 1133 c 1
 225 1133 l 1
 225 496 l 2
 225 469 221 440 231 416 c 0
 250 373 297 332 346 330 c 0
 377 330 410 342 436 358 c 0
 526 412 586 518 606 618 c 1
 563 623 530 641 508 668 c 0
 449 735 459 846 535 899 c 0
 584 934 641 934 696 911 c 1
 778 870 786 782 774 692 c 0
 748 506 639 301 500 203 c 0
 461 174 365 117 279 137 c 1
 201 162 152 260 129 336 c 0
 113 391 113 444 113 502 c 2
 113 1133 l 1
 90 1133 68 1133 49 1135 c 1
 31 1163 16 1198 0 1231 c 1
EndSplineSet
Ligature: 0 0 'half' bn_Dha bn_hasanta
EndChar
StartChar: bn_half_Na
Encoding: 65551 -1 206
Width: 409
VWidth: 1000
Flags: HW
HStem: 616 221 991 86
VStem: 76 133 242 246<740 745>
Fore
242 739 m 1
 242 754 242 766 248 778 c 0
 287 870 492 856 487 745 c 0
 487 735 485 723 481 713 c 0
 451 623 334 602 252 623 c 0
 133 651 51 772 84 893 c 0
 121 1024 270 1106 401 1069 c 0
 459 1053 518 997 557 952 c 1
 580 930 580 930 580 897 c 2
 580 838 l 1
 559 854 545 874 530 895 c 0
 500 934 465 973 416 987 c 0
 322 1012 223 946 211 850 c 0
 207 809 221 774 240 739 c 1
 242 739 l 1
EndSplineSet
Ligature: 0 0 'half' bn_Na bn_hasanta
EndChar
StartChar: bn_half_ta
Encoding: 65552 -1 207
Width: 956
VWidth: 1000
Flags: HW
HStem: 547 100 1022 96 1133 98<113 934 113 113>
VStem: 424 223 803 61
Fore
0 1231 m 1
 934 1231 l 1
 954 1227 l 1
 975 1200 987 1165 1001 1133 c 1
 113 1133 l 1
 113 1130 l 1
 145 1122 143 1096 156 1069 c 0
 205 948 289 819 383 737 c 0
 432 694 489 659 553 649 c 0
 625 639 702 668 752 721 c 0
 819 795 825 907 758 969 c 0
 729 997 672 1022 616 1022 c 1
 653 977 659 913 621 868 c 0
 571 813 475 821 438 887 c 0
 428 905 424 928 424 950 c 0
 424 1034 487 1106 571 1116 c 0
 705 1135 831 1034 860 907 c 0
 866 877 868 844 864 811 c 0
 854 702 795 588 684 555 c 0
 612 532 535 551 471 586 c 1
 319 676 188 870 123 1065 c 0
 119 1083 115 1106 106 1124 c 1
 94 1143 63 1124 47 1137 c 0
 39 1141 6 1219 0 1231 c 1
EndSplineSet
LCarets: 0 255 '    ' 1 0 
Ligature: 0 0 'half' bn_ta bn_hasanta
EndChar
StartChar: bn_half_tha
Encoding: 65553 -1 208
Width: 1024
VWidth: 1000
Flags: HW
HStem: 1133 98
VStem: 86 293 573 86 799 113<299 1133>
Fore
799 1343 m 1
 836 1307 870 1270 909 1235 c 1
 942 1229 985 1233 1020 1229 c 1
 1040 1200 1053 1165 1069 1133 c 1
 911 1133 l 1
 911 2 l 1
 909 4 864 33 858 43 c 0
 852 51 854 68 852 78 c 0
 836 172 776 244 713 299 c 0
 621 379 504 438 385 469 c 0
 346 479 305 485 264 492 c 0
 252 492 242 494 229 494 c 0
 211 494 201 500 197 514 c 1
 184 532 131 639 123 666 c 1
 266 666 485 711 551 817 c 0
 596 887 565 997 524 1055 c 0
 508 1075 489 1092 467 1104 c 0
 420 1124 373 1114 326 1102 c 1
 352 1069 379 1040 379 989 c 0
 381 891 283 815 188 844 c 0
 90 872 66 983 100 1073 c 0
 129 1147 195 1202 270 1223 c 0
 293 1229 317 1231 342 1231 c 0
 532 1231 680 1038 655 854 c 0
 643 770 590 694 528 637 c 0
 506 616 479 598 455 578 c 1
 487 567 516 547 545 528 c 0
 608 489 666 444 719 391 c 0
 745 365 778 334 797 299 c 1
 799 299 l 1
 799 1343 l 1
EndSplineSet
LCarets: 0 0 '    ' 1 0 
Ligature: 0 0 'half' bn_tha bn_hasanta
EndChar
StartChar: bn_half_da
Encoding: 65554 -1 209
Width: 546
VWidth: 1000
Flags: HW
HStem: 1135 94
VStem: 111 115 391 100
Fore
0 1231 m 1
 180 1229 369 1235 545 1229 c 1
 563 1200 578 1165 592 1133 c 1
 225 1133 l 1
 225 848 l 1
 301 924 377 985 467 1040 c 0
 473 1044 483 1051 492 1049 c 0
 504 1049 516 1034 526 1026 c 2
 602 969 l 1
 592 950 578 936 567 920 c 0
 489 809 461 637 528 485 c 0
 541 461 553 438 569 416 c 0
 580 399 592 387 602 371 c 1
 584 379 565 385 549 397 c 0
 524 414 506 440 487 463 c 0
 434 532 401 614 391 700 c 0
 387 737 391 774 391 811 c 1
 334 752 276 694 225 629 c 1
 223 629 l 2
 186 657 150 684 117 715 c 1
 106 842 117 995 113 1133 c 1
 90 1133 68 1133 49 1135 c 1
 31 1163 16 1198 0 1231 c 1
391 813 m 1
 391 809 393 811 393 813 c 1
 391 813 l 1
EndSplineSet
LCarets: 0 255 '    ' 1 0 
Ligature: 0 0 'half' bn_da bn_hasanta
EndChar
StartChar: bn_half_dha
Encoding: 65555 -1 210
Width: 956
VWidth: 1000
Flags: HW
HStem: 1133 98
VStem: 170 88 315 203 731 113<313 905 905 905 1075 1133> 784 59
Fore
731 1343 m 1
 768 1307 803 1270 842 1235 c 1
 874 1229 918 1233 952 1229 c 1
 973 1200 985 1165 1001 1133 c 1
 844 1133 l 1
 844 2 l 1
 842 4 797 33 791 43 c 0
 782 53 786 70 784 82 c 0
 768 176 717 250 662 311 c 0
 549 432 408 514 236 565 c 0
 223 569 209 571 197 575 c 1
 164 575 158 600 145 618 c 0
 137 629 92 694 82 717 c 1
 158 766 233 819 315 862 c 1
 315 864 l 1
 213 864 168 965 170 1047 c 0
 172 1149 242 1243 346 1257 c 0
 389 1264 434 1255 469 1229 c 0
 520 1190 539 1114 494 1063 c 0
 453 1018 379 1020 340 1067 c 0
 322 1090 315 1114 315 1143 c 1
 303 1137 293 1128 283 1118 c 0
 256 1087 250 1040 272 1004 c 0
 297 961 348 938 406 930 c 0
 416 930 424 928 434 928 c 0
 457 932 481 946 502 956 c 0
 582 993 621 1006 700 1032 c 0
 711 1036 725 1038 729 1047 c 0
 733 1055 731 1067 731 1075 c 2
 731 1343 l 1
731 905 m 1
 567 850 416 768 274 684 c 1
 274 682 l 1
 461 608 621 473 729 313 c 1
 731 313 l 1
 731 905 l 1
EndSplineSet
Ligature: 0 0 'half' bn_dha bn_hasanta
EndChar
StartChar: bn_half_na
Encoding: 65556 -1 211
Width: 342
VWidth: 1000
Flags: HW
HStem: 1133 98<76 311 76 76>
VStem: 84 246
Fore
0 1231 m 1
 311 1231 l 1
 340 1227 l 1
 360 1200 373 1165 387 1133 c 1
 76 1133 l 1
 47 1137 l 1
 29 1165 14 1198 0 1231 c 1
295 881 m 1
 317 850 334 819 330 780 c 0
 322 700 236 649 162 678 c 0
 150 684 137 690 127 698 c 0
 49 766 86 895 162 948 c 0
 258 1014 385 954 457 881 c 0
 492 846 524 795 510 743 c 1
 469 819 397 868 295 881 c 1
260 967 m 1
 260 963 262 965 262 967 c 1
 260 967 l 1
270 940 m 1
 270 936 272 938 272 940 c 1
 270 940 l 1
274 930 m 1
 274 926 276 928 276 930 c 1
 274 930 l 1
285 903 m 1
 285 899 287 901 287 903 c 1
 285 903 l 1
289 893 m 1
 289 889 291 891 291 893 c 1
 289 893 l 1
293 883 m 1
 293 879 295 881 295 883 c 1
 293 883 l 1
EndSplineSet
Ligature: 0 0 'half' bn_na bn_hasanta
LCarets: 0 0 '    ' 1 0 
EndChar
StartChar: bn_half_pa
Encoding: 65557 -1 212
Width: 681
VWidth: 1000
Flags: HW
HStem: 1098 92
VStem: 342 43
Fore
231 649 m 1
 240 664 252 674 264 686 c 0
 279 705 328 762 340 797 c 0
 356 856 309 911 258 899 c 0
 221 891 186 868 147 866 c 0
 111 864 70 883 66 924 c 1
 66 1038 131 1108 205 1151 c 0
 412 1266 655 1112 764 958 c 0
 797 911 795 911 795 852 c 0
 795 838 797 823 793 811 c 1
 776 840 758 866 737 891 c 0
 731 899 721 915 711 915 c 0
 700 915 690 903 684 897 c 2
 451 684 l 2
 449 682 389 623 373 616 c 0
 360 610 342 618 330 623 c 0
 297 631 264 643 231 649 c 1
616 1008 m 1
 539 1057 440 1124 330 1092 c 0
 272 1073 248 1044 240 985 c 1
 334 981 385 879 385 795 c 1
 616 1008 l 1
158 958 m 1
 158 954 160 956 160 958 c 1
 158 958 l 1
152 956 m 1
 152 952 154 954 154 956 c 1
 152 956 l 1
145 954 m 1
 145 950 147 952 147 954 c 1
 145 954 l 1
EndSplineSet
Ligature: 0 0 'half' bn_pa bn_hasanta
LCarets: 0 0 '    ' 1 0 
EndChar
StartChar: bn_half_pha
Encoding: 65558 -1 213
Width: 1263
VWidth: 1000
Flags: HW
HStem: 494 260 834 115 1133 98<385 1237 385 385>
VStem: 731 113<303 834> 786 57<66 70> 920 258
Fore
0 1231 m 1
 1237 1231 l 1
 1262 1227 l 1
 1282 1200 1294 1165 1309 1133 c 1
 385 1133 l 1
 618 860 l 1
 633 836 l 1
 559 756 479 684 403 606 c 1
 434 596 461 573 487 555 c 0
 551 510 608 455 657 397 c 0
 682 369 713 338 729 303 c 1
 731 303 l 1
 731 946 l 1
 784 946 838 950 891 944 c 0
 981 932 1065 885 1118 811 c 0
 1165 743 1221 604 1137 526 c 1
 1102 498 1051 481 999 504 c 0
 983 510 969 518 956 530 c 0
 899 588 907 688 975 733 c 0
 993 748 1036 762 1069 754 c 1
 1008 809 926 834 844 834 c 1
 844 2 l 1
 842 4 797 33 791 43 c 0
 784 49 786 61 786 70 c 0
 778 131 752 186 721 233 c 0
 643 348 522 436 391 477 c 0
 358 487 326 487 293 494 c 0
 279 496 270 508 262 518 c 2
 213 575 l 2
 207 584 193 596 193 606 c 128
 193 616 207 625 213 631 c 0
 233 649 252 670 270 688 c 2
 432 846 l 2
 455 868 479 889 500 913 c 1
 481 922 467 932 449 940 c 0
 418 952 385 963 352 975 c 0
 270 1001 162 1024 115 1094 c 0
 109 1104 104 1120 94 1128 c 0
 82 1139 61 1126 47 1137 c 0
 39 1141 6 1219 0 1231 c 1
EndSplineSet
Ligature: 0 0 'half' bn_pha bn_hasanta
EndChar
StartChar: bn_half_ba
Encoding: 65559 -1 214
Width: 614
VWidth: 1000
Flags: HW
HStem: 1133 98<82 502 82 82>
VStem: 502 113<629 997 997 997 1127 1133>
Fore
0 1231 m 1
 592 1231 l 1
 612 1229 l 1
 631 1200 645 1165 659 1133 c 1
 614 1133 l 1
 614 371 l 1
 612 373 567 401 561 412 c 0
 555 420 557 432 555 440 c 0
 549 502 492 571 453 608 c 0
 383 674 272 739 164 766 c 0
 152 768 133 770 123 776 c 0
 113 784 66 854 57 870 c 1
 152 938 326 1038 467 1081 c 0
 477 1085 494 1087 498 1098 c 0
 504 1106 502 1122 502 1133 c 1
 82 1133 l 1
 47 1137 l 1
 29 1165 14 1198 0 1231 c 1
502 997 m 1
 395 958 291 909 195 848 c 1
 258 821 l 1
 356 762 l 1
 446 686 l 1
 502 629 l 1
 502 997 l 1
EndSplineSet
Ligature: 0 0 'half' bn_ba bn_hasanta
EndChar
StartChar: bn_half_bha
Encoding: 65560 -1 215
Width: 886
VWidth: 1000
Flags: HW
HStem: 475 119 1133 98<76 864 76 76>
Fore
0 1231 m 1
 864 1231 l 1
 885 1227 l 1
 905 1200 918 1165 932 1133 c 1
 76 1133 l 1
 49 1135 l 1
 31 1163 16 1198 0 1231 c 1
82 1126 m 1
 106 1116 117 1112 123 1087 c 1
 129 1075 133 1063 137 1051 c 0
 193 924 270 788 365 692 c 0
 401 655 444 618 496 602 c 0
 610 565 733 655 772 760 c 0
 793 815 803 891 745 930 c 1
 735 903 717 881 696 860 c 0
 637 803 549 772 467 788 c 0
 383 807 307 895 332 983 c 0
 336 995 342 1008 350 1018 c 0
 401 1081 506 1057 524 977 c 0
 530 940 518 911 502 889 c 1
 594 877 686 948 690 1049 c 1
 731 1032 766 995 791 958 c 0
 891 805 823 563 653 492 c 1
 520 442 426 510 354 592 c 0
 240 721 133 936 82 1126 c 1
EndSplineSet
LCarets: 0 255 '    ' 1 0 
Ligature: 0 0 'half' bn_bha bn_hasanta
EndChar
StartChar: bn_half_ma
Encoding: 65561 -1 216
Width: 751
VWidth: 1000
Flags: HW
HStem: 782 258 1133 98<332 332 332 717>
Fore
0 1231 m 1
 729 1231 l 2
 758 1231 813 1182 829 1165 c 0
 889 1106 926 1024 922 940 c 0
 915 807 809 686 672 686 c 0
 651 686 633 688 612 692 c 0
 522 719 461 803 406 874 c 1
 389 795 291 762 221 793 c 0
 150 827 125 915 168 983 c 0
 182 1006 205 1020 227 1032 c 0
 254 1049 291 1044 319 1036 c 1
 281 1106 l 1
 256 1130 l 1
 190 1135 117 1130 49 1135 c 1
 31 1163 16 1198 0 1231 c 1
332 1133 m 1
 369 1071 381 1063 399 999 c 0
 403 989 403 979 408 971 c 0
 416 958 426 950 436 940 c 0
 453 922 469 901 485 881 c 0
 532 821 569 776 657 803 c 0
 739 825 801 893 819 975 c 0
 827 1020 827 1079 788 1110 c 0
 762 1133 754 1133 717 1133 c 2
 332 1133 l 1
EndSplineSet
LCarets: 0 255 '    ' 1 0 
Ligature: 0 0 'half' bn_ma bn_hasanta
EndChar
StartChar: bn_half_ya
Encoding: 65562 -1 217
Width: 1024
VWidth: 1000
Flags: HW
HStem: 1133 98<412 799 412 412 911 1001 911 911>
VStem: 799 113<293 1133> 854 57<66 70>
Fore
0 1231 m 1
 1001 1231 l 1
 1022 1227 l 1
 1042 1200 1055 1165 1069 1133 c 1
 911 1133 l 1
 911 2 l 1
 909 4 864 33 858 43 c 0
 852 49 854 61 854 70 c 0
 844 139 813 197 776 246 c 0
 690 356 561 440 426 477 c 0
 401 483 377 487 352 492 c 1
 305 492 303 496 281 518 c 2
 229 575 l 2
 221 584 205 594 207 606 c 0
 207 618 283 680 291 688 c 2
 442 827 l 2
 473 854 508 883 535 913 c 1
 457 948 469 948 389 969 c 0
 297 995 176 1016 123 1092 c 0
 117 1102 113 1120 102 1128 c 0
 88 1141 63 1126 49 1135 c 0
 39 1139 37 1153 33 1161 c 0
 20 1184 10 1208 0 1231 c 1
799 1133 m 1
 412 1133 l 1
 662 860 l 1
 676 836 l 1
 598 756 510 686 432 606 c 1
 465 592 496 571 526 551 c 0
 621 487 694 420 764 334 c 0
 776 319 786 305 799 293 c 1
 799 1133 l 1
639 860 m 1
 639 856 641 858 641 860 c 1
 639 860 l 1
643 858 m 1
 643 854 645 856 645 858 c 1
 643 858 l 1
EndSplineSet
LCarets: 0 0 '    ' 1 0 
Ligature: 0 0 'half' bn_ya bn_hasanta
EndChar
StartChar: bn_half_la
Encoding: 65564 -1 219
Width: 681
VWidth: 1000
Flags: HW
HStem: 1133 98<68 659 68 68>
VStem: 309 254
Fore
0 1231 m 1
 659 1231 l 1
 680 1229 l 1
 698 1200 713 1165 727 1133 c 1
 68 1133 l 1
 49 1135 l 1
 31 1163 16 1198 0 1231 c 1
319 625 m 1
 274 739 377 831 473 803 c 0
 555 778 588 676 539 606 c 0
 510 563 457 549 395 555 c 0
 283 565 164 631 133 733 c 0
 123 766 121 799 125 834 c 0
 133 920 172 1010 256 1047 c 0
 367 1094 483 1034 563 956 c 1
 565 1016 618 1067 680 1061 c 1
 750 1049 795 969 823 915 c 0
 846 872 852 872 852 823 c 2
 852 762 l 1
 850 762 l 1
 831 815 803 913 756 946 c 0
 719 973 678 963 653 926 c 0
 625 885 614 827 616 778 c 1
 614 778 l 1
 596 801 575 825 555 848 c 0
 524 887 489 928 440 946 c 0
 375 969 297 952 248 901 c 0
 201 854 172 770 205 707 c 0
 225 666 268 635 319 625 c 1
565 946 m 1
 565 942 567 944 567 946 c 1
 565 946 l 1
571 926 m 1
 571 922 573 924 573 926 c 1
 571 926 l 1
578 905 m 1
 578 901 580 903 580 905 c 1
 578 905 l 1
582 891 m 1
 582 887 584 889 584 891 c 1
 582 891 l 1
584 885 m 1
 584 881 586 883 586 885 c 1
 584 885 l 1
588 870 m 1
 588 866 590 868 590 870 c 1
 588 870 l 1
590 864 m 1
 590 860 592 862 592 864 c 1
 590 864 l 1
594 850 m 1
 594 846 596 848 596 850 c 1
 594 850 l 1
596 844 m 1
 596 840 598 842 598 844 c 1
 596 844 l 1
600 829 m 1
 600 825 602 827 602 829 c 1
 600 829 l 1
602 823 m 1
 602 819 604 821 604 823 c 1
 602 823 l 1
606 809 m 1
 606 805 608 807 608 809 c 1
 606 809 l 1
608 803 m 1
 608 799 610 801 610 803 c 1
 608 803 l 1
612 788 m 1
 612 784 614 786 614 788 c 1
 612 788 l 1
319 625 m 1
 319 621 322 623 322 625 c 1
 319 625 l 1
EndSplineSet
Ligature: 0 0 'half' bn_la bn_hasanta
LCarets: 0 0 '    ' 1 0 
EndChar
StartChar: bn_half_sha
Encoding: 65565 -1 220
Width: 614
VWidth: 1000
Flags: HW
HStem: 1077 152
Fore
0 1231 m 1
 96 1231 211 1225 283 1151 c 0
 305 1128 322 1102 334 1073 c 1
 342 1147 408 1204 475 1225 c 1
 551 1241 588 1214 631 1182 c 0
 666 1153 696 1122 727 1092 c 2
 764 1055 l 2
 784 1034 784 1030 784 999 c 2
 784 936 l 1
 768 948 756 965 741 979 c 2
 711 1014 l 2
 686 1042 662 1071 631 1094 c 0
 602 1116 573 1128 537 1116 c 0
 500 1106 469 1071 461 1034 c 1
 526 1026 588 956 616 905 c 0
 625 889 631 872 635 856 c 0
 647 793 590 743 530 739 c 0
 465 735 395 774 373 838 c 1
 371 838 l 1
 352 768 268 729 203 741 c 0
 152 750 104 791 109 846 c 0
 115 899 158 952 190 983 c 0
 217 1008 248 1028 283 1034 c 1
 242 1116 156 1077 63 1077 c 1
 0 1231 l 1
328 1071 m 1
 328 1067 330 1069 330 1071 c 1
 328 1071 l 1
317 1063 m 1
 317 1059 319 1061 319 1063 c 1
 317 1063 l 1
307 1055 m 1
 307 1051 309 1053 309 1055 c 1
 307 1055 l 1
354 940 m 1
 354 936 356 938 356 940 c 1
 354 940 l 1
356 928 m 1
 356 924 358 926 358 928 c 1
 356 928 l 1
358 915 m 1
 358 911 360 913 360 915 c 1
 358 915 l 1
360 903 m 1
 360 899 362 901 362 903 c 1
 360 903 l 1
362 891 m 1
 362 887 365 889 365 891 c 1
 362 891 l 1
365 879 m 1
 365 874 367 877 367 879 c 1
 365 879 l 1
367 866 m 1
 367 862 369 864 369 866 c 1
 367 866 l 1
369 854 m 1
 369 850 371 852 371 854 c 1
 369 854 l 1
371 842 m 1
 371 838 373 840 373 842 c 1
 371 842 l 1
EndSplineSet
Ligature: 0 0 'half' bn_sha bn_hasanta
EndChar
StartChar: bn_half_Sha
Encoding: 65566 -1 221
Width: 546
VWidth: 1000
Flags: HW
HStem: 1130 100
Fore
0 1231 m 1
 498 1231 l 2
 510 1231 532 1235 545 1229 c 0
 555 1223 557 1208 567 1202 c 0
 582 1192 596 1184 610 1174 c 0
 643 1149 672 1114 690 1077 c 0
 756 940 692 762 549 705 c 0
 477 676 395 678 326 711 c 0
 205 768 141 913 182 1040 c 0
 195 1075 211 1106 233 1133 c 1
 174 1137 98 1124 47 1137 c 1
 29 1165 14 1198 0 1231 c 1
559 883 m 1
 594 930 623 987 606 1047 c 0
 602 1059 596 1069 590 1079 c 0
 537 1153 422 1130 367 1071 c 1
 430 1008 494 944 559 883 c 1
518 844 m 1
 455 907 391 971 326 1032 c 1
 301 997 279 961 274 918 c 1
 274 866 291 829 324 809 c 0
 387 764 465 801 518 842 c 1
 518 844 l 1
EndSplineSet
Ligature: 0 0 'half' bn_Sha bn_hasanta
EndChar
StartChar: bn_half_sa
Encoding: 65567 -1 222
Width: 614
VWidth: 1000
Flags: HW
HStem: 846 129 1133 98<399 592 399 399>
Fore
0 1231 m 1
 592 1231 l 1
 612 1229 l 1
 631 1200 645 1165 659 1133 c 1
 399 1133 l 1
 453 1071 498 987 500 903 c 1
 524 928 551 956 586 971 c 0
 598 975 612 975 625 975 c 0
 696 967 727 901 754 842 c 0
 756 840 780 791 782 780 c 0
 786 750 782 719 782 688 c 1
 780 688 l 1
 752 748 702 870 612 846 c 0
 596 842 582 831 569 821 c 0
 504 762 463 680 406 612 c 0
 385 588 356 555 322 551 c 0
 303 551 287 565 274 575 c 0
 172 664 211 633 137 707 c 0
 125 719 115 733 109 750 c 1
 119 754 139 766 152 764 c 0
 160 760 168 750 176 741 c 0
 195 725 215 709 236 692 c 0
 248 684 258 676 274 680 c 0
 330 696 383 764 416 805 c 0
 418 807 455 844 455 858 c 0
 457 870 453 883 451 895 c 0
 430 981 358 1042 268 1053 c 0
 238 1057 209 1055 178 1063 c 0
 154 1071 131 1083 113 1100 c 0
 104 1108 98 1120 88 1126 c 0
 76 1137 59 1126 47 1137 c 0
 39 1141 6 1219 0 1231 c 1
EndSplineSet
Ligature: 0 0 'half' bn_sa bn_hasanta
EndChar
StartChar: bn_half_ha
Encoding: 65568 -1 223
Width: 989
VWidth: 1000
Flags: HW
HStem: 909 117 1133 98<551 967 551 551>
VStem: 842 74
Fore
0 1231 m 1
 967 1231 l 1
 987 1227 l 1
 1008 1200 1020 1165 1034 1133 c 1
 551 1133 l 1
 557 1110 565 1087 567 1065 c 0
 569 1057 567 1040 573 1032 c 0
 580 1026 596 1026 604 1026 c 0
 707 1008 793 979 858 911 c 0
 913 852 922 774 909 696 c 0
 889 553 772 410 629 362 c 1
 629 360 l 1
 659 348 766 270 797 248 c 0
 868 190 938 129 999 61 c 0
 1063 -8 1059 0 1098 -70 c 0
 1110 -92 1124 -115 1137 -139 c 1
 1118 -123 1104 -104 1087 -86 c 0
 928 88 680 240 406 297 c 0
 373 305 340 311 307 315 c 0
 293 317 272 315 260 324 c 0
 252 332 227 379 219 393 c 0
 188 453 154 506 125 567 c 1
 190 553 258 532 322 510 c 0
 397 481 410 459 485 475 c 1
 649 494 803 594 836 741 c 0
 844 782 848 827 817 860 c 0
 762 915 653 915 557 905 c 1
 553 864 539 823 518 786 c 0
 502 752 477 721 442 700 c 0
 358 651 246 686 209 778 c 0
 203 795 199 811 199 829 c 0
 199 936 268 983 346 1010 c 0
 389 1026 434 1034 481 1034 c 1
 469 1104 l 1
 453 1128 l 1
 332 1141 180 1124 49 1135 c 1
 31 1163 16 1198 0 1231 c 1
EndSplineSet
Ligature: 0 0 'half' bn_ha bn_hasanta
EndChar
StartChar: bn_half_asamiba
Encoding: 65572 -1 227
Width: 972
VWidth: 1000
Flags: HW
Fore
316 460 m 25
 695 226 l 25
 695 340 l 25
 408 514 l 25
 316 460 l 25
0 850 m 1
 0 933 l 1
 992 933 l 1
 992 850 l 1
 0 850 l 1
814 0 m 1
 703 64 l 1
 573 194 374 318 172 381 c 1
 101 489 l 1
 688 837 l 1
 688 850 l 1
 814 850 l 1
 814 0 l 1
695 702 m 1
 485 570 l 1
 695 441 l 1
 695 702 l 1
EndSplineSet
Ligature: 0 0 'half' bn_asamiba bn_hasanta
LCarets: 0 0 '    ' 1 0 
EndChar
StartChar: bn_half_asamira
Encoding: 65573 -1 228
Width: 972
VWidth: 1000
Flags: HW
Fore
130 213 m 9
 227 282 l 17
 430 209 497 141 611 62 c 9
 538 0 l 17
 439 83 299 170 130 213 c 9
0 850 m 1
 0 933 l 1
 992 933 l 1
 992 850 l 1
 0 850 l 1
814 0 m 1
 703 64 l 1
 573 194 374 318 172 381 c 1
 101 489 l 1
 688 837 l 1
 688 850 l 1
 814 850 l 1
 814 0 l 1
691 702 m 1
 307 473 l 1
 691 201 l 1
 691 702 l 1
EndSplineSet
Ligature: 0 0 'half' bn_asamira bn_hasanta
LCarets: 0 0 '    ' 1 0 
EndChar
StartChar: bn_t_hasanta
Encoding: 65589 -1 244
Width: 956
VWidth: 1000
Flags: HW
HStem: 1083 147
VStem: 629 92
Fore
936 -141 m 1
 915 -94 883 -51 864 -4 c 0
 856 16 858 39 852 59 c 0
 805 209 590 256 461 322 c 0
 291 403 143 553 121 748 c 0
 104 913 180 1079 322 1169 c 0
 369 1198 479 1257 559 1223 c 1
 680 1182 727 1036 721 920 c 0
 715 803 657 641 502 641 c 0
 371 641 307 768 291 872 c 0
 287 899 291 926 285 952 c 1
 266 913 252 874 248 831 c 0
 238 670 377 555 502 479 c 0
 653 389 918 270 952 53 c 0
 963 -12 952 -78 938 -141 c 1
 936 -141 l 1
475 1083 m 0
 444 1081 385 1057 365 1036 c 0
 344 1016 334 983 334 944 c 0
 338 858 418 797 502 803 c 0
 567 809 596 836 618 883 c 0
 657 971 588 1083 475 1083 c 0
EndSplineSet
Ligature: 0 0 'haln' bn_ta bn_hasanta
LCarets: 0 0 '    ' 1 0 
EndChar
StartChar: bn_ya_phala
Encoding: 65645 -1 300
Width: 497
VWidth: 1000
Flags: HW
HStem: 1133 98<68 268 68 68 399 416 416 457>
VStem: 274 117
Fore
0 1231 m 1
 457 1231 l 1
 496 1227 l 1
 516 1200 528 1165 543 1133 c 1
 416 1133 l 2
 383 1133 362 1137 354 1112 c 0
 283 944 358 612 381 426 c 0
 387 371 399 250 383 188 c 1
 350 88 264 4 166 -31 c 0
 137 -41 104 -49 74 -49 c 0
 63 -49 49 -49 39 -45 c 0
 23 -35 10 -12 0 2 c 1
 20 2 39 2 59 8 c 0
 154 31 244 113 268 207 c 0
 274 227 274 248 274 270 c 0
 274 342 262 416 248 487 c 0
 215 672 164 877 233 1059 c 0
 244 1083 254 1110 268 1133 c 1
 68 1133 l 1
 47 1137 l 1
 29 1165 14 1198 0 1231 c 1
EndSplineSet
Ligature: 0 0 'pstf' bn_ya bn_hasanta
LCarets: 0 0 '    ' 1 0 
EndChar
StartChar: bn_ra_phala
Encoding: 65646 -1 301
Width: 0
VWidth: 1000
Flags: HW
HStem: 94 137<-647 -512 -512 -485>
VStem: -225 113<168 330>
Fore
-930 330 m 1
 -895 301 -862 272 -819 256 c 0
 -764 231 -707 231 -647 231 c 2
 -512 231 l 2
 -459 231 -403 236 -350 227 c 0
 -303 219 -260 199 -225 168 c 1
 -225 330 l 1
 -113 330 l 1
 -113 -47 l 1
 -147 -27 -182 -2 -213 23 c 0
 -223 31 -227 43 -238 51 c 0
 -299 94 -381 94 -471 94 c 2
 -666 94 l 2
 -698 94 -729 94 -760 102 c 0
 -854 127 -930 209 -930 330 c 1
EndSplineSet
Ligature: 0 0 'blwf' bn_ra bn_hasanta
EndChar
StartChar: bn_ba_phala
Encoding: 65647 -1 302
Width: 0
VWidth: 1000
Flags: HW
VStem: -225 113<236 537 537 537 720 739> -172 59<66 86>
Fore
-225 739 m 1
 -113 739 l 1
 -113 2 l 1
 -115 4 -160 33 -166 43 c 0
 -170 49 -170 57 -172 66 c 0
 -172 106 -225 174 -252 201 c 0
 -319 266 -418 313 -522 340 c 0
 -535 344 -551 344 -563 350 c 0
 -578 356 -616 416 -623 432 c 1
 -520 494 l 1
 -436 535 -356 578 -262 608 c 1
 -229 625 l 1
 -223 657 -225 700 -225 739 c 1
-225 537 m 1
 -291 514 -350 487 -412 461 c 1
 -498 412 l 1
 -426 385 -379 360 -322 319 c 0
 -287 293 -258 262 -225 236 c 1
 -225 537 l 1
EndSplineSet
Ligature: 0 0 'blwf' bn_ba bn_hasanta
EndChar
StartChar: bn_reph
Encoding: 65648 -1 303
Width: 0
VWidth: 1000
Flags: HW
Fore
3 1691 m 5
 -3 1665 -11 1640 -21 1617 c 5
 -408 1310 l 5
 -443 1290 l 5
 -490 1314 -529 1347 -572 1376 c 5
 3 1691 l 5
EndSplineSet
LCarets: 0 255 '    ' 1 0 
Ligature: 0 0 'rphf' bn_ra bn_hasanta
EndChar
StartChar: bn_k_ka
Encoding: 65651 -1 306
Width: 1161
VWidth: 1000
Flags: HW
HStem: 299 180 1135 96
VStem: 645 113<262 678 678 678 803 811 811 985 985 985 1126 1133>
Fore
0 1231 m 1
 1137 1231 l 1
 1159 1227 l 1
 1180 1200 1192 1165 1206 1133 c 1
 758 1133 l 1
 758 1110 758 1094 780 1094 c 1
 815 1087 864 1065 891 1044 c 1
 991 979 1055 854 1040 733 c 0
 1036 694 1036 645 997 623 c 1
 1038 561 1049 477 1038 406 c 0
 1036 391 1036 377 1032 365 c 0
 1014 301 936 276 885 319 c 0
 846 350 842 412 874 451 c 0
 913 494 975 487 1014 451 c 1
 997 506 971 561 928 600 c 0
 915 610 899 614 887 625 c 0
 877 633 868 645 858 651 c 0
 829 672 791 682 758 688 c 1
 758 2 l 1
 752 6 713 31 705 43 c 0
 698 53 700 63 698 74 c 0
 690 139 635 207 592 246 c 0
 506 322 354 401 211 426 c 0
 195 430 172 428 156 436 c 0
 143 442 137 455 129 465 c 2
 96 506 l 2
 88 516 78 526 74 539 c 1
 219 618 l 1
 369 686 l 1
 311 705 252 729 184 737 c 0
 174 739 162 739 154 743 c 0
 143 752 135 764 127 774 c 0
 109 797 84 819 74 846 c 1
 123 872 170 901 219 926 c 0
 373 1001 453 1028 604 1075 c 0
 614 1079 635 1081 641 1092 c 0
 649 1102 645 1120 645 1133 c 1
 449 1135 242 1128 49 1135 c 1
 31 1163 16 1198 0 1231 c 1
1014 758 m 1
 985 877 883 981 758 995 c 1
 758 811 l 2
 758 788 766 791 782 784 c 0
 797 782 809 778 823 772 c 0
 836 768 852 754 866 756 c 0
 870 756 899 776 907 780 c 0
 948 799 981 782 1014 758 c 1
645 985 m 1
 506 946 365 889 244 825 c 1
 244 823 l 1
 305 813 389 772 442 739 c 0
 451 735 459 727 469 727 c 0
 477 725 549 752 561 756 c 0
 582 762 600 766 621 772 c 0
 641 776 645 780 645 803 c 2
 645 985 l 1
451 719 m 1
 451 715 453 717 453 719 c 1
 451 719 l 1
434 713 m 1
 434 709 436 711 436 713 c 1
 434 713 l 1
418 707 m 1
 418 702 420 705 420 707 c 1
 418 707 l 1
408 702 m 1
 408 698 410 700 410 702 c 1
 408 702 l 1
397 698 m 1
 397 694 399 696 399 698 c 1
 397 698 l 1
387 694 m 1
 387 690 389 692 389 694 c 1
 387 694 l 1
377 690 m 1
 377 686 379 688 379 690 c 1
 377 690 l 1
645 678 m 1
 506 639 365 582 244 518 c 1
 244 516 l 1
 406 479 549 373 643 262 c 1
 645 262 l 1
 645 678 l 1
EndSplineSet
LCarets: 0 255 '    ' 1 0 
Ligature: 0 0 'pres' bn_half_ka bn_ka
EndChar
StartChar: bn_k_Ta
Encoding: 65652 -1 307
Width: 886
VWidth: 1000
Flags: HW
HStem: 729 145 1133 98<78 424 78 78 537 788 537 537>
VStem: 424 113<731 1026 1026 1026 1122 1133>
Fore
-309 1231 m 5
 479 1231 l 5
 506 1229 l 5
 527 1200 539 1165 555 1133 c 5
 228 1133 l 5
 228 1122 l 5
 381 1096 469 913 406 774 c 4
 383 723 316 715 281 758 c 4
 248 801 271 864 324 874 c 4
 350 881 373 870 393 852 c 5
 383 942 314 1014 228 1040 c 5
 228 494 l 5
 217 498 185 522 174 532 c 5
 170 541 170 551 168 559 c 4
 160 610 113 670 80 702 c 5
 10 764 -67 805 -166 831 c 4
 -178 836 -192 836 -203 842 c 4
 -215 852 -250 905 -260 922 c 5
 -190 971 -30 1065 80 1098 c 5
 103 1108 115 1106 115 1133 c 5
 -231 1133 l 5
 -262 1137 l 5
 -280 1165 -295 1198 -309 1231 c 5
115 1026 m 5
 29 993 l 5
 -141 903 l 5
 -90 883 -45 856 -2 829 c 5
 39 799 80 768 115 731 c 5
 115 1026 l 5
768 1231 m 1
 745 1300 655 1335 586 1350 c 0
 549 1358 510 1362 471 1364 c 2
 403 1364 l 1
 266 1372 63 1399 45 1546 c 1
 37 1589 41 1634 57 1673 c 0
 63 1686 72 1706 86 1710 c 0
 117 1714 121 1653 119 1624 c 0
 117 1614 111 1599 117 1591 c 1
 121 1573 178 1550 199 1542 c 0
 266 1520 338 1511 410 1507 c 2
 477 1507 l 1
 668 1499 829 1434 829 1231 c 1
 848 1231 868 1231 885 1229 c 1
 903 1200 918 1165 932 1133 c 1
 225 1133 l 1
 225 496 l 2
 225 469 221 440 231 416 c 0
 250 373 297 332 346 330 c 0
 377 330 410 342 436 358 c 0
 526 412 586 518 606 618 c 1
 563 623 530 641 508 668 c 0
 449 735 459 846 535 899 c 0
 584 934 641 934 696 911 c 1
 778 870 786 782 774 692 c 0
 748 506 639 301 500 203 c 0
 461 174 365 117 279 137 c 1
 201 162 152 260 129 336 c 0
 113 391 113 444 113 502 c 2
 113 1133 l 1
 90 1133 68 1133 49 1135 c 1
 31 1163 16 1198 0 1231 c 1
 768 1231 l 1
EndSplineSet
LCarets: 0 255 '    ' 1 0 
Ligature: 0 0 'pres' bn_half_ka bn_Ta
EndChar
StartChar: bn_k_ma
Encoding: 65653 -1 308
Width: 1044
VWidth: 1000
Flags: HW
HStem: 311 268 1133 98<-258 117 -258 -258 229 319 229 229>
VStem: 117 113<336 1133> 172 57<65 70>
Fore
371 1231 m 1
 1028 1231 l 1
 1049 1229 l 1
 1067 1200 1082 1165 1096 1133 c 1
 938 1133 l 1
 938 2 l 1
 928 6 895 31 885 41 c 1
 881 49 881 59 881 70 c 0
 873 125 856 156 832 201 c 0
 781 295 689 371 592 414 c 1
 588 397 582 381 572 367 c 0
 514 285 379 293 336 387 c 0
 328 406 324 426 324 446 c 0
 324 506 365 559 422 573 c 0
 451 582 482 580 510 575 c 0
 611 557 699 492 764 416 c 0
 785 391 809 365 824 336 c 1
 826 336 l 1
 826 1133 l 1
 451 1133 l 1
 418 1137 l 1
 400 1165 385 1198 371 1231 c 1
0 1231 m 1
 788 1231 l 1
 815 1229 l 1
 836 1200 848 1165 864 1133 c 1
 537 1133 l 1
 537 1122 l 1
 690 1096 778 913 715 774 c 0
 692 723 625 715 590 758 c 0
 557 801 580 864 633 874 c 0
 659 881 682 870 702 852 c 1
 692 942 623 1014 537 1040 c 1
 537 494 l 1
 526 498 494 522 483 532 c 1
 479 541 479 551 477 559 c 0
 469 610 422 670 389 702 c 1
 319 764 242 805 143 831 c 0
 131 836 117 836 106 842 c 0
 94 852 59 905 49 922 c 1
 119 971 279 1065 389 1098 c 1
 412 1108 424 1106 424 1133 c 1
 78 1133 l 1
 47 1137 l 1
 29 1165 14 1198 0 1231 c 1
424 1026 m 1
 338 993 l 1
 168 903 l 1
 219 883 264 856 307 829 c 1
 348 799 389 768 424 731 c 1
 424 1026 l 1
EndSplineSet
LCarets: 0 255 '    ' 1 0 
Ligature: 0 0 'pres' bn_half_ka bn_ma
EndChar
StartChar: bn_k_sa
Encoding: 65654 -1 309
Width: 1228
VWidth: 1000
Flags: HW
HStem: 578 190 1090 43<633 633> 1133 98<84 520 84 84 633 633 633 1004 1116 1202 1116 1116>
VStem: 520 113<547 969 969 969 1090 1133> 1006 111
Fore
0 1231 m 1
 1202 1231 l 1
 1227 1227 l 1
 1247 1200 1260 1165 1274 1133 c 1
 1116 1133 l 1
 1116 2 l 1
 1090 18 1065 39 1038 57 c 0
 1028 63 1012 72 1006 84 c 0
 1001 96 1004 115 1004 127 c 2
 1004 197 l 2
 1004 209 1006 221 1004 233 c 0
 999 250 983 264 973 274 c 0
 940 307 899 332 852 338 c 0
 809 342 768 311 735 285 c 0
 659 227 592 158 518 96 c 0
 500 82 442 33 399 33 c 1
 356 37 221 152 176 193 c 0
 162 205 145 217 137 236 c 1
 141 238 178 254 193 250 c 0
 205 246 215 233 225 227 c 0
 248 211 270 195 293 180 c 0
 309 170 326 160 346 164 c 0
 401 176 496 250 541 289 c 0
 551 297 565 307 571 317 c 0
 580 330 573 348 569 360 c 0
 561 399 541 434 520 467 c 0
 446 573 315 666 176 709 c 0
 162 713 141 715 127 723 c 0
 117 731 111 745 104 756 c 0
 88 780 70 803 59 829 c 1
 100 856 137 887 178 913 c 0
 289 983 356 1016 473 1061 c 0
 489 1067 504 1073 520 1077 c 1
 520 1133 l 1
 84 1133 l 1
 47 1137 l 1
 29 1165 14 1198 0 1231 c 1
1004 1133 m 1
 633 1133 l 1
 633 1090 l 1
 664 1085 692 1075 719 1061 c 0
 838 1001 911 866 891 733 c 0
 883 670 856 586 782 578 c 1
 754 578 739 584 721 594 c 1
 668 633 666 711 717 750 c 0
 760 784 805 768 846 739 c 1
 840 854 752 963 633 983 c 1
 633 365 l 1
 651 375 668 389 684 401 c 0
 707 418 772 467 819 467 c 0
 862 467 905 446 932 424 c 0
 958 401 979 373 1004 348 c 1
 1004 1133 l 1
520 969 m 1
 403 928 301 866 203 803 c 1
 203 799 l 1
 334 745 436 651 518 547 c 1
 520 547 l 1
 520 969 l 1
160 760 m 1
 160 756 162 758 162 760 c 1
 160 760 l 1
EndSplineSet
LCarets: 0 255 '    ' 1 0 
Ligature: 0 0 'pres' bn_half_ka bn_sa
EndChar
StartChar: bn_k_na
Encoding: 65655 -1 310
Width: 1296
VWidth: 1000
Flags: HW
HStem: 479 221 1071 61<842 842> 1133 98<68 729 68 68 842 1270 842 842>
VStem: 281 262 729 113<264 274 416 938 938 938 1085 1133>
Fore
0 1231 m 1
 1270 1231 l 1
 1294 1227 l 1
 1315 1200 1327 1165 1341 1133 c 1
 842 1133 l 1
 842 1071 l 1
 883 1067 924 1055 961 1036 c 0
 1096 969 1182 831 1182 680 c 0
 1182 635 1171 573 1155 537 c 1
 1114 461 997 461 958 539 c 0
 924 608 969 692 1047 700 c 0
 1083 702 1114 688 1141 664 c 1
 1116 772 1047 864 948 915 c 0
 913 932 879 940 842 950 c 1
 842 2 l 1
 836 6 797 31 788 43 c 0
 782 53 784 68 780 78 c 0
 774 113 745 158 725 184 c 0
 674 248 590 305 506 305 c 1
 520 289 532 268 539 246 c 0
 557 168 504 90 424 82 c 1
 324 82 270 150 283 248 c 1
 299 332 365 403 453 410 c 0
 561 418 662 340 729 264 c 1
 729 285 733 311 727 330 c 0
 719 358 647 426 623 444 c 0
 528 522 418 575 303 614 c 0
 274 625 246 631 217 637 c 0
 166 645 166 649 143 682 c 0
 139 688 90 752 82 768 c 1
 233 862 391 944 559 1006 c 2
 680 1047 l 2
 692 1051 719 1053 725 1065 c 0
 729 1071 729 1079 729 1085 c 2
 729 1133 l 1
 68 1133 l 1
 49 1135 l 1
 31 1163 16 1198 0 1231 c 1
729 938 m 1
 573 887 449 836 315 764 c 0
 301 758 287 750 274 739 c 1
 315 731 356 713 393 694 c 0
 496 643 616 551 692 459 c 0
 705 444 715 428 729 416 c 1
 729 938 l 1
EndSplineSet
LCarets: 0 255 '    ' 1 0 
Ligature: 0 0 'pres' bn_half_ka bn_na
EndChar
StartChar: bn_k_la
Encoding: 65656 -1 311
Width: 1296
VWidth: 1000
Flags: HW
HStem: 514 211 1079 53<842 842> 1133 98<68 729 68 68 842 1270 842 842>
VStem: 274 221 731 111
Fore
0 1231 m 1
 1270 1231 l 1
 1294 1227 l 1
 1315 1200 1327 1165 1341 1133 c 1
 842 1133 l 1
 842 1079 l 1
 1028 1059 1171 883 1171 698 c 0
 1171 664 1163 596 1149 567 c 0
 1143 557 1135 547 1124 539 c 0
 1071 494 989 510 961 573 c 0
 930 637 973 713 1042 723 c 0
 1079 727 1110 711 1137 686 c 1
 1106 823 993 936 842 963 c 1
 842 2 l 1
 815 18 788 39 762 57 c 0
 752 66 735 74 731 86 c 0
 725 100 729 121 729 135 c 2
 729 240 l 2
 729 258 733 283 721 299 c 0
 690 342 633 342 604 303 c 1
 573 268 563 219 563 174 c 1
 537 190 516 217 494 240 c 0
 444 289 387 332 315 326 c 0
 236 317 160 264 143 182 c 0
 127 80 217 39 289 25 c 1
 260 78 270 147 326 180 c 1
 367 213 436 193 467 162 c 0
 510 115 504 37 455 -2 c 0
 432 -20 406 -25 377 -27 c 0
 252 -39 135 18 92 106 c 0
 45 209 92 346 190 399 c 0
 297 455 428 403 510 328 c 1
 514 389 573 432 633 418 c 0
 670 408 709 375 727 342 c 1
 729 342 l 1
 729 352 731 365 727 375 c 0
 721 391 707 403 696 416 c 0
 592 535 399 635 197 668 c 1
 164 668 154 688 141 709 c 1
 121 733 96 760 82 788 c 1
 297 918 430 971 655 1047 c 0
 680 1055 705 1063 729 1067 c 1
 729 1133 l 1
 68 1133 l 1
 49 1135 l 1
 31 1163 16 1198 0 1231 c 1
729 950 m 1
 567 899 410 842 274 764 c 1
 319 748 365 733 410 713 c 0
 506 668 608 590 680 512 c 0
 696 494 711 473 729 457 c 1
 729 950 l 1
557 186 m 1
 557 182 559 184 559 186 c 1
 557 186 l 1
559 180 m 1
 559 176 561 178 561 180 c 1
 559 180 l 1
EndSplineSet
LCarets: 0 255 '    ' 1 0 
Ligature: 0 0 'pres' bn_half_ka bn_la
EndChar
StartChar: bn_k_ta
Encoding: 65657 -1 312
Width: 1091
VWidth: 1000
Flags: HW
HStem: 61 100 688 160 1135 96
VStem: 412 223 594 113<674 1016 1016 1016 1128 1133> 831 70
Fore
0 1231 m 1
 1067 1231 l 1
 1090 1227 l 1
 1110 1200 1122 1165 1137 1133 c 1
 707 1133 l 1
 707 1112 l 1
 846 1092 942 958 942 827 c 0
 942 797 938 764 928 735 c 0
 903 680 823 672 788 721 c 0
 758 768 780 836 838 846 c 0
 866 852 893 842 915 821 c 1
 887 922 809 1001 707 1024 c 1
 707 655 l 2
 707 643 705 629 709 616 c 0
 713 604 733 602 743 596 c 0
 770 584 797 565 819 545 c 0
 967 408 891 184 776 109 c 1
 680 41 561 47 459 98 c 0
 305 176 176 328 96 485 c 0
 70 537 43 590 33 647 c 1
 59 639 74 633 80 606 c 1
 98 565 l 1
 160 440 262 315 373 238 c 0
 422 203 479 174 539 164 c 0
 627 150 723 180 782 246 c 0
 831 301 856 391 805 455 c 0
 768 504 686 535 604 535 c 1
 649 483 647 401 584 360 c 0
 514 315 412 362 412 455 c 0
 412 563 485 612 571 631 c 1
 489 709 367 772 236 799 c 0
 219 803 199 801 184 809 c 0
 174 815 168 827 160 838 c 0
 145 856 127 874 117 897 c 1
 319 1012 362 1030 555 1094 c 0
 565 1096 582 1098 590 1106 c 0
 596 1112 594 1124 594 1133 c 1
 414 1135 225 1128 49 1135 c 1
 31 1163 16 1198 0 1231 c 1
594 1016 m 1
 438 969 412 950 295 897 c 0
 285 891 272 887 264 877 c 1
 354 856 438 805 510 750 c 0
 539 725 565 696 594 674 c 1
 594 1016 l 1
EndSplineSet
Ligature: 0 0 'pres' bn_half_ka bn_ta
EndChar
StartChar: bn_k_ra
Encoding: 65658 -1 313
Width: 1468
VWidth: 1000
Flags: HW
Fore
1274 520 m 5
 1301.33 552.667 1303.33 582.667 1280 610 c 5
 1268 626.667 1252.33 635 1233 635 c 5
 1192 629 l 5
 1160.67 611 1151 577.333 1163 528 c 5
 1187 474.667 1230.67 451 1294 457 c 4
 1326 461 1357.33 474 1388 496 c 5
 1455.33 538.667 1478.67 593 1458 659 c 4
 1436.67 723.667 1378.67 764 1284 780 c 5
 1208 780 l 5
 1192 772.667 1153.67 744.667 1093 696 c 6
 1091 694 l 5
 1077 682 l 5
 1075 629 l 5
 1141 692 l 5
 1157 700 l 5
 1196.33 731.333 1243.33 733 1298 705 c 5
 1318.67 693 1335 677.667 1347 659 c 5
 1367.67 617 1357 579 1315 545 c 5
 1274 520 l 5
0 1231 m 1
 1167 1231 l 1
 1460 1230 l 1
 1480 1203 1531 1162 1545 1130 c 1
 930 1133 l 1
 930 1130 l 1
 997 1100 1063 1028 1077 954 c 0
 1081 934 1081 915 1081 895 c 2
 1081 2 l 1
 1071 6 1038 31 1028 41 c 0
 1022 49 1024 63 1018 74 c 0
 1014 86 979 127 969 135 c 0
 948 154 918 164 893 174 c 0
 766 215 631 203 500 215 c 0
 303 236 115 336 72 520 c 1
 41 637 98 766 139 844 c 1
 182 823 l 1
 139 739 109 625 156 537 c 0
 188 469 264 418 338 391 c 0
 406 365 475 356 547 350 c 0
 588 348 631 350 672 344 c 0
 780 326 885 279 969 207 c 1
 969 870 l 2
 969 903 971 938 963 969 c 0
 944 1024 893 1065 834 1065 c 0
 770 1065 715 1012 684 975 c 0
 649 936 621 891 602 844 c 1
 655 844 705 815 733 782 c 0
 795 709 788 594 715 528 c 1
 657 483 606 477 535 496 c 1
 520 502 506 510 494 518 c 0
 424 565 408 651 416 729 c 0
 430 854 506 977 600 1059 c 0
 633 1087 672 1116 715 1130 c 1
 715 1133 l 1
 68 1133 l 1
 49 1135 l 1
 31 1163 16 1198 0 1231 c 1
EndSplineSet
Ligature: 0 0 'vatu' bn_ka bn_ra_phala
EndChar
StartChar: bn_k_Sha
Encoding: 65659 -1 314
Width: 1501
VWidth: 1000
Flags: HW
HStem: 360 266 717 266 852 131<1057 1072> 1133 98<86 92 92 180 344 344 344 524 623 623 623 944 1057 1470 1057 1057>
VStem: 438 268 944 113<365 852 985 1133> 997 59 1319 76
Fore
0 1231 m 1
 1470 1231 l 1
 1499 1227 l 1
 1520 1200 1532 1165 1546 1133 c 1
 1057 1133 l 1
 1057 983 l 1
 1092 983 1126 981 1161 979 c 0
 1188 979 1212 981 1239 975 c 0
 1276 969 1307 942 1327 913 c 0
 1397 821 1417 662 1368 547 c 0
 1331 461 1247 408 1155 444 c 1
 1141 453 1128 461 1118 471 c 0
 1055 535 1071 645 1151 688 c 0
 1217 721 1268 694 1309 668 c 1
 1315 690 1321 713 1321 735 c 0
 1321 772 1303 813 1278 831 c 0
 1241 862 1194 856 1151 854 c 0
 1120 852 1087 852 1057 852 c 1
 1057 2 l 1
 1051 6 1012 31 1004 43 c 0
 995 55 999 76 997 90 c 0
 995 121 989 150 981 178 c 0
 950 293 862 487 707 494 c 1
 707 428 657 369 594 360 c 0
 502 344 420 428 438 520 c 1
 455 575 485 612 543 625 c 0
 571 633 606 629 635 621 c 1
 627 664 612 705 588 741 c 0
 545 805 473 840 397 846 c 1
 391 774 350 725 281 717 c 1
 248 709 205 725 184 739 c 0
 117 786 109 887 166 946 c 1
 217 989 238 983 313 983 c 1
 303 1024 279 1063 254 1096 c 0
 231 1130 225 1133 180 1133 c 2
 92 1133 l 2
 80 1133 57 1128 47 1137 c 0
 39 1141 6 1219 0 1231 c 1
944 854 m 1
 817 862 698 938 627 1014 c 0
 606 1036 588 1061 571 1087 c 0
 557 1110 557 1133 524 1133 c 2
 344 1133 l 1
 367 1047 373 1057 385 985 c 0
 387 979 387 971 391 967 c 0
 397 961 408 958 416 954 c 0
 532 911 623 805 670 690 c 1
 688 635 l 1
 690 625 690 610 698 602 c 0
 707 592 723 586 735 580 c 0
 823 524 887 451 942 365 c 1
 944 365 l 1
 944 854 l 1
944 1133 m 1
 623 1133 l 1
 639 1059 682 1018 752 1001 c 0
 813 985 881 985 944 985 c 1
 944 1133 l 1
313 983 m 1
 313 979 315 981 315 983 c 1
 313 983 l 1
EndSplineSet
LCarets: 0 255 '    ' 1 0 
Ligature: 0 0 'pres' bn_half_ka bn_Sha
EndChar
StartChar: bn_k_Sh_ma
Encoding: 65660 -1 315
Width: 1843
VWidth: 1000
Flags: HW
HStem: 717 266 852 131<1057 1072> 1133 98<86 92 92 180 344 344 344 524 625 625 625 944 1057 1057 1057 1618 1731 1808 1731 1731>
VStem: 438 268 944 113<365 852 985 1133> 997 59 1319 74 1618 113<340 1133> 1673 57<61 86>
Fore
0 1231 m 1
 1808 1231 l 1
 1841 1227 l 1
 1862 1200 1874 1165 1888 1133 c 1
 1731 1133 l 1
 1731 2 l 1
 1729 4 1683 33 1677 43 c 0
 1673 49 1673 57 1673 66 c 0
 1673 106 1653 168 1636 201 c 0
 1587 307 1513 399 1419 471 c 0
 1405 483 1362 512 1356 512 c 0
 1346 510 1339 500 1335 494 c 0
 1325 481 1313 469 1298 459 c 0
 1243 420 1161 424 1114 477 c 0
 1055 545 1079 662 1167 694 c 0
 1225 715 1272 694 1309 670 c 1
 1315 690 1321 711 1321 731 c 0
 1321 774 1305 807 1282 829 c 0
 1245 862 1196 856 1151 854 c 0
 1120 852 1087 852 1057 852 c 1
 1057 2 l 1
 1047 6 1014 31 1004 41 c 1
 995 55 999 76 997 90 c 0
 995 121 987 152 981 182 c 0
 950 295 860 487 707 494 c 1
 707 428 657 369 594 360 c 0
 471 346 403 465 451 555 c 0
 469 590 498 612 535 625 c 0
 569 633 600 627 635 623 c 1
 625 664 614 702 590 737 c 0
 549 803 473 840 397 846 c 1
 391 774 350 725 281 717 c 1
 248 709 205 725 184 739 c 0
 117 786 109 887 166 946 c 1
 217 989 238 983 313 983 c 1
 303 1024 279 1063 254 1096 c 0
 231 1130 225 1133 180 1133 c 2
 92 1133 l 2
 80 1133 57 1128 47 1137 c 0
 39 1141 6 1219 0 1231 c 1
944 854 m 1
 817 862 700 936 629 1012 c 0
 602 1040 573 1077 555 1116 c 1
 545 1130 545 1133 524 1133 c 2
 344 1133 l 1
 365 1057 375 1053 385 985 c 0
 387 979 387 971 391 967 c 0
 397 961 408 958 416 954 c 0
 532 911 623 805 670 690 c 1
 688 635 l 1
 690 625 690 610 698 602 c 0
 707 592 723 586 735 580 c 0
 823 524 887 451 942 365 c 1
 944 365 l 1
 944 854 l 1
944 1133 m 1
 625 1133 l 1
 629 1098 637 1079 655 1057 c 0
 711 989 836 985 944 985 c 1
 944 1133 l 1
1618 1133 m 1
 1057 1133 l 1
 1057 983 l 1
 1092 983 1128 979 1163 979 c 0
 1194 979 1227 981 1255 971 c 0
 1335 940 1372 844 1386 766 c 0
 1395 721 1399 676 1391 631 c 1
 1391 598 1401 596 1421 580 c 1
 1497 504 1561 434 1616 340 c 1
 1618 340 l 1
 1618 1133 l 1
313 983 m 1
 313 979 315 981 315 983 c 1
 313 983 l 1
EndSplineSet
LCarets: 0 255 '    ' 2 0 0 
Ligature: 0 0 'pres' bn_half_ka bn_half_Sha bn_ma
EndChar
StartChar: bn_k_Sh_Na
Encoding: 65661 -1 316
Width: 1501
VWidth: 1000
Flags: HW
VStem: -225 113<242 289> -170 57<58 61>
Fore
683 236 m 1
 705 211 730 168 724 121 c 0
 709 6 582 -35 498 20 c 1
 457 55 435 100 443 166 c 0
 455 258 527 334 619 346 c 0
 656 350 695 342 730 332 c 0
 812 307 881 258 941 199 c 1
 941 246 l 1
 1053 246 l 1
 1053 -41 l 1
 1051 -39 1006 -10 1000 0 c 0
 996 4 996 12 996 18 c 0
 990 53 959 96 937 123 c 0
 890 174 818 209 750 225 c 0
 728 231 705 231 683 236 c 1
648 322 m 1
 648 317 650 319 650 322 c 1
 648 322 l 1
0 1231 m 1
 1470 1231 l 1
 1499 1227 l 1
 1520 1200 1532 1165 1546 1133 c 1
 1057 1133 l 1
 1057 983 l 1
 1092 983 1126 981 1161 979 c 0
 1188 979 1212 981 1239 975 c 0
 1276 969 1307 942 1327 913 c 0
 1397 821 1417 662 1368 547 c 0
 1331 461 1247 408 1155 444 c 1
 1141 453 1128 461 1118 471 c 0
 1055 535 1071 645 1151 688 c 0
 1217 721 1268 694 1309 668 c 1
 1315 690 1321 713 1321 735 c 0
 1321 772 1303 813 1278 831 c 0
 1241 862 1194 856 1151 854 c 0
 1120 852 1087 852 1057 852 c 1
 1057 2 l 1
 1051 6 1012 31 1004 43 c 0
 995 55 999 76 997 90 c 0
 995 121 989 150 981 178 c 0
 950 293 862 487 707 494 c 1
 707 428 657 369 594 360 c 0
 502 344 420 428 438 520 c 1
 455 575 485 612 543 625 c 0
 571 633 606 629 635 621 c 1
 627 664 612 705 588 741 c 0
 545 805 473 840 397 846 c 1
 391 774 350 725 281 717 c 1
 248 709 205 725 184 739 c 0
 117 786 109 887 166 946 c 1
 217 989 238 983 313 983 c 1
 303 1024 279 1063 254 1096 c 0
 231 1130 225 1133 180 1133 c 2
 92 1133 l 2
 80 1133 57 1128 47 1137 c 0
 39 1141 6 1219 0 1231 c 1
944 854 m 1
 817 862 698 938 627 1014 c 0
 606 1036 588 1061 571 1087 c 0
 557 1110 557 1133 524 1133 c 2
 344 1133 l 1
 367 1047 373 1057 385 985 c 0
 387 979 387 971 391 967 c 0
 397 961 408 958 416 954 c 0
 532 911 623 805 670 690 c 1
 688 635 l 1
 690 625 690 610 698 602 c 0
 707 592 723 586 735 580 c 0
 823 524 887 451 942 365 c 1
 944 365 l 1
 944 854 l 1
944 1133 m 1
 623 1133 l 1
 639 1059 682 1018 752 1001 c 0
 813 985 881 985 944 985 c 1
 944 1133 l 1
313 983 m 1
 313 979 315 981 315 983 c 1
 313 983 l 1
EndSplineSet
Ligature: 0 0 'pres' bn_half_ka bn_half_Sha bn_Na
LCarets: 0 0 '    ' 2 0 0 
EndChar
StartChar: bn_k_T_ra
Encoding: 65662 -1 317
Width: 956
VWidth: 1000
Flags: HW
HStem: 647 59 1133 98<82 492 82 82 604 934 604 604>
VStem: 492 113<772 1047 1047 1047> 674 113<129 506>
Fore
0 1231 m 1
 934 1231 l 1
 954 1227 l 1
 975 1200 987 1165 1001 1133 c 1
 604 1133 l 1
 604 1130 l 1
 721 1110 807 997 807 881 c 0
 807 862 807 840 803 821 c 0
 786 770 719 756 686 797 c 0
 653 836 676 897 725 905 c 0
 750 911 770 901 788 885 c 1
 762 969 694 1032 604 1057 c 1
 604 702 l 1
 684 723 768 657 784 580 c 0
 788 555 786 530 786 506 c 2
 786 -31 l 1
 770 -20 748 -8 735 6 c 0
 729 12 727 23 723 29 c 0
 715 39 705 47 694 55 c 0
 682 68 672 78 655 82 c 0
 580 109 524 96 440 102 c 0
 317 109 164 141 106 266 c 1
 63 352 104 442 141 508 c 1
 168 494 l 1
 152 465 127 406 131 356 c 0
 139 289 201 246 260 223 c 0
 309 205 362 197 416 193 c 0
 453 190 489 193 524 186 c 0
 578 178 627 158 674 129 c 1
 674 559 l 2
 674 580 676 600 670 621 c 0
 662 641 645 649 625 645 c 0
 602 637 604 631 604 608 c 2
 604 555 l 1
 584 567 559 582 547 600 c 1
 522 575 500 549 485 518 c 1
 567 514 614 424 592 350 c 0
 578 303 537 270 487 264 c 0
 403 252 330 326 342 410 c 0
 356 512 432 627 522 672 c 1
 510 690 498 711 481 727 c 0
 410 795 295 842 178 864 c 0
 160 866 137 866 121 874 c 0
 109 879 66 934 57 948 c 1
 190 1022 311 1069 459 1114 c 0
 471 1116 487 1118 492 1133 c 1
 82 1133 l 1
 47 1137 l 1
 29 1165 14 1198 0 1231 c 1
492 1047 m 1
 385 1016 281 981 190 934 c 1
 266 918 340 885 403 842 c 0
 434 819 461 795 492 772 c 1
 492 1047 l 1
EndSplineSet
Ligature: 0 0 'pres' bn_half_ka bn_T_ra
LCarets: 0 0 '    ' 1 0 
EndChar
StartChar: bn_k_ba
Encoding: 65663 -1 318
Width: 1161
VWidth: 1000
Flags: HW
HStem: 604 184 1133 98<68 664 68 68 776 1137 776 776>
VStem: 664 113<260 678 678 678 780 985 985 985 1121 1133>
Fore
0 1231 m 1
 1137 1231 l 1
 1159 1227 l 1
 1180 1200 1192 1165 1206 1133 c 1
 776 1133 l 1
 776 1110 776 1094 799 1094 c 1
 809 1090 817 1087 827 1085 c 0
 948 1044 1036 940 1059 817 c 0
 1065 780 1063 745 1059 709 c 0
 1057 678 1053 651 1030 629 c 0
 971 573 870 621 874 700 c 0
 877 752 924 793 975 788 c 0
 997 786 1018 774 1034 760 c 1
 1001 883 897 969 776 995 c 1
 776 2 l 1
 774 4 729 33 723 43 c 0
 717 51 719 63 717 74 c 0
 713 117 680 168 657 197 c 0
 578 297 426 369 295 408 c 0
 266 416 236 424 205 428 c 0
 190 430 168 430 156 438 c 0
 145 444 84 522 74 537 c 1
 170 592 272 643 379 686 c 1
 334 705 285 719 236 729 c 0
 219 733 203 735 186 739 c 1
 152 739 145 758 129 776 c 0
 111 799 90 821 74 844 c 1
 225 934 455 1036 664 1087 c 1
 664 1133 l 1
 68 1133 l 1
 49 1135 l 1
 31 1163 16 1198 0 1231 c 1
664 985 m 1
 516 942 375 893 250 825 c 1
 319 807 395 778 453 741 c 0
 461 737 471 729 481 727 c 0
 489 727 498 729 504 731 c 2
 541 743 l 2
 582 758 623 770 664 780 c 1
 664 985 l 1
176 762 m 1
 176 758 178 760 178 762 c 1
 176 762 l 1
664 678 m 1
 516 635 375 586 250 518 c 1
 410 475 563 379 662 260 c 1
 664 260 l 1
 664 678 l 1
176 455 m 1
 176 451 178 453 178 455 c 1
 176 455 l 1
EndSplineSet
Ligature: 0 0 'blws' bn_ka bn_ba_phala
LCarets: 0 0 '    ' 1 0 
EndChar
StartChar: bn_kh_ra
Encoding: 65664 -1 319
Width: 1091
VWidth: 1000
Flags: HW
HStem: 94 137<-647 -512 -512 -485>
VStem: -225 113<168 330>
Fore
162 379 m 1
 197 350 230 321 273 305 c 0
 328 280 385 280 445 280 c 2
 580 280 l 2
 633 280 689 285 742 276 c 0
 789 268 832 248 867 217 c 1
 867 379 l 1
 979 379 l 1
 979 2 l 1
 945 22 910 47 879 72 c 0
 869 80 865 92 854 100 c 0
 793 143 711 143 621 143 c 2
 426 143 l 2
 394 143 363 143 332 151 c 0
 238 176 162 258 162 379 c 1
866 1343 m 1
 903 1307 938 1270 977 1235 c 1
 1010 1229 1053 1233 1087 1229 c 1
 1108 1200 1120 1165 1137 1133 c 1
 979 1133 l 1
 979 2 l 1
 977 4 932 33 926 43 c 0
 918 53 922 72 920 84 c 0
 903 195 829 289 758 354 c 0
 666 438 539 520 383 539 c 0
 338 545 328 541 307 567 c 1
 272 606 l 2
 246 635 166 721 154 739 c 1
 371 739 647 778 670 985 c 0
 674 1016 668 1047 637 1061 c 1
 594 1075 580 1047 559 1026 c 1
 473 961 336 909 213 911 c 0
 193 911 174 911 156 915 c 0
 104 928 53 973 45 1036 c 0
 29 1135 119 1221 215 1204 c 1
 276 1190 326 1149 336 1083 c 1
 412 1110 481 1157 530 1214 c 0
 539 1223 545 1229 555 1227 c 0
 586 1221 618 1198 643 1180 c 0
 741 1106 786 971 750 852 c 0
 725 774 664 717 594 678 c 0
 567 664 539 647 510 641 c 1
 522 629 541 621 555 612 c 0
 651 551 719 498 793 416 c 0
 817 387 846 356 864 324 c 1
 866 324 l 1
 866 1343 l 1
EndSplineSet
Ligature: 0 0 'vatu' bn_kha bn_ra_phala
LCarets: 0 0 '    ' 1 0 
EndChar
StartChar: bn_g_ga
Encoding: 65665 -1 320
Width: 886
VWidth: 1000
Flags: HW
HStem: 977 57 1133 98
VStem: 395 98 662 113<115 356 356 361 492 903 903 910 1044 1133>
Fore
662 1343 m 1
 698 1307 733 1270 772 1235 c 1
 805 1229 848 1233 883 1229 c 1
 903 1200 915 1165 932 1133 c 1
 774 1133 l 1
 774 2 l 1
 745 20 719 41 692 59 c 0
 662 84 662 76 662 115 c 2
 662 356 l 2
 662 367 664 377 657 385 c 0
 645 410 561 485 526 510 c 0
 455 563 365 623 272 590 c 0
 217 571 178 522 164 465 c 1
 254 492 401 500 465 416 c 1
 532 332 465 221 403 154 c 0
 393 143 350 94 322 88 c 0
 309 86 299 94 289 100 c 0
 268 111 248 123 225 133 c 1
 225 135 l 1
 297 174 354 242 383 317 c 0
 395 348 408 385 377 408 c 0
 371 414 348 422 336 422 c 0
 285 426 190 377 150 362 c 0
 137 358 94 342 74 352 c 1
 51 369 31 432 31 477 c 1
 39 598 176 649 281 657 c 1
 281 659 l 1
 227 686 l 1
 227 690 l 1
 293 727 348 791 379 860 c 0
 389 885 403 915 393 942 c 0
 377 981 328 981 293 971 c 0
 242 958 195 932 143 913 c 0
 125 907 96 895 78 903 c 0
 61 909 55 932 49 946 c 0
 39 967 33 991 31 1014 c 0
 31 1139 147 1188 244 1206 c 0
 356 1225 416 1210 496 1165 c 0
 555 1133 612 1094 662 1044 c 1
 662 1343 l 1
662 492 m 1
 662 903 l 2
 662 918 664 932 655 944 c 0
 639 971 612 991 590 1012 c 0
 551 1049 508 1081 461 1108 c 0
 432 1126 399 1143 365 1149 c 0
 268 1169 182 1104 164 1018 c 1
 178 1020 195 1024 209 1028 c 0
 309 1044 397 1036 453 981 c 0
 535 899 471 786 408 713 c 0
 393 694 375 678 356 664 c 1
 356 662 l 1
 475 645 580 563 662 492 c 1
EndSplineSet
Ligature: 0 0 'pres' bn_half_ga bn_ga
LCarets: 0 0 '    ' 1 0 
EndChar
StartChar: bn_g_dha
Encoding: 65666 -1 321
Width: 956
VWidth: 1000
Flags: HW
VStem: -225 113<236 537 537 537 720 739> -172 59<66 86>
Fore
840 582 m 5
 1036 582 l 5
 1036 500 l 5
 840 500 l 5
 840 582 l 5
955 587 m 5
 1037 587 l 5
 1037 -23 l 5
 955 98 l 5
 955 587 l 5
728 582 m 1
 840 582 l 5
 840 -155 l 1
 838 -153 793 -124 787 -114 c 0
 783 -108 783 -100 781 -91 c 0
 781 -51 728 17 701 44 c 0
 634 109 535 156 431 183 c 0
 418 187 402 187 390 193 c 0
 375 199 337 259 330 275 c 1
 433 337 l 1
 517 378 597 421 691 451 c 1
 724 468 l 1
 730 500 728 543 728 582 c 1
728 380 m 1
 662 357 603 330 541 304 c 1
 455 255 l 1
 527 228 574 203 631 162 c 0
 666 136 695 105 728 79 c 1
 728 380 l 1
731 1343 m 1
 768 1307 803 1270 842 1235 c 1
 874 1229 918 1233 952 1229 c 1
 973 1200 985 1165 1001 1133 c 1
 844 1133 l 1
 844 2 l 5
 817 18 793 37 768 55 c 0
 758 63 741 70 735 82 c 0
 727 96 731 119 731 133 c 2
 731 825 l 2
 731 885 733 881 711 911 c 0
 688 942 612 1018 571 1049 c 0
 487 1116 397 1176 287 1130 c 0
 256 1118 215 1081 201 1051 c 0
 186 1022 182 995 178 965 c 1
 221 983 270 987 317 987 c 0
 436 987 492 946 528 870 c 1
 582 745 465 573 389 492 c 0
 379 481 365 463 350 461 c 0
 340 459 328 469 319 475 c 2
 248 522 l 1
 266 543 289 561 309 582 c 0
 354 633 389 690 416 754 c 0
 428 786 446 829 434 864 c 0
 430 872 426 879 422 885 c 0
 387 922 332 909 291 891 c 0
 242 870 195 840 143 821 c 0
 127 817 100 805 82 815 c 0
 57 825 43 895 37 924 c 0
 27 977 37 1016 51 1057 c 1
 96 1155 207 1208 307 1225 c 0
 391 1237 432 1229 496 1198 c 0
 553 1169 606 1130 653 1087 c 0
 680 1063 711 1036 729 1006 c 1
 731 1006 l 1
 731 1343 l 1
EndSplineSet
LCarets: 0 255 '    ' 1 0 
Ligature: 0 0 'pres' bn_half_ga bn_dha
EndChar
StartChar: bn_g_na
Encoding: 65667 -1 322
Width: 956
VWidth: 1000
Flags: HW
VStem: -225 113<242 289> -170 57<58 61>
Fore
474 279 m 5
 496 254 521 211 515 164 c 4
 500 49 373 8 289 63 c 5
 248 98 226 143 234 209 c 4
 246 301 318 377 410 389 c 4
 447 393 486 385 521 375 c 4
 603 350 672 301 732 242 c 5
 732 289 l 5
 844 289 l 5
 844 2 l 5
 842 4 797 33 791 43 c 4
 787 47 787 55 787 61 c 4
 781 96 750 139 728 166 c 4
 681 217 609 252 541 268 c 4
 519 274 496 274 474 279 c 5
439 365 m 5
 439 360 441 362 441 365 c 5
 439 365 l 5
731 1343 m 1
 768 1307 803 1270 842 1235 c 1
 874 1229 918 1233 952 1229 c 1
 973 1200 985 1165 1001 1133 c 1
 844 1133 l 1
 844 2 l 1
 817 18 793 37 768 55 c 0
 758 63 741 70 735 82 c 0
 727 96 731 119 731 133 c 2
 731 825 l 2
 731 885 733 881 711 911 c 0
 688 942 612 1018 571 1049 c 0
 487 1116 397 1176 287 1130 c 0
 256 1118 215 1081 201 1051 c 0
 186 1022 182 995 178 965 c 1
 221 983 270 987 317 987 c 0
 436 987 492 946 528 870 c 1
 582 745 465 573 389 492 c 0
 379 481 365 463 350 461 c 0
 340 459 328 469 319 475 c 2
 248 522 l 1
 266 543 289 561 309 582 c 0
 354 633 389 690 416 754 c 0
 428 786 446 829 434 864 c 0
 430 872 426 879 422 885 c 0
 387 922 332 909 291 891 c 0
 242 870 195 840 143 821 c 0
 127 817 100 805 82 815 c 0
 57 825 43 895 37 924 c 0
 27 977 37 1016 51 1057 c 1
 96 1155 207 1208 307 1225 c 0
 391 1237 432 1229 496 1198 c 0
 553 1169 606 1130 653 1087 c 0
 680 1063 711 1036 729 1006 c 1
 731 1006 l 1
 731 1343 l 1
EndSplineSet
Ligature: 0 0 'pres' bn_half_ga bn_na
EndChar
StartChar: bn_g_ma
Encoding: 65668 -1 323
Width: 936
VWidth: 1000
Flags: HW
HStem: 515315 444065 1.87734e+06 162382<1199.49 1214.44 1199.49 1199.49 1218.9 1222.49 1218.9 1218.9>
VStem: 1214.44 4.50462<556738 1.87734e+06> 1216.63 2.27224<107702 115987>
Fore
710 1225 m 1
 915 1229 l 1
 936 1227 l 1
 954 1198 969 1163 983 1131 c 1
 825 1131 l 1
 852.188 0 l 5
 842.812 5 811.875 36.25 802.5 48.75 c 5
 798.75 58.75 798.75 71.25 798.75 85 c 4
 791.25 153.75 775.312 192.5 752.812 248.75 c 4
 705 366.25 618.75 461.25 527.812 515 c 5
 524.062 493.75 518.438 473.75 509.062 456.25 c 4
 454.688 353.75 328.125 363.75 287.812 481.25 c 4
 280.312 505 276.562 530 276.562 555 c 4
 276.562 630 315 696.25 368.438 713.75 c 4
 395.625 725 424.688 722.5 450.938 716.25 c 4
 545.625 693.75 628.125 612.5 689.062 517.5 c 4
 708.75 486.25 731.25 453.75 745.312 417.5 c 5
 747.188 417.5 l 5
 713 1131 l 1
 713 1131 l 1
 713 1131 l 1
 721.304 1159 728.897 1192.01 710 1225 c 1
225 643 m 1
 293 688 348 762 379 838 c 0
 391 866 406 903 391 932 c 0
 377 961 340 967 311 963 c 0
 254 954 203 918 150 897 c 0
 127 889 86 868 68 891 c 0
 49 911 27 983 31 1024 c 0
 37 1104 98 1165 168 1196 c 0
 199 1208 305 1241 367 1229 c 1
 457 1219 555 1147 612 1094 c 0
 639 1071 705 1008 715 958 c 0
 721 938 717 913 717 893 c 0
 717 877 719 860 715 844 c 1
 684 934 571 1036 498 1090 c 0
 459 1118 393 1161 324 1161 c 0
 240 1157 176 1090 164 1010 c 1
 209 1024 256 1028 303 1028 c 0
 375 1028 434 1001 465 956 c 0
 545 842 428 682 352 610 c 1
 324 588 319 586 291 600 c 0
 268 614 244 625 225 643 c 1
EndSplineSet
Ligature: 0 0 'pres' bn_half_ga bn_ma
LCarets: 0 0 '    ' 1 0 
EndChar
StartChar: bn_g_la
Encoding: 65669 -1 324
Width: 956
VWidth: 1000
Flags: HW
HStem: 907 78 1133 98
VStem: 436 104 731 113<133 825 825 855 1006 1133>
Fore
732 252 m 21
 723 285 l 5
 705 318 666 351 629 361 c 4
 569 375 510 332 506 271 c 5
 424 346 293 398 186 342 c 4
 88 289 41 152 88 49 c 4
 131 -39 248 -96 373 -84 c 4
 402 -82 428 -77 451 -59 c 4
 500 -20 506 58 463 105 c 4
 432 136 363 156 322 123 c 5
 266 90 256 21 285 -32 c 5
 213 -18 123 23 139 125 c 4
 156 207 232 260 311 269 c 4
 383 275 440 232 490 183 c 4
 512 160 533 133 559 117 c 5
 559 162 569 211 600 246 c 5
 629 285 686 285 717 242 c 4
 729 226 725 201 725 183 c 6
 725 78 l 6
 725 64 729 96 735 82 c 4
 739 70 725 91 735 82 c 4
 761 64 705 68 732 52 c 5
 732 252 l 21
731 1343 m 1
 768 1307 803 1270 842 1235 c 1
 874 1229 918 1233 952 1229 c 1
 973 1200 985 1165 1001 1133 c 1
 844 1133 l 1
 844 2 l 1
 817 18 793 37 768 55 c 0
 758 63 741 70 735 82 c 0
 727 96 731 119 731 133 c 2
 731 825 l 2
 731 885 733 881 711 911 c 0
 688 942 612 1018 571 1049 c 0
 487 1116 397 1176 287 1130 c 0
 256 1118 215 1081 201 1051 c 0
 186 1022 182 995 178 965 c 1
 221 983 270 987 317 987 c 0
 436 987 492 946 528 870 c 1
 582 745 465 573 389 492 c 0
 379 481 365 463 350 461 c 0
 340 459 328 469 319 475 c 2
 248 522 l 1
 266 543 289 561 309 582 c 0
 354 633 389 690 416 754 c 0
 428 786 446 829 434 864 c 0
 430 872 426 879 422 885 c 0
 387 922 332 909 291 891 c 0
 242 870 195 840 143 821 c 0
 127 817 100 805 82 815 c 0
 57 825 43 895 37 924 c 0
 27 977 37 1016 51 1057 c 1
 96 1155 207 1208 307 1225 c 0
 391 1237 432 1229 496 1198 c 0
 553 1169 606 1130 653 1087 c 0
 680 1063 711 1036 729 1006 c 1
 731 1006 l 1
 731 1343 l 1
EndSplineSet
LCarets: 0 255 '    ' 1 0 
Ligature: 0 0 'pres' bn_half_ga bn_la
EndChar
StartChar: bn_g_ba
Encoding: 65670 -1 325
Width: 956
VWidth: 1000
Flags: HW
VStem: -225 113<236 537 537 537 720 739> -172 59<66 86>
Fore
728 582 m 1
 840 582 l 1
 840 -155 l 1
 838 -153 793 -124 787 -114 c 0
 783 -108 783 -100 781 -91 c 0
 781 -51 728 17 701 44 c 0
 634 109 535 156 431 183 c 0
 418 187 402 187 390 193 c 0
 375 199 337 259 330 275 c 1
 433 337 l 1
 517 378 597 421 691 451 c 1
 724 468 l 1
 730 500 728 543 728 582 c 1
728 380 m 1
 662 357 603 330 541 304 c 1
 455 255 l 1
 527 228 574 203 631 162 c 0
 666 136 695 105 728 79 c 1
 728 380 l 1
731 1343 m 1
 768 1307 803 1270 842 1235 c 1
 874 1229 918 1233 952 1229 c 1
 973 1200 985 1165 1001 1133 c 1
 844 1133 l 1
 844 2 l 1
 817 18 793 37 768 55 c 0
 758 63 741 70 735 82 c 0
 727 96 731 119 731 133 c 2
 731 825 l 2
 731 885 733 881 711 911 c 0
 688 942 612 1018 571 1049 c 0
 487 1116 397 1176 287 1130 c 0
 256 1118 215 1081 201 1051 c 0
 186 1022 182 995 178 965 c 1
 221 983 270 987 317 987 c 0
 436 987 492 946 528 870 c 1
 582 745 465 573 389 492 c 0
 379 481 365 463 350 461 c 0
 340 459 328 469 319 475 c 2
 248 522 l 1
 266 543 289 561 309 582 c 0
 354 633 389 690 416 754 c 0
 428 786 446 829 434 864 c 0
 430 872 426 879 422 885 c 0
 387 922 332 909 291 891 c 0
 242 870 195 840 143 821 c 0
 127 817 100 805 82 815 c 0
 57 825 43 895 37 924 c 0
 27 977 37 1016 51 1057 c 1
 96 1155 207 1208 307 1225 c 0
 391 1237 432 1229 496 1198 c 0
 553 1169 606 1130 653 1087 c 0
 680 1063 711 1036 729 1006 c 1
 731 1006 l 1
 731 1343 l 1
EndSplineSet
Ligature: 0 0 'blws' bn_ga bn_ba_phala
LCarets: 0 0 '    ' 1 0 
EndChar
